<svg width="21" height="20" viewBox="0 0 21 20" fill="none" xmlns="http://www.w3.org/2000/svg">
<path d="M9.60397 2.80833C9.97131 2.06698 11.0287 2.06698 11.396 2.80833L13.2026 6.45429C13.3484 6.74861 13.6295 6.95254 13.9546 6.99987L17.9898 7.58743C18.8109 7.70699 19.1376 8.71687 18.5421 9.29469L15.6287 12.1216C15.3917 12.3515 15.2835 12.6835 15.3395 13.0089L16.0276 17.0052C16.1681 17.8216 15.3119 18.4451 14.578 18.0607L10.9641 16.1674C10.6734 16.0151 10.3266 16.0151 10.0359 16.1674L6.422 18.0607C5.68815 18.4451 4.83188 17.8216 4.97244 17.0052L5.66048 13.0089C5.7165 12.6835 5.6083 12.3515 5.37134 12.1216L2.45789 9.29469C1.86237 8.71687 2.18906 7.70699 3.01016 7.58743L7.04544 6.99987C7.37048 6.95254 7.65155 6.74861 7.79739 6.45429L9.60397 2.80833Z" fill="#B2B2B2"/>
</svg>
