<svg width="24" height="24" viewBox="0 0 24 24" fill="none" xmlns="http://www.w3.org/2000/svg">
<path d="M20 20H4C3.45 20 2.97917 19.8042 2.5875 19.4125C2.19583 19.0208 2 18.55 2 18V14C2.55 14 3.02083 13.8042 3.4125 13.4125C3.80417 13.0208 4 12.55 4 12C4 11.45 3.80417 10.9792 3.4125 10.5875C3.02083 10.1958 2.55 10 2 10V6C2 5.45 2.19583 4.97917 2.5875 4.5875C2.97917 4.19583 3.45 4 4 4H20C20.55 4 21.0208 4.19583 21.4125 4.5875C21.8042 4.97917 22 5.45 22 6V10C21.45 10 20.9792 10.1958 20.5875 10.5875C20.1958 10.9792 20 11.45 20 12C20 12.55 20.1958 13.0208 20.5875 13.4125C20.9792 13.8042 21.45 14 22 14V18C22 18.55 21.8042 19.0208 21.4125 19.4125C21.0208 19.8042 20.55 20 20 20ZM20 18V15.45C19.3833 15.0833 18.8958 14.5958 18.5375 13.9875C18.1792 13.3792 18 12.7167 18 12C18 11.2833 18.1792 10.6208 18.5375 10.0125C18.8958 9.40417 19.3833 8.91667 20 8.55V6H4V8.55C4.61667 8.91667 5.10417 9.40417 5.4625 10.0125C5.82083 10.6208 6 11.2833 6 12C6 12.7167 5.82083 13.3792 5.4625 13.9875C5.10417 14.5958 4.61667 15.0833 4 15.45V18H20Z" fill="#393280"/>
<circle cx="14.5" cy="14.5" r="1.5" fill="#393280"/>
<circle cx="9.5" cy="9.5" r="1.5" fill="#393280"/>
<rect x="13.1328" y="8.03516" width="2" height="8" rx="1" transform="rotate(30 13.1328 8.03516)" fill="#393280"/>
</svg>
