<svg width="20" height="21" viewBox="0 0 20 21" fill="none" xmlns="http://www.w3.org/2000/svg">
<path d="M14.167 18.8333C13.4725 18.8333 12.8823 18.5902 12.3962 18.1041C11.91 17.618 11.667 17.0277 11.667 16.3333C11.667 16.25 11.6878 16.0555 11.7295 15.75L5.87533 12.3333C5.6531 12.5416 5.39616 12.7048 5.10449 12.8229C4.81283 12.9409 4.50033 13 4.16699 13C3.47255 13 2.88227 12.7569 2.39616 12.2708C1.91005 11.7847 1.66699 11.1944 1.66699 10.5C1.66699 9.80551 1.91005 9.21524 2.39616 8.72913C2.88227 8.24301 3.47255 7.99996 4.16699 7.99996C4.50033 7.99996 4.81283 8.05899 5.10449 8.17704C5.39616 8.2951 5.6531 8.45829 5.87533 8.66663L11.7295 5.24996C11.7017 5.15274 11.6844 5.05899 11.6774 4.96871C11.6705 4.87843 11.667 4.77774 11.667 4.66663C11.667 3.97218 11.91 3.3819 12.3962 2.89579C12.8823 2.40968 13.4725 2.16663 14.167 2.16663C14.8614 2.16663 15.4517 2.40968 15.9378 2.89579C16.4239 3.3819 16.667 3.97218 16.667 4.66663C16.667 5.36107 16.4239 5.95135 15.9378 6.43746C15.4517 6.92357 14.8614 7.16663 14.167 7.16663C13.8337 7.16663 13.5212 7.1076 13.2295 6.98954C12.9378 6.87149 12.6809 6.70829 12.4587 6.49996L6.60449 9.91663C6.63227 10.0138 6.64963 10.1076 6.65658 10.1979C6.66352 10.2882 6.66699 10.3888 6.66699 10.5C6.66699 10.6111 6.66352 10.7118 6.65658 10.802C6.64963 10.8923 6.63227 10.9861 6.60449 11.0833L12.4587 14.5C12.6809 14.2916 12.9378 14.1284 13.2295 14.0104C13.5212 13.8923 13.8337 13.8333 14.167 13.8333C14.8614 13.8333 15.4517 14.0763 15.9378 14.5625C16.4239 15.0486 16.667 15.6388 16.667 16.3333C16.667 17.0277 16.4239 17.618 15.9378 18.1041C15.4517 18.5902 14.8614 18.8333 14.167 18.8333ZM14.167 17.1666C14.4031 17.1666 14.601 17.0868 14.7607 16.927C14.9205 16.7673 15.0003 16.5694 15.0003 16.3333C15.0003 16.0972 14.9205 15.8993 14.7607 15.7395C14.601 15.5798 14.4031 15.5 14.167 15.5C13.9309 15.5 13.733 15.5798 13.5732 15.7395C13.4135 15.8993 13.3337 16.0972 13.3337 16.3333C13.3337 16.5694 13.4135 16.7673 13.5732 16.927C13.733 17.0868 13.9309 17.1666 14.167 17.1666ZM4.16699 11.3333C4.4031 11.3333 4.60102 11.2534 4.76074 11.0937C4.92046 10.934 5.00033 10.7361 5.00033 10.5C5.00033 10.2638 4.92046 10.0659 4.76074 9.90621C4.60102 9.74649 4.4031 9.66663 4.16699 9.66663C3.93088 9.66663 3.73296 9.74649 3.57324 9.90621C3.41352 10.0659 3.33366 10.2638 3.33366 10.5C3.33366 10.7361 3.41352 10.934 3.57324 11.0937C3.73296 11.2534 3.93088 11.3333 4.16699 11.3333ZM14.167 5.49996C14.4031 5.49996 14.601 5.4201 14.7607 5.26038C14.9205 5.10065 15.0003 4.90274 15.0003 4.66663C15.0003 4.43051 14.9205 4.2326 14.7607 4.07288C14.601 3.91315 14.4031 3.83329 14.167 3.83329C13.9309 3.83329 13.733 3.91315 13.5732 4.07288C13.4135 4.2326 13.3337 4.43051 13.3337 4.66663C13.3337 4.90274 13.4135 5.10065 13.5732 5.26038C13.733 5.4201 13.9309 5.49996 14.167 5.49996Z" fill="#999999"/>
</svg>
