<svg width="12" height="13" viewBox="0 0 12 13" fill="none" xmlns="http://www.w3.org/2000/svg">
<path d="M5.20312 8.07812H7.21875L8.07812 9.17969C8.61719 8.55469 8.92969 7.59375 8.92188 6.34375C8.92969 3.92188 7.77344 2.61719 6.03125 2.60938C4.27344 2.61719 3.125 3.92188 3.125 6.34375C3.125 8.75781 4.27344 10.0703 6.03125 10.0781C6.25781 10.0781 6.47656 10.0547 6.67969 10.0078L5.20312 8.07812ZM0.734375 6.34375C0.734375 2.64844 3.01562 0.53125 6.03125 0.53125C9.02344 0.53125 11.3125 2.64844 11.3125 6.34375C11.3125 8.36719 10.625 9.91406 9.51562 10.9062L11.125 12.9375H8.92188L8.01562 11.8125C7.40625 12.0391 6.73438 12.1562 6.03125 12.1562C3.01562 12.1562 0.734375 10.0234 0.734375 6.34375Z" fill="#393280"/>
</svg>
