<?xml version="1.0" encoding="utf-8"?>
<!-- Generator: Adobe Illustrator 26.3.1, SVG Export Plug-In . SVG Version: 6.00 Build 0)  -->
<svg version="1.1" id="Layer_1" xmlns="http://www.w3.org/2000/svg" xmlns:xlink="http://www.w3.org/1999/xlink" x="0px" y="0px"
	 viewBox="0 0 180 31.1" style="enable-background:new 0 0 180 31.1;" xml:space="preserve">
<style type="text/css">
	.st0{fill:#656666;}
</style>
<g>
	<g>
		<g>
			<path class="st0" d="M6.8,4.9C5.6,5.5,4.3,7,5,9l0.4,1.2c0.9,2.7,1.4,4.1,0.2,8.1l0,0c-0.6,2.1-1.9,3.4-3.2,4.7l-1.3,1.4
				c-0.8,1-1.2,2.2-1,3.4C0.3,29,1,30,2.2,30.7c2.1,1.2,4.2-0.4,6-2.1c1.8-1.8,2.5-3.3,3.5-5.8c1.2-3,1.8-6.7,1.6-10
				c-0.2-3-0.4-4.6-1.9-6.8C10.4,4.3,8.3,4.2,6.8,4.9z M6.9,14.3c0-1.6-0.4-2.8-1-4.4L5.5,8.8C5.4,8.5,5.4,8.2,5.4,7.9
				c0-1.2,0.9-2.1,1.7-2.5c1.3-0.6,3-0.5,3.9,0.8c1.3,2.1,1.6,3.5,1.8,6.5c0.2,3.3-0.4,6.8-1.6,9.8c-1,2.4-1.6,3.9-3.3,5.6
				c-2.3,2.2-3.9,2.8-5.3,2.1c-1.1-0.6-1.7-1.5-1.9-2.5c0-0.2,0-0.4,0-0.5c0-0.8,0.3-1.7,0.9-2.4l1.3-1.4c1.3-1.4,2.7-2.8,3.4-5
				C6.7,16.8,6.9,15.5,6.9,14.3z M6.2,18.5L6.2,18.5L6.2,18.5L6.2,18.5z"/>
			<path class="st0" d="M20.6,6.4c-2.2,1-4.7,2.6-6.3,3.8c-2.2,1.9-3.8,4.9-4.3,8.3l-0.2,1.3c-0.4,2.6-0.9,5.8-0.5,8
				c0.4,1.9,2.2,2.8,3.8,2.7c1.4-0.1,3.1-1,3.4-3.3c0.1-1,0.1-2,0.1-2.9c0-2.6,0-5,1.6-7.1c1.3-1.7,4.2-2.9,6.1-3.8l0.3-0.1
				c1.1-0.5,2-1.5,2.4-2.7c0.1-0.3,0.1-0.6,0.1-1c0-0.6-0.2-1.4-0.7-2.2C24.5,4.6,21.5,5.9,20.6,6.4z M9.9,27.6
				c-0.4-2,0.1-5.3,0.5-7.8l0.2-1.3c0.5-3.3,2-6.1,4.1-7.9c1.5-1.2,3.9-2.7,6.1-3.8c2.4-1.1,3.9-0.9,5,0.7c0.7,1.1,0.7,2.1,0.5,2.7
				c-0.3,1-1.1,1.9-2,2.3L24,12.8c-2,0.9-5,2.2-6.4,4l0,0C16,18.9,16,21.6,16,24.2c0,1,0,1.9-0.1,2.9c-0.2,2-1.6,2.7-2.8,2.8
				C11.7,29.9,10.2,29.2,9.9,27.6z"/>
			<path class="st0" d="M15,0.2c-0.9,0.3-1.5,0.9-1.9,1.7c-0.8,1.7-0.1,3.7,1.6,4.5c0.8,0.4,1.7,0.5,2.6,0.2
				c0.9-0.3,1.5-0.9,1.9-1.7c0.2-0.5,0.3-1,0.3-1.5c0-1.3-0.7-2.5-1.9-3C16.8-0.1,15.9-0.1,15,0.2z M14.9,5.9
				c-1.4-0.7-2-2.4-1.3-3.7C14,1.5,14.5,1,15.2,0.7c0.7-0.2,1.5-0.2,2.1,0.1c1.4,0.7,2,2.4,1.3,3.7l0,0c-0.3,0.7-0.9,1.2-1.6,1.4
				C16.3,6.3,15.6,6.2,14.9,5.9z M19.2,4.9L19.2,4.9L19.2,4.9L19.2,4.9z"/>
		</g>
		<g>
			<g>
				<path class="st0" d="M27.4,22.4c0,5.5,2.3,8.1,7.1,8.1h6.3v-2.6h-6.9c-3.5,0-3.7-4.6-3.7-5.5c0-0.9,0.2-5.5,3.7-5.5h6.9v-2.6
					h-6.3C29.7,14.3,27.4,16.9,27.4,22.4z"/>
				<path class="st0" d="M43.7,15.7c-1.3,1.3-1.6,3.5-1.5,6.7c0,3.2,0.2,5.4,1.6,6.7c0.9,0.9,2.4,1.4,4.5,1.4h7.2v-2.6h-7.9l-0.1,0
					c-2,0-2.5-1.4-2.5-4h10.3v-2.6H44.9c0-2.6,0.3-4.4,2.6-4.4h7.9v-2.6h-7.2C46.1,14.3,44.6,14.7,43.7,15.7z"/>
				<path class="st0" d="M60,24.5V14.3h-2.8v9.5c0,4.4,2.3,6.7,6.6,6.7h5.6v-2.6h-5.9C62.2,27.9,60,27.2,60,24.5z"/>
				<path class="st0" d="M76,27.9c-1.3,0-3.4-0.7-3.4-3.5V14.3h-2.8v9.5c0,4.4,2.3,6.7,6.6,6.7h5.6v-2.6H76z"/>
			</g>
			<path class="st0" d="M90.4,30.4V14.4h8c1.5,0,2.7,0.3,3.5,1c0.8,0.7,1.2,1.6,1.2,2.8c0,0.9-0.1,1.7-0.4,2.4
				c-0.3,0.7-0.9,1.2-1.8,1.6c0.8,0.3,1.4,0.9,1.7,1.5c0.3,0.7,0.5,1.6,0.5,2.7c0,0.5-0.1,1-0.3,1.5c-0.2,0.5-0.5,0.9-0.8,1.2
				c-0.4,0.4-0.8,0.7-1.4,0.9c-0.6,0.2-1.2,0.3-1.9,0.3H90.4z M92,15.9v5.5h6.5c1,0,1.8-0.3,2.3-0.8c0.5-0.5,0.8-1.1,0.8-1.9
				c0-1-0.3-1.7-0.8-2.2c-0.5-0.5-1.3-0.7-2.4-0.7H92z M92,22.9v6h6.5c1,0,1.8-0.3,2.3-0.9c0.5-0.6,0.8-1.3,0.8-2.1
				c0-0.8-0.3-1.6-0.8-2.2c-0.5-0.6-1.3-0.9-2.3-0.9H92z"/>
			<path class="st0" d="M107.4,14.4v15.9h-1.6V14.4H107.4z"/>
			<path class="st0" d="M117.7,14.3c2.7,0,4.7,0.7,5.9,2c1.2,1.3,1.8,3.4,1.8,6.2c0,2.6-0.6,4.6-1.8,5.9c-1.2,1.4-3.2,2.1-5.9,2.1
				c-2.7,0-4.7-0.7-5.9-2.1c-1.2-1.4-1.7-3.4-1.7-5.9c0-2.8,0.6-4.9,1.8-6.2C113,14.9,115,14.3,117.7,14.3z M117.7,29
				c1.1,0,2-0.2,2.8-0.5c0.8-0.3,1.4-0.7,1.9-1.3c0.5-0.6,0.8-1.3,1.1-2.1c0.2-0.8,0.3-1.7,0.3-2.7c0-2.2-0.5-3.9-1.4-5
				c-0.9-1.1-2.5-1.7-4.7-1.7c-2.2,0-3.7,0.6-4.6,1.7c-0.9,1.1-1.3,2.8-1.3,5c0,1,0.1,1.9,0.3,2.7c0.2,0.8,0.5,1.5,1,2.1
				c0.5,0.6,1.1,1,1.8,1.3C115.6,28.9,116.6,29,117.7,29z"/>
			<path class="st0" d="M132.4,15.8v14.6h-1.6V15.8h-4.3v-1.4h10.2v1.4H132.4z"/>
			<path class="st0" d="M139.7,23.3c0,0.7,0,1.4,0.1,2c0.1,0.7,0.2,1.3,0.4,1.8c0.2,0.5,0.6,1,1,1.3c0.4,0.3,1.1,0.5,1.8,0.4h7.5
				v1.5h-6.8c-1.3,0-2.3-0.2-3.1-0.5c-0.8-0.4-1.3-0.9-1.7-1.6c-0.4-0.7-0.6-1.5-0.7-2.5c-0.1-1-0.1-2.1-0.1-3.4
				c0-1.3,0-2.4,0.1-3.4c0.1-1,0.3-1.8,0.7-2.5c0.4-0.7,1-1.2,1.7-1.6c0.7-0.4,1.8-0.5,3.1-0.5h6.8v1.5h-7.7c-0.8,0-1.4,0.2-1.8,0.5
				c-0.4,0.4-0.7,0.8-0.9,1.4c-0.2,0.6-0.3,1.2-0.3,1.9c0,0.7,0,1.4,0,2.1h10.6v1.5H139.7z"/>
			<path class="st0" d="M154.1,22.4c0,0.7,0.1,1.5,0.2,2.3c0.1,0.8,0.4,1.5,0.7,2.1c0.3,0.6,0.8,1.1,1.3,1.5c0.5,0.4,1.2,0.6,2,0.6
				h6.7v1.5h-5.9c-1.3,0-2.4-0.2-3.2-0.6c-0.9-0.4-1.5-0.9-2-1.7c-0.5-0.7-0.9-1.6-1.1-2.5c-0.2-1-0.3-2-0.3-3.2
				c0-1.1,0.1-2.2,0.3-3.2c0.2-1,0.6-1.8,1.1-2.6c0.5-0.7,1.2-1.3,2-1.7c0.9-0.4,1.9-0.6,3.2-0.6h5.9V16h-6.7c-0.8,0-1.5,0.2-2,0.6
				c-0.5,0.4-1,0.9-1.3,1.5c-0.3,0.6-0.6,1.3-0.7,2.1C154.2,20.9,154.1,21.7,154.1,22.4z"/>
			<path class="st0" d="M169.1,14.4v7.6c0.2-0.4,0.5-0.7,0.9-0.8c0.4-0.1,0.7-0.2,0.9-0.2h7.5v-6.7h1.6v15.9h-1.6v-7.9H171
				c-0.2,0-0.4,0-0.6,0.1c-0.2,0.1-0.4,0.2-0.6,0.4c-0.2,0.2-0.3,0.4-0.5,0.6c-0.1,0.2-0.2,0.5-0.2,0.7v6h-1.6V14.4H169.1z"/>
		</g>
	</g>
</g>
</svg>
