<?xml version="1.0" encoding="utf-8"?>
<!-- Generator: Adobe Illustrator 26.3.1, SVG Export Plug-In . SVG Version: 6.00 Build 0)  -->
<svg version="1.1" id="Layer_1" xmlns="http://www.w3.org/2000/svg" xmlns:xlink="http://www.w3.org/1999/xlink" x="0px" y="0px"
	 viewBox="0 0 24 24" style="enable-background:new 0 0 24 24;" xml:space="preserve">
<style type="text/css">
	.st0{fill:#999999;}
</style>
<path class="st0" d="M8.9,17.1c-0.2-0.1-0.2-0.3-0.2-0.5s0.1-0.4,0.2-0.5l4.1-4.1L8.9,7.9C8.7,7.8,8.6,7.6,8.6,7.4S8.7,7,8.9,6.9
	s0.3-0.2,0.5-0.2s0.4,0.1,0.5,0.2l4.5,4.5c0.1,0.1,0.1,0.2,0.2,0.3c0,0.1,0.1,0.2,0.1,0.3s0,0.2-0.1,0.3c0,0.1-0.1,0.2-0.2,0.3
	l-4.5,4.5c-0.1,0.1-0.3,0.2-0.5,0.2S9,17.3,8.9,17.1z"/>
</svg>
