<?xml version="1.0" encoding="utf-8"?>
<!-- Generator: Adobe Illustrator 26.3.1, SVG Export Plug-In . SVG Version: 6.00 Build 0)  -->
<svg version="1.1" id="Layer_1" xmlns="http://www.w3.org/2000/svg" xmlns:xlink="http://www.w3.org/1999/xlink" x="0px" y="0px"
	 viewBox="0 0 24 24" style="enable-background:new 0 0 24 24;" xml:space="preserve">
<style type="text/css">
	.st0{fill:#CCCCCC;}
</style>
<path class="st0" d="M5.3,20.5c-0.5,0-0.9-0.2-1.3-0.5c-0.4-0.4-0.5-0.8-0.5-1.3V5.3C3.5,4.8,3.7,4.4,4,4s0.8-0.5,1.3-0.5h13.4
	c0.5,0,0.9,0.2,1.3,0.5c0.3,0.3,0.5,0.8,0.5,1.3v13.4c0,0.5-0.2,0.9-0.5,1.3c-0.4,0.3-0.8,0.5-1.3,0.5H5.3z M5.3,19h13.4
	c0.1,0,0.2,0,0.2-0.1c0.1-0.1,0.1-0.1,0.1-0.2V5.3c0-0.1,0-0.2-0.1-0.2C18.9,5,18.8,5,18.7,5H5.3C5.2,5,5.1,5,5.1,5.1
	C5,5.1,5,5.2,5,5.3v13.4c0,0.1,0,0.2,0.1,0.2C5.1,19,5.2,19,5.3,19z M10.6,15.5c0.1,0,0.2,0,0.3-0.1c0.1,0,0.2-0.1,0.3-0.2l5.6-5.6
	C17,9.5,17,9.3,17,9.1s-0.1-0.4-0.2-0.5c-0.1-0.2-0.3-0.2-0.5-0.2c-0.2,0-0.4,0.1-0.5,0.2l-5.1,5.1l-2.4-2.4
	c-0.1-0.1-0.3-0.2-0.5-0.2s-0.4,0.1-0.5,0.2C7.1,11.6,7,11.8,7,11.9c0,0.2,0.1,0.4,0.2,0.5l2.8,2.8c0.1,0.1,0.2,0.1,0.3,0.2
	C10.4,15.5,10.5,15.5,10.6,15.5z M5,19C5,19,5,19,5,19c0-0.1,0-0.2,0-0.3V5.3c0-0.1,0-0.2,0-0.2C5,5,5,5,5,5s0,0,0,0.1
	c0,0.1,0,0.1,0,0.2v13.4C5,18.8,5,18.9,5,19C5,19,5,19,5,19z"/>
</svg>
