<?xml version="1.0" encoding="utf-8"?>
<!-- Generator: Adobe Illustrator 26.3.1, SVG Export Plug-In . SVG Version: 6.00 Build 0)  -->
<svg version="1.1" id="Layer_1" xmlns="http://www.w3.org/2000/svg" xmlns:xlink="http://www.w3.org/1999/xlink" x="0px" y="0px"
	 viewBox="0 0 16 16" style="enable-background:new 0 0 16 16;" xml:space="preserve">
<style type="text/css">
	.st0{fill:#FFFFFF;}
</style>
<path class="st0" d="M8,8.7l-3.2,3.2C4.7,11.9,4.6,12,4.5,12c-0.1,0-0.2,0-0.3-0.1C4,11.8,4,11.7,4,11.5s0-0.2,0.1-0.3L7.3,8
	L4.1,4.8C4.1,4.7,4,4.6,4,4.5c0-0.1,0-0.2,0.1-0.3C4.2,4,4.3,4,4.5,4s0.2,0,0.3,0.1L8,7.3l3.2-3.2C11.3,4.1,11.4,4,11.5,4
	c0.1,0,0.2,0,0.3,0.1C12,4.2,12,4.3,12,4.5s0,0.2-0.1,0.3L8.7,8l3.2,3.2c0.1,0.1,0.1,0.2,0.1,0.3c0,0.1,0,0.2-0.1,0.3
	S11.7,12,11.5,12s-0.2,0-0.3-0.1L8,8.7z"/>
</svg>
