<?xml version="1.0" encoding="utf-8"?>
<!-- Generator: Adobe Illustrator 26.3.1, SVG Export Plug-In . SVG Version: 6.00 Build 0)  -->
<svg version="1.1" id="Layer_1" xmlns="http://www.w3.org/2000/svg" xmlns:xlink="http://www.w3.org/1999/xlink" x="0px" y="0px"
	 viewBox="0 0 160 42" style="enable-background:new 0 0 160 42;" xml:space="preserve">
<style type="text/css">
	.st0{fill:#3F3A60;}
	.st1{fill:#898A8D;}
</style>
<g>
	<path class="st0" d="M4.9,36.8h7.8c2.2,0,3.8-0.7,4.9-2.2c1.1-1.5,1.6-3.8,1.6-6.9c0-5.9-2.2-8.9-6.5-8.9H4.9V36.8z M11.4,14
		C19.8,14,24,18.6,24,27.8v0.1c-0.1,9.2-4.3,13.8-12.6,13.8H0V14H11.4z"/>
	<path class="st0" d="M50.8,31.2c0,1.6-0.2,3-0.7,4.3c-0.5,1.3-1.2,2.4-2.2,3.3c-1,0.9-2.2,1.6-3.6,2.1c-1.5,0.5-3.2,0.8-5.1,0.8
		c-1.9,0-3.6-0.3-5-0.8c-1.4-0.5-2.7-1.2-3.7-2.1c-1-0.9-1.7-2-2.3-3.3c-0.5-1.3-0.8-2.7-0.8-4.2V14h4.9v17.1c0,1.7,0.6,3.1,1.8,4.1
		c1.2,1.1,2.9,1.6,5.1,1.6h0.1c2.2,0,3.8-0.5,4.9-1.6c1.1-1.1,1.6-2.4,1.6-4.1V14h4.9V31.2z"/>
	<path class="st0" d="M97.6,41.7c-2,0-3.8-0.3-5.3-0.8c-1.5-0.6-2.8-1.4-3.8-2.4c-1-1-1.8-2.3-2.3-3.8c-0.5-1.5-0.8-3.1-0.8-4.9V14
		h4.9v15.7c0,2.2,0.6,4,1.9,5.2c1.3,1.2,3,1.9,5.3,1.9h8.4v4.9H97.6z"/>
	<path class="st0" d="M149.9,41.7c-8.4,0-12.6-4.6-12.6-13.8v-0.1c0-9.2,4.2-13.7,12.7-13.7h10v4.9h-11.3c-2.2,0-3.8,0.7-4.9,2.2
		c-1.1,1.4-1.6,3.7-1.6,6.9c0,6,2.2,8.9,6.5,8.9H160v4.9H149.9z"/>
	<path class="st0" d="M66.1,18.9c-2.2,0-3.8,0.7-4.9,2.2c-1.1,1.4-1.6,3.7-1.6,6.9c0,6,2.2,8.9,6.5,8.9h4.7c4.3,0,6.5-3,6.5-8.9
		c0-3.1-0.5-5.4-1.6-6.9c-1.1-1.4-2.7-2.2-4.9-2.2H66.1z M69.5,14c8.3,0,12.6,4.6,12.6,13.7v0.1c0,9.2-4.2,13.8-12.6,13.8h-2.2
		c-8.4,0-12.6-4.6-12.6-13.8v-0.1C54.8,18.6,59,14,67.4,14H69.5z"/>
	<path class="st1" d="M68.7,24.4h-0.5c-2.1,0-3.2,1.2-3.2,3.5v0c0,2.3,1.1,3.5,3.2,3.5h0.5c2.1,0,3.2-1.2,3.2-3.5v0
		C71.8,25.5,70.8,24.4,68.7,24.4"/>
	<path class="st0" d="M131.1,41.7h5.1l-8.6-24.1c-0.4-1.2-1.1-2.1-2-2.7c-0.9-0.6-2-0.9-3.3-0.9c-1.3,0-2.4,0.3-3.3,0.9
		c-0.9,0.6-1.6,1.5-2,2.7l-8.6,24.1h5.1l2-5.5h13.8L131.1,41.7z M117,31.5l4.2-11.8c0.2-0.5,0.5-0.8,1-0.8c0.5,0,0.9,0.3,1,0.8
		l4.2,11.8H117z"/>
	<g>
		<path class="st0" d="M76.2,1.7c-0.6,0-1.1,0.2-1.4,0.6c-0.3,0.4-0.5,1.1-0.5,2c0,1.7,0.6,2.6,1.9,2.6h1.3c1.2,0,1.9-0.9,1.9-2.6
			c0-0.9-0.2-1.6-0.5-2c-0.3-0.4-0.8-0.6-1.4-0.6H76.2z M77.2,0.3c2.4,0,3.6,1.3,3.6,4v0c0,2.7-1.2,4-3.6,4h-0.6
			c-2.4,0-3.6-1.3-3.6-4v0c0-2.6,1.2-4,3.6-4H77.2z"/>
	</g>
	<rect x="90.4" y="0.3" class="st0" width="1.4" height="8"/>
	<g>
		<path class="st0" d="M96.5,1.7c-0.6,0-1.1,0.2-1.4,0.6c-0.3,0.4-0.5,1.1-0.5,2c0,1.7,0.6,2.6,1.9,2.6h1.3c1.2,0,1.9-0.9,1.9-2.6
			c0-0.9-0.2-1.6-0.5-2c-0.3-0.4-0.8-0.6-1.4-0.6H96.5z M97.5,0.3c2.4,0,3.6,1.3,3.6,4v0c0,2.7-1.2,4-3.6,4h-0.6
			c-2.4,0-3.6-1.3-3.6-4v0c0-2.6,1.2-4,3.6-4H97.5z"/>
	</g>
	<polygon class="st0" points="105.6,8.3 104.2,8.3 104.2,1.7 102.2,1.7 102.2,0.3 107.4,0.3 107.4,1.7 105.6,1.7 	"/>
	<rect x="109.1" y="0.3" class="st0" width="1.4" height="8"/>
	<g>
		<path class="st0" d="M115.6,8.3c-2.4,0-3.6-1.3-3.6-4v0c0-2.6,1.2-4,3.6-4h2.9v1.4h-3.3c-0.6,0-1.1,0.2-1.4,0.6
			c-0.3,0.4-0.5,1.1-0.5,2c0,1.7,0.6,2.6,1.9,2.6h3.3v1.4H115.6z"/>
		<path class="st0" d="M126.8,6c0,0.8-0.2,1.4-0.7,1.7c-0.4,0.4-1.1,0.6-1.9,0.6h-4.1V6.9h4.4c0.2,0,0.5-0.1,0.6-0.3
			c0.2-0.2,0.2-0.4,0.2-0.7c0-0.3-0.1-0.5-0.2-0.7C125,5.1,124.8,5,124.6,5h-2.2c-0.5,0-0.9-0.1-1.2-0.2c-0.3-0.1-0.6-0.3-0.8-0.5
			c-0.2-0.2-0.3-0.5-0.4-0.7c-0.1-0.3-0.1-0.5-0.1-0.8c0-0.3,0-0.6,0.1-0.9c0.1-0.3,0.2-0.5,0.4-0.7c0.2-0.2,0.5-0.4,0.8-0.5
			c0.3-0.1,0.7-0.2,1.1-0.2h4v1.4h-4.2c-0.1,0-0.2,0-0.3,0.1c-0.1,0.1-0.2,0.1-0.3,0.2c-0.1,0.1-0.1,0.2-0.2,0.3
			c-0.1,0.1-0.1,0.2-0.1,0.4c0,0.3,0.1,0.5,0.3,0.7c0.2,0.2,0.4,0.3,0.6,0.3h2.2c0.8,0,1.4,0.2,1.8,0.6C126.6,4.6,126.8,5.1,126.8,6
			L126.8,6z"/>
		<path class="st0" d="M62.2,3.3c-0.2,0.2-0.4,0.3-0.6,0.3h-1.7c-0.4,0-0.8,0.1-1.1,0.2v-2h2.8c0.1,0,0.2,0,0.3,0.1
			C62,1.8,62.1,1.9,62.2,2c0.1,0.1,0.1,0.2,0.2,0.3c0.1,0.1,0.1,0.2,0.1,0.4C62.5,2.9,62.4,3.1,62.2,3.3 M63.8,1.8
			c-0.1-0.3-0.2-0.5-0.5-0.7c-0.2-0.2-0.5-0.4-0.8-0.5c-0.3-0.1-0.7-0.2-1.1-0.2h-4v1.4h0v4.2c0,0,0,0,0,0v2.4h1.4V5.9
			c0-0.3,0.1-0.5,0.2-0.7C59.2,5.1,59.4,5,59.7,5h1.7c0.5,0,0.8-0.1,1.2-0.2c0.3-0.1,0.6-0.3,0.8-0.5c0.2-0.2,0.3-0.5,0.4-0.7
			c0.1-0.3,0.1-0.6,0.1-0.8C63.9,2.3,63.8,2,63.8,1.8"/>
		<path class="st0" d="M87.2,3.3c-0.2,0.2-0.4,0.3-0.7,0.3h-2.8V1.7h2.8c0.1,0,0.2,0,0.3,0.1C87,1.8,87.1,1.9,87.1,2
			c0.1,0.1,0.1,0.2,0.2,0.3c0.1,0.1,0.1,0.2,0.1,0.4C87.4,2.9,87.3,3.1,87.2,3.3 M87.2,6.6c-0.2,0.2-0.4,0.3-0.7,0.3h-2.8V5h2.8
			c0.1,0,0.2,0,0.3,0.1c0.1,0,0.2,0.1,0.3,0.2c0.1,0.1,0.1,0.2,0.2,0.3c0.1,0.1,0.1,0.2,0.1,0.4C87.4,6.2,87.3,6.4,87.2,6.6
			 M87.9,4.3c0.3-0.2,0.5-0.4,0.7-0.7c0.1-0.3,0.2-0.6,0.2-0.9c0-0.3,0-0.6-0.1-0.9c-0.1-0.3-0.2-0.5-0.4-0.7
			c-0.2-0.2-0.5-0.4-0.8-0.5c-0.3-0.1-0.7-0.2-1.2-0.2h-2.6v0h-1.4v8h1.4v0h2.6c0.5,0,0.9-0.1,1.2-0.2C87.8,8,88,7.8,88.2,7.6
			c0.2-0.2,0.3-0.5,0.4-0.8c0.1-0.3,0.1-0.6,0.1-0.9c0-0.3-0.1-0.6-0.2-0.9C88.5,4.7,88.2,4.5,87.9,4.3"/>
		<path class="st0" d="M70.3,4.8C70.3,4.8,70.3,4.8,70.3,4.8c0.4-0.2,0.7-0.3,0.9-0.6c0.2-0.2,0.3-0.5,0.4-0.7
			c0.1-0.3,0.1-0.6,0.1-0.8c0-0.3,0-0.6-0.1-0.9c-0.1-0.3-0.2-0.5-0.5-0.7c-0.2-0.2-0.5-0.4-0.8-0.5c-0.3-0.1-0.7-0.2-1.1-0.2h-4
			v1.4h0v6.6h1.4V1.7h2.8c0.1,0,0.2,0,0.3,0.1C69.9,1.8,70,1.9,70,2c0.1,0.1,0.1,0.2,0.2,0.3c0.1,0.1,0.1,0.2,0.1,0.4
			c0,0.3-0.1,0.5-0.3,0.7c-0.2,0.2-0.4,0.3-0.6,0.3h-2.3V5c3,0,3.2,3.3,3.2,3.3h1.4C71.7,6.6,71.1,5.5,70.3,4.8"/>
		<path class="st0" d="M155.9,4.7c-1.8,0-3.3,1.5-3.3,3.3c0,1.8,1.5,3.3,3.3,3.3c1.8,0,3.3-1.5,3.3-3.3
			C159.2,6.1,157.8,4.7,155.9,4.7 M155.9,4c2.2,0,4,1.8,4,4c0,2.2-1.8,4-4,4c-2.2,0-4-1.8-4-4C152,5.8,153.8,4,155.9,4"/>
		<path class="st0" d="M155,6.3v1.4h1.3c0.5,0,0.8-0.2,0.8-0.7c0-0.5-0.3-0.7-0.8-0.7H155z M154.2,10.1V5.6h2.1
			c0.5,0,0.9,0.1,1.1,0.3c0.3,0.2,0.4,0.5,0.4,0.9c0,0.6-0.2,1-0.7,1.1v0c0.4,0.1,0.7,0.4,0.7,0.9c0,0.6,0.1,1,0.2,1.2h-0.8
			c-0.1-0.1-0.1-0.3-0.1-0.7c0-0.4-0.1-0.7-0.2-0.9c-0.1-0.2-0.4-0.3-0.7-0.3H155v1.8H154.2z"/>
	</g>
</g>
</svg>
