<svg width="16" height="16" viewBox="0 0 16 16" fill="none" xmlns="http://www.w3.org/2000/svg">
<path d="M6.34375 3.5C6.61746 3.51329 6.83075 3.62763 6.94141 3.69141C7.07607 3.76905 7.22747 3.87757 7.35742 3.96973L11.1475 6.65625C11.2526 6.73083 11.3848 6.82474 11.4912 6.91602C11.5857 6.9971 11.7411 7.14161 11.8525 7.36719L11.8975 7.46875L11.9404 7.59863C12.0271 7.90339 12.0131 8.2326 11.8975 8.5293C11.7865 8.8138 11.5992 8.98937 11.4912 9.08203C11.3848 9.1733 11.2526 9.26722 11.1475 9.3418L7.35742 12.0283C7.22747 12.1205 7.07607 12.229 6.94141 12.3066C6.81491 12.3795 6.55437 12.5181 6.22266 12.4971C5.84323 12.4729 5.49302 12.2726 5.26367 11.9502C5.06316 11.6682 5.02581 11.3613 5.0127 11.209C4.99873 11.0467 5 10.8527 5 10.6865V5.31152C5 5.14537 4.99873 4.95133 5.0127 4.78906C5.02581 4.63679 5.06316 4.32989 5.26367 4.04785C5.49302 3.72541 5.84323 3.52517 6.22266 3.50098L6.34375 3.5Z" fill="white"/>
</svg>
