<svg width="106" height="20" viewBox="0 0 106 20" fill="none" xmlns="http://www.w3.org/2000/svg">
<g clip-path="url(#clip0_89_2307)">
<path d="M99.0364 19.5095H103.153L103.088 19.3809L102.401 19.3571C101.487 19.3381 101.51 19.2714 101.51 19.1V14.4285C102.132 12.0381 102.592 11.1 103.59 10.8857C103.631 11.7142 104.045 12.1238 104.504 12.1238C105.047 12.1238 105.358 11.6333 105.358 11.1857C105.358 10.6952 104.982 10.2047 104.253 10.2047C102.944 10.2047 102.03 11.719 101.469 13.9809H101.445L101.529 10.2476L99.0364 10.9095L99.0132 10.9952L99.4913 11.0571C100.197 11.119 100.341 11.419 100.341 12.7428V19.0571C100.341 19.3142 100.109 19.3142 99.4634 19.3571L99.0921 19.3809L99.0364 19.5095ZM96.4326 19.7C97.2216 19.7 97.7183 18.8666 98.1128 18.419L98.0107 18.3523C97.6997 18.6952 97.3469 18.9952 97.0128 18.9952C96.595 18.9952 96.3258 18.8666 96.3676 18.1857L96.5765 13.0238C96.6832 10.8047 95.7271 10.2095 94.2465 10.2095C92.7519 10.2095 90.5055 11.4904 90.5055 12.4714C90.5055 13.0238 90.835 13.2809 91.2945 13.2809C91.7726 13.2809 92.0836 12.8952 92.0836 12.5142C92.0836 11.9571 91.5869 11.7238 91.5869 11.5762C91.5869 11.2762 92.5616 10.6142 93.476 10.6142C94.3718 10.6142 95.5554 11 95.4532 13.1523L95.4115 14.4095C91.6891 15.4095 90.5705 16.3523 90.5705 17.7571C90.5705 18.8 91.3409 19.6762 92.5895 19.6762C93.5038 19.6762 94.4182 19.0381 95.2722 18.2904V18.3333C95.2908 19.1238 95.8524 19.7 96.4326 19.7ZM93.2532 18.9952C92.2971 18.9952 91.7772 18.419 91.7772 17.4381C91.7772 16.3904 92.1718 15.4523 95.4161 14.6238L95.314 18.0381C94.7895 18.5047 94.0423 18.9952 93.2532 18.9952ZM85.2932 19.7619C86.9548 19.7619 87.9945 18.7571 88.8671 17.2428L88.7185 17.1762C87.9295 18.4142 87.1405 18.9285 85.7852 18.9285C83.9332 18.9285 82.4573 17.1142 82.4573 14.5571C82.4573 14.1714 82.5222 13.7238 82.5594 13.3809L88.6118 13.4047C88.635 13.2333 88.6536 13.1904 88.6536 13.0857C88.6536 11.6333 87.5303 10.2047 85.4556 10.2047C82.8564 10.2047 81.1902 12.4857 81.1902 15.1762C81.1948 17.6952 83.0235 19.7619 85.2932 19.7619ZM82.6104 13.1762C83.0282 11.5762 84.1885 10.4238 85.335 10.4238C86.6485 10.4238 87.3122 11.6619 87.3122 13.1523L82.6104 13.1762ZM76.0382 19.5095H79.8674L79.8024 19.3809L79.51 19.3571C78.5538 19.3142 78.4703 19.2714 78.4703 19.1V5.15234L76.0196 5.74758L75.9964 5.8333L76.4559 5.87615C77.2032 5.98092 77.3053 6.23806 77.3053 7.56187V19.0571C77.3053 19.3142 77.0779 19.3142 76.4327 19.3571L76.08 19.3809L76.0382 19.5095ZM69.3453 19.8095C70.8444 19.8095 72.3622 19.319 73.193 18.8714L73.9217 18.7238L74.6736 15.6523H74.5483L74.0285 16.5476C72.9656 18.5095 71.8052 19.619 69.3313 19.619C65.9199 19.619 63.757 16.8476 63.757 12.7762C63.757 8.87139 65.8967 6.05711 69.4334 6.05711C70.8259 6.05711 72.0326 6.54758 72.5711 6.9952L74.0888 9.9571H74.2141L73.9449 6.30949L72.9238 6.79996C72.0744 6.29044 70.9094 5.86187 69.4102 5.86187C65.2098 5.86187 62.2764 8.84758 62.2764 12.9428C62.2764 17.0333 65.2051 19.8095 69.3453 19.8095ZM53.8986 19.3571C50.2737 19.3571 47.8184 16.2476 47.8184 12.8285V12.7904C47.8184 9.35234 50.218 6.29996 53.8661 6.29996C57.4911 6.29996 59.9464 9.40949 59.9464 12.8238V12.8619C59.9464 16.3 57.5468 19.3571 53.8986 19.3571ZM53.8801 19.7381C57.8253 19.7381 60.3548 16.4952 60.3548 12.8476V12.8095C60.3548 9.16187 57.8253 5.91901 53.8801 5.91901C49.9395 5.91901 47.4053 9.16663 47.4053 12.8095V12.8476C47.4099 16.4952 49.9395 19.7381 53.8801 19.7381ZM41.4596 19.5095H41.8681V6.5333H46.5745V6.15234H36.7532V6.5333H41.4596V19.5095ZM30.4687 19.7381C32.757 19.7381 34.3907 18.6857 35.5279 17.4666L35.2308 17.1809C34.1865 18.3238 32.6084 19.3571 30.4873 19.3571C27.0619 19.3571 24.5138 16.3762 24.5138 12.8476V12.8095C24.5138 9.31425 27.0248 6.29996 30.4873 6.29996C32.8126 6.29996 34.1308 7.29044 35.1751 8.32377L35.4536 8.03806C34.2422 6.85234 32.9612 5.91901 30.5059 5.91901C26.7834 5.91901 24.1053 9.06663 24.1053 12.8285V12.8666C24.1053 16.6476 26.802 19.7381 30.4687 19.7381ZM12.4786 15.119L16.4424 6.60949L20.4061 15.119H12.4786ZM10.0094 19.5095H10.4364L12.2976 15.5H20.5918L22.453 19.5095H22.8986L16.6327 6.05234H16.2753L10.0094 19.5095ZM0.387695 19.5095H8.79795V19.1285H0.800781V6.14758H0.387695V19.5095Z" fill="#212121" stroke="#212121" stroke-width="0.5" stroke-miterlimit="10"/>
<path d="M102.402 9.32857H102.601V6.86191L103.697 8.49524H103.711L104.806 6.86191V9.32857H105.01V6.49048H104.815L103.706 8.17143L102.597 6.49048H102.402V9.32857ZM100.053 9.32857H100.258V6.68572H101.223V6.49048H99.0879V6.68572H100.053V9.32857Z" fill="#212121" stroke="#212121" stroke-width="0.5" stroke-miterlimit="10"/>
<path d="M33.346 3.31427V3.59999H29.8789V3.31427H33.346ZM30.0878 2.21903L29.8975 1.98094C30.1063 1.90475 30.2966 1.80475 30.4776 1.67618C30.6587 1.54761 30.8165 1.39999 30.9604 1.23332C31.0996 1.06665 31.2156 0.885702 31.3131 0.685702C31.4106 0.485702 31.4756 0.276178 31.5127 0.0523682L31.8144 0.114273C31.7958 0.209511 31.7772 0.304749 31.7494 0.395225C31.7215 0.485702 31.6937 0.576178 31.6566 0.661892C31.8515 0.938083 32.0975 1.18094 32.3853 1.3857C32.673 1.59046 32.9887 1.74284 33.3228 1.84761L33.1604 2.09523C32.8494 1.99523 32.5477 1.84284 32.2553 1.63808C31.9629 1.43332 31.7215 1.20475 31.5173 0.952368C31.3549 1.24284 31.146 1.49999 30.8954 1.71904C30.6447 1.93808 30.3755 2.10951 30.0878 2.21903Z" fill="#212121"/>
<path d="M33.8197 0.133321H35.6438V0.352368C35.6438 0.619035 35.5973 0.861892 35.4999 1.0857C35.4024 1.30951 35.2724 1.50475 35.1053 1.67618C34.9383 1.84761 34.748 1.9857 34.5252 2.09999C34.3024 2.21427 34.0657 2.29522 33.8104 2.33808L33.6572 2.07618C33.9682 2.0238 34.242 1.93332 34.4788 1.79522C34.7155 1.66189 34.9058 1.49046 35.045 1.29046H33.8197V1.01427H35.1982C35.2353 0.923797 35.2678 0.828558 35.291 0.728558C35.3142 0.628558 35.3281 0.523797 35.3328 0.414273H33.8197V0.133321ZM36.9526 3.44284V3.72856H33.9357V2.55713H34.242V3.44284H36.9526ZM36.8644 0.0523682V2.84761H36.5581V0.0523682H36.8644Z" fill="#212121"/>
<path d="M40.3272 0.133321V3.59999H38.582V0.133321H40.3272ZM38.8884 3.31427H40.0209V0.414273H38.8884V3.31427ZM41.5479 1.86189V3.77141H41.2416V0.0523682H41.5479V1.57618H42.0817V1.86189H41.5479Z" fill="#212121"/>
<path d="M42.3271 2.50951V1.2238C42.3271 0.847606 42.4153 0.566654 42.5871 0.376178C42.7588 0.185701 42.9862 0.0904634 43.2647 0.0904634C43.5386 0.0904634 43.766 0.185701 43.9424 0.376178C44.1187 0.566654 44.2069 0.847606 44.2069 1.2238V2.50951C44.2069 2.8857 44.1187 3.16665 43.947 3.35237C43.7753 3.53808 43.5478 3.63332 43.2786 3.63332C43.0002 3.63332 42.7727 3.54284 42.5964 3.35713C42.4153 3.17618 42.3271 2.89046 42.3271 2.50951ZM42.6288 1.2238V2.50951C42.6288 2.80475 42.6845 3.01903 42.7959 3.15237C42.9073 3.2857 43.0605 3.35237 43.2647 3.35237C43.4643 3.35237 43.6221 3.2857 43.7289 3.15237C43.8356 3.01903 43.8913 2.80475 43.8913 2.50951V1.2238C43.8913 0.93332 43.8356 0.719035 43.7289 0.58094C43.6221 0.442844 43.4643 0.376178 43.2647 0.376178C43.0651 0.376178 42.9073 0.442844 42.7959 0.58094C42.6845 0.719035 42.6288 0.93332 42.6288 1.2238ZM45.4044 0.0523682V3.77141H45.0981V0.0523682H45.4044Z" fill="#212121"/>
<path d="M49.433 3.31425V3.59997H45.9658V3.31425H49.433ZM49.2241 2.90473H48.9224V1.89045H46.17V1.60949H48.9224V0.414254H46.17V0.12854H49.2241V2.90473Z" fill="#212121"/>
<path d="M53.2064 3.30949V3.59521H49.7393V3.30949H51.3266V2.58568H51.6283V3.31425H53.2064V3.30949ZM53.0393 2.06663V2.35235H49.9435V1.09521H52.6958V0.414254H49.9435V0.12854H52.9975V1.38092H50.2498V2.0714H53.0393V2.06663Z" fill="#212121"/>
<path d="M55.4297 0.133321V3.59999H53.6846V0.133321H53.9909V1.40951H55.1234V0.133321H55.4297ZM53.9909 3.31427H55.1234V1.69046H53.9909V3.31427ZM56.6504 1.86189V3.77141H56.3441V0.0523682H56.6504V1.57618H57.1842V1.86189H56.6504Z" fill="#212121"/>
<path d="M57.4307 2.50951V1.2238C57.4307 0.847606 57.5188 0.566654 57.6906 0.376178C57.8623 0.185701 58.0897 0.0904634 58.3682 0.0904634C58.6421 0.0904634 58.8695 0.185701 59.0459 0.376178C59.2223 0.566654 59.3104 0.847606 59.3104 1.2238V2.50951C59.3104 2.8857 59.2223 3.16665 59.0505 3.35237C58.8741 3.53808 58.6514 3.63332 58.3822 3.63332C58.1037 3.63332 57.8762 3.54284 57.6999 3.35713C57.5189 3.17618 57.4307 2.89046 57.4307 2.50951ZM57.7324 1.2238V2.50951C57.7324 2.80475 57.7881 3.01903 57.8995 3.15237C58.0108 3.2857 58.164 3.35237 58.3682 3.35237C58.5678 3.35237 58.7256 3.2857 58.8324 3.15237C58.9391 3.01903 58.9948 2.80475 58.9948 2.50951V1.2238C58.9948 0.93332 58.9391 0.719035 58.8324 0.58094C58.721 0.442844 58.5678 0.376178 58.3682 0.376178C58.1687 0.376178 58.0108 0.442844 57.8995 0.58094C57.7881 0.719035 57.7324 0.93332 57.7324 1.2238ZM60.5033 0.0523682V3.77141H60.197V0.0523682H60.5033Z" fill="#212121"/>
<path d="M61.0645 2.11427V1.83332H62.624V1.42856H62.1366C61.8442 1.42856 61.6214 1.37141 61.4636 1.25237C61.3058 1.13808 61.2269 0.966652 61.2269 0.742842C61.2269 0.53808 61.3058 0.371413 61.4636 0.247604C61.6214 0.123794 61.8442 0.0618896 62.1366 0.0618896H63.4594C63.7518 0.0618896 63.9746 0.123794 64.1324 0.247604C64.2902 0.371413 64.3691 0.53808 64.3691 0.742842C64.3691 0.966652 64.2902 1.13808 64.1324 1.25237C63.9746 1.37141 63.7518 1.42856 63.4594 1.42856H62.9303V1.83332H64.5316V2.11427H61.0645ZM61.2733 3.72856V2.49999H64.3274V3.72856H61.2733ZM63.4594 0.342842H62.1366C61.9417 0.342842 61.7978 0.380937 61.6957 0.452366C61.5936 0.523794 61.5425 0.623794 61.5425 0.747604C61.5425 0.876176 61.5889 0.971414 61.6864 1.04284C61.7839 1.11427 61.9324 1.15237 62.132 1.15237H63.4548C63.6544 1.15237 63.8029 1.11427 63.9004 1.04284C63.9978 0.971414 64.0442 0.871414 64.0442 0.747604C64.0442 0.623794 63.9978 0.523794 63.9004 0.452366C63.8122 0.380937 63.6637 0.342842 63.4594 0.342842ZM64.0257 3.4476V2.77618H61.5797V3.4476H64.0257Z" fill="#212121"/>
<path d="M67.6976 1.57618H69.2943V1.86189H65.8271V1.57618H67.3867V1.03808H67.6976V1.57618ZM67.4563 0.0523682C67.4795 0.0571301 67.5073 0.061892 67.5305 0.0714158C67.5538 0.0761777 67.5816 0.0809396 67.6095 0.0904634C67.6327 0.0999872 67.6605 0.104749 67.6884 0.114273C67.7162 0.119035 67.744 0.123797 67.7719 0.128559C67.7533 0.166654 67.7348 0.204749 67.7162 0.242844C67.6976 0.276178 67.6744 0.309511 67.6512 0.347606C67.8508 0.519035 68.0968 0.65713 68.3892 0.761892C68.6816 0.871416 68.974 0.938082 69.2804 0.961892L69.1365 1.22856C68.8394 1.19523 68.5424 1.11903 68.2453 1.00475C67.9483 0.890463 67.693 0.742844 67.4841 0.571416C67.2985 0.780939 67.0757 0.947606 66.8065 1.07142C66.5419 1.19523 66.2727 1.27142 65.9989 1.29999C65.971 1.26189 65.9432 1.21903 65.92 1.17618C65.8968 1.13332 65.8689 1.09046 65.8503 1.04761C66.0221 1.03332 66.1938 0.999987 66.3609 0.947606C66.528 0.895225 66.6812 0.828558 66.8251 0.742844C66.9689 0.661892 67.0942 0.561892 67.2056 0.447606C67.3124 0.319035 67.3959 0.190463 67.4563 0.0523682ZM69.1272 3.44761V3.72856H66.0314V2.82856H68.7837V2.48094H66.0314V2.19999H69.0854V3.09999H66.3377V3.44761H69.1272Z" fill="#212121"/>
<path d="M73.0724 2.5714V2.85711H71.485V3.80949H71.1833V2.85711H69.6006V2.5714H73.0724ZM72.9053 1.80473V2.09045H69.8094V0.961873H72.5618V0.414254H69.8094V0.12854H72.8635V1.24283H70.1158V1.79997H72.9053V1.80473Z" fill="#212121"/>
<path d="M74.2923 0.0523682H74.6033C74.6033 0.185701 74.594 0.319035 74.5801 0.452368C74.5615 0.585701 74.5383 0.714273 74.5058 0.842844C74.6311 1.07142 74.7936 1.2857 74.9932 1.4857C75.1928 1.6857 75.4063 1.85237 75.6337 1.98094C75.6151 1.99999 75.6012 2.01903 75.5873 2.04284C75.5733 2.06665 75.5548 2.08094 75.5409 2.10475C75.5223 2.1238 75.5084 2.14284 75.4944 2.16665C75.4805 2.1857 75.462 2.20475 75.448 2.2238C75.2484 2.10475 75.0581 1.95237 74.8725 1.76665C74.6868 1.58094 74.529 1.39522 74.3944 1.19999C74.3062 1.4238 74.1902 1.63332 74.0556 1.8238C73.921 2.01427 73.7632 2.18094 73.5868 2.3238C73.5636 2.30951 73.545 2.29522 73.5218 2.27618C73.4986 2.25713 73.4801 2.24284 73.4615 2.2238C73.4429 2.20951 73.4197 2.19522 73.4012 2.17618C73.378 2.15713 73.3594 2.14284 73.3408 2.1238C73.6518 1.89046 73.8885 1.59046 74.0556 1.2238C74.2227 0.85713 74.2923 0.471416 74.2923 0.0523682ZM73.6611 3.72856V2.55713H73.9674V3.44284H76.678V3.72856H73.6611ZM76.2835 0.490463V0.0523682H76.5898V2.84761H76.2835V1.50475H75.3459V1.21903H76.2835V0.776177H75.3459V0.490463H76.2835Z" fill="#212121"/>
</g>
<defs>
<clipPath id="clip0_89_2307">
<rect width="106" height="20" fill="white"/>
</clipPath>
</defs>
</svg>
