<svg width="24" height="24" viewBox="0 0 24 24" fill="none" xmlns="http://www.w3.org/2000/svg">
<g clip-path="url(#clip0_2054_1043)">
<path d="M19.4942 5.41334C19.6889 5.42957 19.8439 5.58464 19.8602 5.77933L20.5355 13.8793C20.5452 13.9965 20.5027 14.1124 20.4195 14.1956L11.2651 23.35C11.1089 23.5062 10.8551 23.5062 10.6988 23.35L1.92354 14.5747C1.76733 14.4184 1.76733 14.1646 1.92354 14.0084L11.0779 4.85401C11.1611 4.77086 11.277 4.72829 11.3942 4.738L19.4942 5.41334Z" fill="white" stroke="white" stroke-width="1.2"/>
<path d="M17 8.5H17.01M17.5 8.5C17.5 8.77614 17.2761 9 17 9C16.7239 9 16.5 8.77614 16.5 8.5C16.5 8.22386 16.7239 8 17 8C17.2761 8 17.5 8.22386 17.5 8.5Z" stroke="#393280" stroke-width="1.2" stroke-linecap="round" stroke-linejoin="round"/>
</g>
<defs>
<clipPath id="clip0_2054_1043">
<rect width="24" height="24" fill="white"/>
</clipPath>
</defs>
</svg>
