<svg width="20" height="20" viewBox="0 0 20 20" fill="none" xmlns="http://www.w3.org/2000/svg">
<path d="M10 11.7871C11.2586 11.7871 12.4976 11.935 13.7178 12.2305C14.9356 12.5254 16.138 12.9681 17.3242 13.5605V13.5615C17.7987 13.8069 18.1781 14.1605 18.4688 14.6338C18.7561 15.1017 18.9004 15.6109 18.9004 16.1748V18.9004H1.09961V16.1748C1.09964 15.6109 1.24395 15.1017 1.53125 14.6338C1.82182 14.1606 2.20053 13.806 2.6748 13.5605C3.8613 12.9679 5.06415 12.5255 6.28223 12.2305C7.50241 11.935 8.74137 11.7871 10 11.7871ZM10 1.09961C11.1459 1.09961 12.1121 1.50075 12.9307 2.31934C13.7492 3.13792 14.1504 4.10414 14.1504 5.25C14.1504 6.39586 13.7492 7.36208 12.9307 8.18066C12.1121 8.99925 11.1459 9.40039 10 9.40039C8.85415 9.40039 7.88792 8.99925 7.06934 8.18066C6.25075 7.36208 5.84961 6.39586 5.84961 5.25C5.84961 4.10414 6.25075 3.13792 7.06934 2.31934C7.88792 1.50075 8.85415 1.09961 10 1.09961Z" stroke="white" stroke-width="1.2"/>
</svg>
