<svg width="86" height="22" viewBox="0 0 86 22" fill="none" xmlns="http://www.w3.org/2000/svg">
<path fill-rule="evenodd" clip-rule="evenodd" d="M82.9742 1.05268C82.8197 1.10522 82.592 1.20626 82.47 1.28306C82.348 1.35985 82.1488 1.53365 82.0228 1.66703C81.8967 1.8004 81.7422 2.01058 81.6812 2.13183C81.6202 2.25308 81.543 2.45517 81.5104 2.57642C81.4779 2.69768 81.4495 2.95635 81.4495 3.1544C81.4495 3.42115 81.4739 3.57878 81.5511 3.80916C81.608 3.97488 81.7137 4.2093 81.7869 4.32651C81.8642 4.43968 82.0228 4.62964 82.1447 4.73877C82.2667 4.85194 82.4781 4.99744 82.6123 5.07019C82.7424 5.1389 82.9823 5.22782 83.1368 5.2642C83.3401 5.3127 83.5231 5.32887 83.767 5.3127C83.9744 5.30058 84.2184 5.25207 84.3769 5.19953C84.5233 5.14699 84.7673 5.01361 84.9258 4.90044C85.1088 4.7711 85.2796 4.59731 85.4137 4.41543C85.5317 4.25376 85.6577 4.01529 85.7105 3.86171C85.7797 3.64749 85.8 3.49391 85.8 3.1544C85.8 2.8351 85.7797 2.64513 85.7227 2.45517C85.678 2.30967 85.5682 2.08333 85.4829 1.94995C85.3934 1.81657 85.2308 1.62661 85.121 1.52556C85.0112 1.42452 84.812 1.2871 84.6778 1.21435C84.5477 1.14564 84.3281 1.05672 84.194 1.02439C84.0598 0.988009 83.7955 0.959717 83.6044 0.959717C83.3645 0.963759 83.1734 0.992051 82.9742 1.05268ZM0.0292405 6.72732C0.0089109 6.73944 -0.00328689 10.0699 0.000779039 14.1238L0.0089109 21.4919C5.44099 21.4919 7.01044 21.4757 7.22593 21.4515C7.42516 21.4272 7.7911 21.3747 8.03912 21.3262C8.28714 21.2817 8.67747 21.1766 8.91329 21.0998C9.14912 21.0231 9.48659 20.8856 9.66549 20.7967C9.84439 20.7078 10.1371 20.538 10.316 20.4208C10.4949 20.3036 10.7958 20.0571 10.9869 19.8711C11.178 19.6852 11.4301 19.4063 11.544 19.2487C11.6619 19.0911 11.8408 18.8203 11.9383 18.6424C12.04 18.4646 12.1986 18.1291 12.288 17.8947C12.3815 17.6603 12.5198 17.2319 12.593 16.9449C12.6702 16.6579 12.7556 16.2295 12.7922 15.9951C12.8247 15.7607 12.8776 15.308 12.902 14.9847C12.9304 14.6371 12.9386 14.0995 12.9223 13.6711C12.9101 13.2709 12.8776 12.7698 12.8572 12.5596C12.8328 12.3494 12.7678 11.9533 12.7109 11.6785C12.658 11.4077 12.5482 10.9793 12.4669 10.7287C12.3856 10.4821 12.2148 10.0577 12.0847 9.79098C11.9505 9.52422 11.7269 9.15238 11.5846 8.96242C11.4382 8.77245 11.1699 8.47336 10.9829 8.29553C10.7958 8.11769 10.5153 7.88731 10.3567 7.78222C10.2022 7.67713 9.90538 7.51142 9.70615 7.41442C9.50692 7.31338 9.14099 7.16787 8.89296 7.09108C8.64494 7.01024 8.24648 6.9092 7.99846 6.86474C7.75044 6.81624 7.33978 6.7637 7.08363 6.73944C6.82341 6.71924 5.16044 6.69903 3.33891 6.69903C1.5377 6.69903 0.0495702 6.71115 0.0292405 6.72732ZM78.9489 6.80411C79.1929 6.76774 79.4897 6.7354 79.5995 6.72732C79.7092 6.71924 81.1526 6.71115 85.8 6.69903V9.36659L82.3765 9.37872C79.2132 9.3868 78.9286 9.39489 78.6846 9.4636C78.5382 9.50401 78.2658 9.6091 78.0747 9.70206C77.7942 9.83544 77.6641 9.93648 77.3835 10.2154C77.1274 10.466 76.9932 10.6438 76.8712 10.8823C76.7777 11.0601 76.6517 11.3511 76.5947 11.5289C76.5338 11.7068 76.4524 12.0342 76.4077 12.2565C76.3671 12.4788 76.3101 12.9233 76.2817 13.2467C76.2532 13.5943 76.2451 14.0874 76.2613 14.4592C76.2735 14.8028 76.3061 15.2474 76.3305 15.4495C76.3549 15.6475 76.424 16.0113 76.489 16.2578C76.55 16.5044 76.6761 16.8641 76.7696 17.0662C76.8631 17.2642 77.0217 17.539 77.1152 17.6724C77.2128 17.8058 77.3998 18.0119 77.5299 18.1291C77.6722 18.2585 77.9162 18.4161 78.1357 18.5212C78.339 18.6182 78.6318 18.7273 78.7863 18.7677C79.0465 18.8324 79.3758 18.8405 85.8 18.8647V21.4919H82.7424C80.2581 21.4919 79.5832 21.4798 79.1522 21.4313C78.8595 21.3949 78.461 21.3302 78.2577 21.2817C78.0544 21.2373 77.7088 21.1362 77.4852 21.0594C77.2616 20.9786 76.9485 20.8533 76.794 20.7765C76.6395 20.6997 76.3548 20.534 76.1637 20.4087C75.9726 20.2834 75.6514 20.0167 75.4522 19.8146C75.2408 19.6084 74.9643 19.277 74.8139 19.0466C74.6634 18.8243 74.4683 18.4889 74.3829 18.2989C74.2934 18.1089 74.1755 17.8301 74.1186 17.6724C74.0617 17.5148 73.96 17.1632 73.895 16.8843C73.8258 16.6054 73.7364 16.1608 73.6957 15.894C73.6388 15.506 73.6225 15.1463 73.6225 14.0955C73.6225 13.0244 73.6347 12.697 73.6957 12.3171C73.7364 12.0625 73.8055 11.6866 73.8502 11.4885C73.895 11.2864 74.0007 10.9146 74.0861 10.66C74.1714 10.4053 74.3219 10.0416 74.4154 9.85161C74.5089 9.66164 74.6919 9.35447 74.8179 9.16451C74.944 8.97454 75.1961 8.66737 75.375 8.4774C75.5579 8.28744 75.8507 8.02877 76.0255 7.90347C76.2044 7.77818 76.5012 7.59226 76.6923 7.49121C76.8834 7.39017 77.1843 7.25275 77.3632 7.18808C77.5421 7.12341 77.8714 7.02237 78.0951 6.96578C78.3187 6.91324 78.705 6.83645 78.9489 6.80411ZM14.8089 16.6862C14.7845 16.468 14.7682 14.5724 14.7682 11.5208V6.69902L17.4314 6.72327L17.4517 11.6138C17.4721 16.2255 17.4761 16.5165 17.5493 16.7266C17.59 16.8479 17.6876 17.0742 17.7729 17.2278C17.8543 17.3814 18.0372 17.636 18.1836 17.7896C18.33 17.9432 18.5658 18.1493 18.7122 18.2423C18.8586 18.3393 19.1066 18.4686 19.2611 18.5333C19.4197 18.598 19.6636 18.6829 19.81 18.7152C19.9564 18.7516 20.2776 18.8041 20.5215 18.8284C20.7777 18.8567 21.1599 18.8688 21.416 18.8526C21.664 18.8405 22.0178 18.8001 22.2089 18.7637C22.4 18.7273 22.6927 18.6465 22.8594 18.5818C23.0261 18.5171 23.2985 18.3757 23.4612 18.2625C23.6238 18.1493 23.8556 17.9392 23.9776 17.7856C24.1036 17.636 24.2662 17.3855 24.3435 17.2319C24.4207 17.0742 24.5143 16.8277 24.5549 16.6862C24.62 16.4437 24.6281 16.0517 24.6444 6.70306H27.2913V11.6542C27.2913 16.3629 27.2872 16.6256 27.214 17.0581C27.1693 17.3087 27.0758 17.6967 27.0067 17.919C26.9335 18.1413 26.8034 18.4686 26.7139 18.6465C26.6245 18.8243 26.4903 19.0587 26.4171 19.1719C26.3399 19.281 26.1813 19.4872 26.0634 19.6246C25.9455 19.762 25.7381 19.9681 25.6039 20.0854C25.4698 20.2026 25.2421 20.3723 25.0957 20.4653C24.9493 20.5582 24.685 20.7078 24.5061 20.7967C24.3272 20.8856 23.9898 21.023 23.7539 21.1039C23.5181 21.1847 23.144 21.2858 22.9204 21.3302C22.6968 21.3747 22.3349 21.4272 22.1194 21.4515C21.8999 21.4757 21.4282 21.4959 21.0704 21.4959C20.7126 21.4959 20.241 21.4757 20.0255 21.4515C19.8059 21.4272 19.4522 21.3747 19.2407 21.3343C19.0293 21.2898 18.6797 21.2009 18.4682 21.1281C18.2568 21.0594 17.899 20.9139 17.6754 20.8088C17.4517 20.6997 17.1061 20.4976 16.9069 20.3562C16.7077 20.2147 16.3783 19.9237 16.175 19.7095C15.9717 19.4953 15.7115 19.1679 15.5936 18.982C15.4757 18.796 15.309 18.4727 15.2236 18.2625C15.1342 18.0483 15.0163 17.6845 14.9593 17.4542C14.8983 17.2197 14.8333 16.8721 14.8089 16.6862ZM34.7116 6.80815C34.9329 6.77569 35.1802 6.74644 35.3031 6.73191L35.3418 6.72731C35.4435 6.71923 36.1469 6.71923 36.9072 6.72327C37.9318 6.73135 38.4035 6.75156 38.7165 6.80006C38.9524 6.83644 39.3183 6.90919 39.5297 6.96578C39.7412 7.01832 40.0542 7.11128 40.2209 7.16787C40.3876 7.22849 40.7007 7.36591 40.9121 7.47504C41.1236 7.58417 41.4529 7.7903 41.644 7.93176C41.8351 8.07322 42.1238 8.33189 42.2905 8.50569C42.4572 8.68353 42.7052 8.99879 42.8475 9.20896C42.9898 9.41913 43.1769 9.74651 43.2623 9.93648C43.3517 10.1264 43.4818 10.4457 43.5509 10.6438C43.6201 10.8459 43.7217 11.1975 43.7746 11.4319C43.8315 11.6664 43.9047 12.0463 43.9413 12.2807C43.9738 12.5151 44.0226 13.0244 44.047 13.4124C44.0795 13.9257 44.0795 14.3178 44.047 14.8472C44.0226 15.2474 43.9738 15.7647 43.9413 15.9991C43.9047 16.2335 43.8396 16.5771 43.799 16.7671C43.7542 16.957 43.6607 17.2844 43.5957 17.4946C43.5265 17.7048 43.3517 18.117 43.2094 18.404C43.0671 18.695 42.8313 19.083 42.689 19.273C42.5466 19.4629 42.2824 19.7539 42.1035 19.9196C41.9286 20.0854 41.644 20.3117 41.4814 20.4249C41.3147 20.534 41.0219 20.7037 40.8308 20.7967C40.6397 20.8897 40.2941 21.0311 40.0583 21.1079C39.8225 21.1847 39.4322 21.2858 39.1841 21.3302C38.9402 21.3787 38.5742 21.4313 38.3709 21.4555C38.1717 21.4757 37.4398 21.4959 36.7446 21.4959C36.0534 21.4959 35.293 21.4757 35.0572 21.4555C34.8214 21.4313 34.4473 21.3747 34.2237 21.3302C34.0001 21.2858 33.5975 21.1766 33.3292 21.0877C33.0608 20.9988 32.6786 20.8412 32.4753 20.7361C32.2761 20.631 31.963 20.441 31.7841 20.3077C31.6052 20.1783 31.3166 19.9237 31.1417 19.7418C30.9628 19.564 30.7107 19.2527 30.5766 19.0507C30.4424 18.8526 30.2635 18.5414 30.1781 18.3636C30.0927 18.1857 29.9667 17.8785 29.8975 17.6765C29.8244 17.4784 29.7227 17.1389 29.6658 16.9287C29.6129 16.7186 29.5275 16.2982 29.4828 15.9991C29.4218 15.6111 29.3934 15.1665 29.3771 14.4633C29.3649 13.8408 29.373 13.2709 29.4056 12.9274C29.43 12.6283 29.4869 12.1918 29.5275 11.9574C29.5682 11.7229 29.6414 11.3794 29.6902 11.1894C29.739 10.9995 29.8447 10.6721 29.9219 10.4619C29.9992 10.2517 30.1537 9.90414 30.2635 9.69397C30.3733 9.4838 30.5806 9.15641 30.7229 8.96645C30.8652 8.77649 31.1255 8.48548 31.3044 8.31977C31.4792 8.15001 31.7597 7.91963 31.9264 7.81051C32.0931 7.69734 32.3778 7.53162 32.5567 7.44271C32.7356 7.35379 33.0202 7.22849 33.1869 7.17191C33.3536 7.11128 33.6667 7.01832 33.8781 6.96578C34.0895 6.91323 34.4677 6.84048 34.7116 6.80815ZM45.7506 11.25C45.7506 15.1059 45.7628 15.8698 45.8157 16.274C45.8482 16.5326 45.9214 16.9206 45.9742 17.1308C46.0271 17.341 46.1206 17.6522 46.1816 17.8179C46.2426 17.9836 46.3646 18.2666 46.454 18.4444C46.5435 18.6222 46.7102 18.9052 46.824 19.0709C46.9338 19.2366 47.1777 19.5276 47.3607 19.7176C47.5437 19.9075 47.8568 20.1783 48.0519 20.3198C48.2512 20.4572 48.6171 20.6714 48.861 20.7927C49.1091 20.9099 49.475 21.0635 49.6742 21.1281C49.8775 21.1928 50.2231 21.2817 50.4467 21.3262C50.6704 21.3747 51.0322 21.4313 51.2518 21.4515C51.4876 21.4798 52.683 21.4959 54.2281 21.4959H56.8099V18.8688C52.9432 18.8688 51.8576 18.8526 51.6177 18.8243C51.3982 18.8001 51.081 18.7475 50.9143 18.7031C50.7476 18.6586 50.4468 18.5454 50.2435 18.4484C50.0442 18.3474 49.7596 18.1696 49.6132 18.0523C49.4669 17.9311 49.2636 17.725 49.1619 17.5956C49.0562 17.4622 48.8976 17.2076 48.8082 17.0298C48.7147 16.8519 48.6049 16.569 48.5642 16.4033C48.5195 16.2376 48.4626 15.9385 48.4382 15.7364C48.4097 15.4939 48.3935 13.95 48.3935 11.0399V6.70306H45.7506V11.25ZM64.4132 6.88494C64.5352 6.84452 64.7669 6.78794 64.9215 6.75965C65.1044 6.72327 65.385 6.71115 65.694 6.72327C66.003 6.7354 66.2998 6.77177 66.5072 6.82432C66.6861 6.86877 66.9707 6.97386 67.1374 7.05874C67.3691 7.16787 67.5277 7.28912 67.792 7.55183C68.0563 7.81455 68.1742 7.96814 68.284 8.19852C68.3653 8.36423 69.4712 11.3956 70.7398 14.9281C72.0084 18.4646 73.0533 21.3868 73.0614 21.4272C73.0736 21.4919 72.9883 21.4959 70.2885 21.5L69.7843 20.0934C69.5078 19.3215 69.2679 18.6546 69.2476 18.6182C69.2151 18.5495 68.9955 18.5454 61.8923 18.5454L61.5915 19.4063C61.4288 19.8752 61.193 20.5421 60.8555 21.4959H59.4446C58.6681 21.4959 58.0378 21.4838 58.046 21.4676C58.058 21.4477 59.0676 18.6331 60.3098 15.1699L60.313 15.1613L60.3676 15.0089C61.6362 11.4764 62.7299 8.45719 62.8031 8.29956C62.8804 8.14597 63.0227 7.90751 63.1202 7.77413C63.2219 7.64075 63.4211 7.44271 63.5634 7.33358C63.7057 7.22849 63.905 7.09916 64.0066 7.04661C64.1083 6.99811 64.2912 6.92536 64.4132 6.88494ZM82.8238 1.57406C82.962 1.50131 83.145 1.42856 83.2303 1.40835C83.3117 1.38814 83.4824 1.37197 83.6044 1.36793C83.7264 1.36389 83.9378 1.39218 84.072 1.42856C84.2062 1.46089 84.4054 1.53769 84.5152 1.59831C84.625 1.65894 84.8079 1.80849 84.9218 1.92974C85.0356 2.05099 85.1779 2.25308 85.2389 2.37433C85.2999 2.49559 85.365 2.71384 85.3894 2.85935C85.4178 3.03314 85.4178 3.21098 85.3934 3.38477C85.3731 3.53028 85.2999 3.76066 85.2308 3.90212C85.1657 4.03954 85.0275 4.23759 84.9299 4.34672C84.8323 4.4518 84.629 4.60539 84.4745 4.68622C84.2997 4.77918 84.0883 4.85194 83.9094 4.88427C83.6939 4.92065 83.5597 4.92065 83.3605 4.88427C83.2141 4.86002 82.9783 4.78323 82.8319 4.71047C82.6855 4.63772 82.4781 4.48818 82.3684 4.37501C82.2545 4.26184 82.1081 4.05167 82.0309 3.89C81.9252 3.6677 81.8886 3.53432 81.8683 3.28373C81.852 3.04931 81.8642 2.88764 81.913 2.69767C81.9496 2.55217 82.0309 2.35412 82.0878 2.25308C82.1488 2.15204 82.2789 1.98632 82.3806 1.88528C82.4822 1.78424 82.6814 1.64277 82.8238 1.57406ZM2.69243 18.8647V14.1157L2.69649 9.36255L5.14418 9.37467C7.31539 9.3868 7.62033 9.39893 7.83583 9.45955C7.97 9.49593 8.23429 9.60505 8.42539 9.69802C8.70593 9.83139 8.83604 9.9284 9.11659 10.2113C9.38901 10.4821 9.50692 10.6397 9.6533 10.9227C9.75901 11.1248 9.88912 11.4319 9.95011 11.6098C10.007 11.7876 10.0965 12.1514 10.1453 12.4181C10.2225 12.8466 10.2347 13.0406 10.2347 14.0955C10.2347 15.1382 10.2225 15.3484 10.1453 15.7728C10.0965 16.0395 10.007 16.4114 9.95011 16.6014C9.88912 16.7913 9.75494 17.1106 9.6533 17.3087C9.51099 17.5875 9.38901 17.7492 9.13692 17.9998C8.86451 18.2746 8.75066 18.3595 8.42539 18.5131C8.21396 18.6142 7.90901 18.7273 7.75451 18.7677C7.50242 18.8284 7.19341 18.8405 2.69243 18.8647ZM82.6692 4.3548V3.10185V1.8489H83.4133C84.1004 1.8489 84.1655 1.85295 84.3322 1.93782C84.4339 1.99037 84.5477 2.07524 84.5924 2.13183C84.6331 2.18841 84.6778 2.32179 84.69 2.43496C84.7022 2.54409 84.6941 2.70172 84.6697 2.77851C84.6453 2.8553 84.568 2.96847 84.503 3.0291C84.381 3.13823 84.381 3.14227 84.4583 3.18269C84.503 3.2029 84.568 3.28777 84.6006 3.36457C84.6331 3.44136 84.6615 3.61111 84.6615 3.73641C84.6656 3.86575 84.69 4.04358 84.7225 4.1325C84.7551 4.22142 84.7835 4.3063 84.7835 4.32247C84.7835 4.34267 84.6737 4.3548 84.5396 4.3548C84.3159 4.3548 84.2915 4.34672 84.255 4.25376C84.2306 4.19717 84.2143 4.05167 84.2143 3.93041C84.2143 3.80916 84.1858 3.64345 84.1533 3.56665C84.1208 3.48986 84.0557 3.40498 84.011 3.38478C83.9663 3.36457 83.7548 3.34436 83.1572 3.34436L83.1368 4.33459L82.6692 4.3548ZM83.1572 2.59663V2.94018C83.9907 2.94018 84.0191 2.93614 84.1126 2.83913C84.1818 2.77042 84.2143 2.69363 84.2143 2.59663C84.2143 2.49963 84.1818 2.42283 84.1126 2.35412C84.0191 2.26116 83.9866 2.25308 83.5841 2.25308H83.1572V2.59663ZM65.328 9.42722C65.2589 9.45551 65.1695 9.52422 65.1329 9.57676C65.1004 9.62526 64.5596 11.0965 63.9375 12.8425L62.8072 16.0153C67.052 16.0315 68.2921 16.0274 68.3002 16.0153C68.3124 16.0032 67.8245 14.6007 67.2187 12.891C66.6129 11.1854 66.0843 9.72631 66.0436 9.64951C65.9989 9.56464 65.9135 9.47976 65.8241 9.4353C65.7428 9.39892 65.6249 9.36659 65.5639 9.36659C65.5029 9.37063 65.3972 9.39488 65.328 9.42722ZM34.553 9.45147C34.3375 9.49593 34.0489 9.59293 33.8618 9.68589C33.6626 9.78289 33.4227 9.9486 33.2519 10.1022C33.0974 10.2437 32.8819 10.4942 32.7722 10.66C32.6664 10.8257 32.5201 11.1086 32.4509 11.2864C32.3818 11.4643 32.2924 11.7472 32.2477 11.9129C32.207 12.0786 32.1419 12.4262 32.1053 12.6808C32.0566 13.0082 32.0362 13.4286 32.0362 14.0955C32.0362 14.7987 32.0525 15.1665 32.1053 15.5101C32.146 15.7647 32.2233 16.1487 32.2802 16.3588C32.333 16.569 32.455 16.8964 32.5445 17.0864C32.6339 17.2763 32.7844 17.539 32.8819 17.6724C32.9755 17.8058 33.1625 18.0119 33.2967 18.1291C33.439 18.2585 33.6829 18.4161 33.9025 18.5212C34.1017 18.6182 34.3945 18.7273 34.553 18.7637C34.7889 18.8243 35.1019 18.8364 36.5047 18.8526C37.8952 18.8688 38.2408 18.8607 38.5986 18.8041C38.8304 18.7677 39.1435 18.6909 39.2898 18.6344C39.4321 18.5778 39.6517 18.4646 39.7778 18.3878C39.8997 18.3151 40.1071 18.1493 40.2331 18.02C40.3632 17.8947 40.5421 17.6845 40.6316 17.5512C40.717 17.4178 40.8552 17.1551 40.9365 16.9651C41.0179 16.7751 41.1154 16.4841 41.1602 16.3184C41.2008 16.1527 41.2699 15.8334 41.3065 15.6111C41.3635 15.2918 41.3797 14.9766 41.3797 14.0955C41.3797 13.1173 41.3675 12.9193 41.2862 12.4585C41.2334 12.1675 41.1398 11.7674 41.0707 11.5694C41.0057 11.3673 40.8715 11.0601 40.778 10.8823C40.656 10.6478 40.5177 10.4659 40.2657 10.2154C39.9892 9.94052 39.8469 9.83139 39.5745 9.69801C39.3508 9.58889 39.0865 9.49997 38.8426 9.44742C38.4889 9.37467 38.2978 9.36659 36.6876 9.37063C35.1019 9.37063 34.8783 9.37871 34.553 9.45147ZM35.8907 12.3171C35.7566 12.3575 35.5655 12.4545 35.4638 12.5273C35.3622 12.604 35.2198 12.7536 35.1467 12.8627C35.0735 12.9759 34.984 13.1537 34.9474 13.2669C34.9068 13.3881 34.8742 13.6751 34.862 13.9742C34.8539 14.2652 34.8661 14.5724 34.8905 14.7017C34.9149 14.823 34.9881 15.0331 35.0531 15.1665C35.1182 15.308 35.2442 15.4818 35.354 15.5828C35.4597 15.6758 35.6305 15.789 35.7362 15.8334C35.846 15.8819 36.0493 15.9385 36.1957 15.9628C36.3461 15.987 36.6429 15.9951 36.8869 15.983C37.1227 15.9708 37.4033 15.9304 37.5171 15.8981C37.6269 15.8658 37.8098 15.7768 37.9196 15.7041C38.0294 15.6313 38.1798 15.4777 38.2571 15.3686C38.3344 15.2554 38.436 15.0412 38.4848 14.8836C38.5498 14.6613 38.5702 14.4956 38.5702 14.1157C38.5702 13.7357 38.5498 13.57 38.4848 13.3477C38.436 13.1901 38.3344 12.9759 38.2612 12.8627C38.188 12.7536 38.0457 12.604 37.944 12.5273C37.8424 12.4545 37.6431 12.3575 37.4968 12.313C37.2894 12.2524 37.1146 12.2362 36.6836 12.2362C36.2689 12.2403 36.0737 12.2605 35.8907 12.3171Z" fill="#212121"/>
</svg>
