<svg width="24" height="24" viewBox="0 0 24 24" fill="none" xmlns="http://www.w3.org/2000/svg">
<path d="M12 13.7871C13.2586 13.7871 14.4976 13.935 15.7178 14.2305C16.9356 14.5254 18.138 14.9681 19.3242 15.5605V15.5615C19.7987 15.8069 20.1781 16.1605 20.4688 16.6338C20.7561 17.1017 20.9004 17.6109 20.9004 18.1748V20.9004H3.09961V18.1748C3.09964 17.6109 3.24395 17.1017 3.53125 16.6338C3.82182 16.1606 4.20053 15.806 4.6748 15.5605C5.8613 14.9679 7.06415 14.5255 8.28223 14.2305C9.50241 13.935 10.7414 13.7871 12 13.7871ZM12 3.09961C13.1459 3.09961 14.1121 3.50075 14.9307 4.31934C15.7492 5.13792 16.1504 6.10414 16.1504 7.25C16.1504 8.39586 15.7492 9.36208 14.9307 10.1807C14.1121 10.9992 13.1459 11.4004 12 11.4004C10.8541 11.4004 9.88792 10.9992 9.06934 10.1807C8.25075 9.36208 7.84961 8.39586 7.84961 7.25C7.84961 6.10414 8.25075 5.13792 9.06934 4.31934C9.88792 3.50075 10.8541 3.09961 12 3.09961Z" fill="white" stroke="white" stroke-width="1.2"/>
</svg>
