<svg width="24" height="24" viewBox="0 0 24 24" fill="none" xmlns="http://www.w3.org/2000/svg">
<path d="M24 20.1674C24 22.2842 22.3001 24 20.2028 24H3.79723C1.69986 24 0 22.2842 0 20.1674V3.8329C0 1.71617 1.69986 0 3.79723 0H20.2028C22.3001 0 24 1.71617 24 3.8329V20.1674Z" fill="#3BB044"/>
<path d="M17.4293 7.07823V14.5767C17.4293 15.2108 16.9186 15.7267 16.2904 15.7267H9.36301C9.21667 15.7267 7.91498 15.7466 7.35907 16.4264L7.03859 16.7587L6.46896 17.3492L5.83268 18.0087C5.78479 18.0374 5.70844 18.0716 5.65854 18.0716L5.65151 18.0729C5.65084 18.0726 5.58755 18.0107 5.58755 17.7254V7.07823C5.58755 6.44409 6.09824 5.92826 6.72648 5.92826H16.2904C16.7884 5.92826 17.2083 6.25479 17.3627 6.70538C17.4029 6.82268 17.4293 6.94707 17.4293 7.07823ZM18.9718 7.24691L18.9741 7.24352L17.5388 5.90764C17.2267 5.5686 16.784 5.35327 16.2904 5.35327H6.72648C5.78446 5.35327 5.01758 6.12702 5.01758 7.07823V17.7251C5.01758 18.0216 5.07116 18.2416 5.18133 18.3988C5.21985 18.4536 5.26539 18.5002 5.31596 18.5374L6.68898 19.8145C6.71041 19.8374 6.73318 19.8591 6.75729 19.878L6.76968 19.8895L6.77102 19.8871C6.79346 19.9037 6.81523 19.9219 6.83967 19.9348C6.92038 19.9767 7.0118 19.9987 7.10959 19.9987C7.36443 19.9987 7.58713 19.8493 7.62932 19.8192L9.23341 18.1618C9.57399 17.7467 10.4899 17.6541 10.8141 17.6538H17.7414C18.6835 17.6538 19.45 16.8797 19.45 15.9288V8.43C19.45 7.96893 19.2658 7.55485 18.9718 7.24691Z" fill="white"/>
<path d="M8.77705 8.95776C8.30688 8.95776 7.92578 9.34244 7.92578 9.81703V11.6214C7.92578 12.096 8.30688 12.4807 8.77705 12.4807C9.24723 12.4807 9.62832 12.096 9.62832 11.6214V9.81703C9.62832 9.34244 9.24723 8.95776 8.77705 8.95776Z" fill="white"/>
<path d="M14.0788 8.95776C13.6086 8.95776 13.2275 9.34244 13.2275 9.81703V11.6214C13.2275 12.096 13.6086 12.4807 14.0788 12.4807C14.549 12.4807 14.9301 12.096 14.9301 11.6214V9.81703C14.9301 9.34244 14.549 8.95776 14.0788 8.95776Z" fill="white"/>
</svg>
