<svg width="25" height="24" viewBox="0 0 25 24" fill="none" xmlns="http://www.w3.org/2000/svg">
<path d="M21.4986 11.5C21.4986 16.1944 17.6931 20 12.9986 20C11.9219 20 10.8919 19.7998 9.9438 19.4345C9.77047 19.3678 9.6838 19.3344 9.61488 19.3185C9.54709 19.3029 9.49802 19.2963 9.42851 19.2937C9.35783 19.291 9.28029 19.299 9.12521 19.315L4.00419 19.8444C3.51595 19.8948 3.27183 19.9201 3.12782 19.8322C3.0024 19.7557 2.91697 19.6279 2.89423 19.4828C2.86812 19.3161 2.98477 19.1002 3.21808 18.6684L4.85374 15.6408C4.98844 15.3915 5.0558 15.2668 5.0863 15.1469C5.11643 15.0286 5.12371 14.9432 5.11408 14.8214C5.10432 14.6981 5.05022 14.5376 4.94202 14.2166C4.6545 13.3636 4.49865 12.45 4.49865 11.5C4.49865 6.80558 8.30423 3 12.9986 3C17.6931 3 21.4986 6.80558 21.4986 11.5Z" fill="white"/>
<path d="M9.49865 14C9.49865 14 10.8111 15.5 12.9986 15.5C15.1861 15.5 16.4986 14 16.4986 14" fill="white"/>
<path d="M16.2486 9C16.2486 9.27614 16.0248 9.5 15.7486 9.5C15.4725 9.5 15.2486 9.27614 15.2486 9C15.2486 8.72386 15.4725 8.5 15.7486 8.5C16.0248 8.5 16.2486 8.72386 16.2486 9Z" fill="white"/>
<path d="M10.7486 9C10.7486 9.27614 10.5248 9.5 10.2486 9.5C9.97251 9.5 9.74865 9.27614 9.74865 9C9.74865 8.72386 9.97251 8.5 10.2486 8.5C10.5248 8.5 10.7486 8.72386 10.7486 9Z" fill="white"/>
<path d="M9.49865 14C9.49865 14 10.8111 15.5 12.9986 15.5C15.1861 15.5 16.4986 14 16.4986 14M15.7486 9H15.7586M10.2486 9H10.2586M12.9986 20C17.6931 20 21.4986 16.1944 21.4986 11.5C21.4986 6.80558 17.6931 3 12.9986 3C8.30423 3 4.49865 6.80558 4.49865 11.5C4.49865 12.45 4.6545 13.3636 4.94202 14.2166C5.05022 14.5376 5.10432 14.6981 5.11408 14.8214C5.12371 14.9432 5.11643 15.0286 5.0863 15.1469C5.0558 15.2668 4.98844 15.3915 4.85374 15.6408L3.21808 18.6684C2.98477 19.1002 2.86812 19.3161 2.89423 19.4828C2.91697 19.6279 3.0024 19.7557 3.12782 19.8322C3.27183 19.9201 3.51595 19.8948 4.00419 19.8444L9.12521 19.315C9.28029 19.299 9.35783 19.291 9.42851 19.2937C9.49802 19.2963 9.54709 19.3029 9.61488 19.3185C9.6838 19.3344 9.77047 19.3678 9.9438 19.4345C10.8919 19.7998 11.9219 20 12.9986 20ZM16.2486 9C16.2486 9.27614 16.0248 9.5 15.7486 9.5C15.4725 9.5 15.2486 9.27614 15.2486 9C15.2486 8.72386 15.4725 8.5 15.7486 8.5C16.0248 8.5 16.2486 8.72386 16.2486 9ZM10.7486 9C10.7486 9.27614 10.5248 9.5 10.2486 9.5C9.97251 9.5 9.74865 9.27614 9.74865 9C9.74865 8.72386 9.97251 8.5 10.2486 8.5C10.5248 8.5 10.7486 8.72386 10.7486 9Z" stroke="white" stroke-width="1.2" stroke-linecap="round" stroke-linejoin="round"/>
<path d="M9.5 13.5C9.5 13.5 10.8125 15 13 15C15.1875 15 16.5 13.5 16.5 13.5M15.75 8.5H15.76M10.25 8.5H10.26M16.25 8.5C16.25 8.77614 16.0261 9 15.75 9C15.4739 9 15.25 8.77614 15.25 8.5C15.25 8.22386 15.4739 8 15.75 8C16.0261 8 16.25 8.22386 16.25 8.5ZM10.75 8.5C10.75 8.77614 10.5261 9 10.25 9C9.97386 9 9.75 8.77614 9.75 8.5C9.75 8.22386 9.97386 8 10.25 8C10.5261 8 10.75 8.22386 10.75 8.5Z" stroke="#393280" stroke-width="1.2" stroke-linecap="round" stroke-linejoin="round"/>
</svg>
