<svg width="28" height="28" viewBox="0 0 28 28" fill="none" xmlns="http://www.w3.org/2000/svg">
<circle cx="14" cy="14" r="14" fill="#FEE500"/>
<path d="M14.0402 6.75684C9.68453 6.75684 6.17188 9.56693 6.17188 12.9784C6.17188 15.1928 7.63314 17.1318 9.82504 18.239L9.08316 21.0098C9.06918 21.0513 9.06702 21.0959 9.07695 21.1386C9.08688 21.1812 9.10849 21.2203 9.13937 21.2514C9.18439 21.2911 9.24232 21.3131 9.30235 21.3132C9.35213 21.3092 9.39935 21.2896 9.43724 21.257L12.6295 19.1045C13.1008 19.1695 13.5758 19.2033 14.0515 19.2056C18.4015 19.2056 21.9198 16.3955 21.9198 12.9784C21.9198 9.56131 18.3903 6.75684 14.0402 6.75684Z" fill="#392020"/>
<path d="M8.92534 11.995H8.06545C7.95887 11.998 7.85361 11.9707 7.76195 11.9163C7.72126 11.8908 7.68628 11.8571 7.6592 11.8175C7.63212 11.7778 7.61353 11.733 7.60459 11.6858C7.60186 11.6559 7.60186 11.6259 7.60459 11.5959C7.60192 11.54 7.61278 11.4841 7.63626 11.4333C7.65974 11.3824 7.69515 11.338 7.73947 11.3037C7.83745 11.2327 7.95572 11.1952 8.07669 11.1969H10.6676C10.775 11.1931 10.881 11.2225 10.9711 11.2812C11.0128 11.3055 11.0485 11.3389 11.0757 11.3787C11.1029 11.4186 11.1209 11.464 11.1285 11.5116C11.1312 11.5397 11.1312 11.5679 11.1285 11.5959C11.1311 11.6527 11.1203 11.7093 11.0968 11.7611C11.0734 11.8129 11.038 11.8583 10.9936 11.8938C10.898 11.9646 10.7809 12.0004 10.662 11.995H9.83021V14.9512C9.83358 15.0142 9.82384 15.0772 9.80158 15.1362C9.77933 15.1952 9.74506 15.249 9.70094 15.294C9.65863 15.3371 9.60777 15.3709 9.55163 15.3932C9.49549 15.4154 9.43531 15.4257 9.37496 15.4233C9.26941 15.4263 9.1661 15.3926 9.08271 15.3278C9.00332 15.2645 8.94944 15.1747 8.93097 15.0748C8.92541 15.0338 8.92541 14.9922 8.93097 14.9512L8.92534 11.995Z" fill="#FEE500"/>
<path d="M11.3768 11.4161C11.4015 11.3236 11.4595 11.2435 11.5398 11.1913C11.6252 11.1428 11.7226 11.1194 11.8208 11.1238H12.0343C12.1385 11.1201 12.2416 11.1454 12.3322 11.1969C12.4282 11.2614 12.4964 11.3597 12.5233 11.4723L13.6473 14.6477C13.6765 14.7306 13.7009 14.815 13.7204 14.9007C13.7223 14.9362 13.7223 14.9719 13.7204 15.0074C13.7223 15.0622 13.7122 15.1167 13.6909 15.1672C13.6695 15.2177 13.6374 15.2629 13.5968 15.2997C13.5574 15.34 13.5101 15.3719 13.4579 15.3931C13.4057 15.4144 13.3496 15.4247 13.2933 15.4233C13.2066 15.4319 13.1195 15.4111 13.0461 15.3642C12.9727 15.3173 12.9172 15.2471 12.8886 15.1648L12.6526 14.4735H11.1744L10.9384 15.1648C10.9105 15.2487 10.8543 15.3203 10.7795 15.3675C10.7047 15.4146 10.6158 15.4343 10.5281 15.4233C10.4331 15.4258 10.34 15.3961 10.264 15.339C10.1899 15.2801 10.1399 15.1962 10.1234 15.103C10.1205 15.0712 10.1205 15.0392 10.1234 15.0074C10.1138 14.9516 10.1138 14.8946 10.1234 14.8389C10.1234 14.777 10.1628 14.7095 10.1853 14.6477L11.3768 11.4161ZM11.9388 12.1524L11.4049 13.8384H12.4671L11.9388 12.1524Z" fill="#FEE500"/>
<path d="M13.8491 11.5959C13.8434 11.4698 13.8879 11.3465 13.9728 11.2531C14.0159 11.2095 14.0677 11.1755 14.1249 11.1533C14.182 11.131 14.2431 11.1209 14.3044 11.1238C14.4096 11.1225 14.5124 11.1561 14.5966 11.2193C14.6747 11.2853 14.7265 11.377 14.7427 11.4778C14.7483 11.517 14.7483 11.5568 14.7427 11.5959V14.5522H16.2883C16.3954 14.5508 16.5007 14.58 16.5918 14.6364C16.6327 14.6616 16.6679 14.6952 16.695 14.7349C16.7221 14.7746 16.7406 14.8196 16.7492 14.8669C16.7492 14.8669 16.7492 14.9231 16.7492 14.9512C16.7518 15.0072 16.741 15.0629 16.7175 15.1138C16.694 15.1647 16.6586 15.2092 16.6143 15.2434C16.5163 15.3144 16.398 15.3518 16.2771 15.3502H14.3774C14.2564 15.358 14.1362 15.3265 14.0346 15.2603C13.9437 15.1924 13.8832 15.0915 13.866 14.9793C13.8619 14.9176 13.8619 14.8556 13.866 14.7938L13.8491 11.5959Z" fill="#FEE500"/>
<path d="M16.8504 11.596C16.847 11.4702 16.8912 11.3478 16.974 11.2532C17.0583 11.1766 17.1663 11.1314 17.28 11.1253C17.3936 11.1191 17.5059 11.1524 17.5979 11.2194C17.6776 11.2848 17.7315 11.3764 17.7496 11.4779C17.7524 11.5172 17.7524 11.5567 17.7496 11.596V12.9729L19.1715 11.3318C19.2263 11.2758 19.2845 11.2233 19.3458 11.1745C19.4035 11.1401 19.4697 11.1225 19.5369 11.1238C19.6351 11.1233 19.7312 11.1527 19.8123 11.2082C19.8505 11.2339 19.8831 11.2671 19.9082 11.3057C19.9333 11.3443 19.9504 11.3876 19.9584 11.433C19.9607 11.4441 19.9607 11.4556 19.9584 11.4667C19.9557 11.4797 19.9557 11.4931 19.9584 11.5061C19.9582 11.5652 19.9427 11.6233 19.9134 11.6747C19.8836 11.7291 19.8478 11.7799 19.8066 11.8264L18.8737 12.8493L19.9977 14.5916V14.6478C20.0561 14.7283 20.1016 14.8175 20.1326 14.912V14.94C20.1391 15.0051 20.1297 15.0709 20.1053 15.1316C20.0808 15.1923 20.042 15.2461 19.9921 15.2885C19.8983 15.3593 19.7836 15.3969 19.6661 15.3953C19.588 15.3985 19.5105 15.381 19.4413 15.3447C19.3665 15.2945 19.3048 15.227 19.2615 15.148L18.2161 13.4619L17.7159 13.9846V14.9231C17.7193 15.0489 17.6751 15.1713 17.5923 15.266C17.5478 15.3094 17.495 15.3433 17.437 15.3655C17.379 15.3877 17.3171 15.3979 17.255 15.3953C17.1513 15.3975 17.0501 15.3637 16.9684 15.2997C16.889 15.2364 16.8351 15.1467 16.8167 15.0468C16.8111 15.0058 16.8111 14.9642 16.8167 14.9231L16.8504 11.596Z" fill="#FEE500"/>
</svg>
