<svg width="28" height="28" viewBox="0 0 28 28" fill="none" xmlns="http://www.w3.org/2000/svg">
<circle cx="14" cy="15.166" r="10.5" stroke="white" stroke-width="2.5" stroke-linecap="round"/>
<path d="M5.83333 22.166L3.5 24.4993M22.1667 22.166L24.5 24.4993" stroke="white" stroke-width="2.5" stroke-linecap="round" stroke-linejoin="round"/>
<path d="M22.1667 4.16465L22.8615 3.81728C23.8476 3.32421 24.2181 3.38064 25.0021 4.16465C25.7861 4.94866 25.8425 5.31912 25.3494 6.30525L25.0021 7M5.83337 4.16465L5.13863 3.81728C4.15249 3.32421 3.78203 3.38064 2.99802 4.16465C2.21402 4.94866 2.15758 5.31912 2.65065 6.30525L2.99802 7" stroke="white" stroke-width="2.5" stroke-linecap="round"/>
<path d="M14 11.083V15.7497L16.3333 18.083" stroke="white" stroke-width="2.5" stroke-linecap="round" stroke-linejoin="round"/>
<path d="M14 4.08301V2.33301" stroke="white" stroke-width="2.5" stroke-linecap="round" stroke-linejoin="round"/>
<path d="M11.6667 2.33301H16.3334" stroke="white" stroke-width="2.5" stroke-linecap="round" stroke-linejoin="round"/>
</svg>
