<svg width="30" height="30" viewBox="0 0 30 30" fill="none" xmlns="http://www.w3.org/2000/svg">
<circle cx="15" cy="16.3333" r="12" stroke="#5BF4FF" stroke-width="2.5" stroke-linecap="round"/>
<path d="M5.66667 24.3333L3 27M24.3333 24.3333L27 27" stroke="#5BF4FF" stroke-width="2.5" stroke-linecap="round" stroke-linejoin="round"/>
<path d="M24.3337 3.7596L25.1277 3.3626C26.2547 2.79909 26.6781 2.86359 27.5741 3.7596C28.4701 4.65561 28.5346 5.07899 27.9711 6.20601L27.5741 7M5.66699 3.7596L4.873 3.3626C3.74598 2.79909 3.3226 2.86359 2.42659 3.7596C1.53058 4.65561 1.46609 5.07899 2.02959 6.20601L2.42659 7" stroke="#5BF4FF" stroke-width="2.5" stroke-linecap="round"/>
<path d="M15 11.6667V17L17.6667 19.6667" stroke="#5BF4FF" stroke-width="2.5" stroke-linecap="round" stroke-linejoin="round"/>
<path d="M15 3.66666V1.66666" stroke="#5BF4FF" stroke-width="2.5" stroke-linecap="round" stroke-linejoin="round"/>
<path d="M12.334 1.66666H17.6673" stroke="#5BF4FF" stroke-width="2.5" stroke-linecap="round" stroke-linejoin="round"/>
</svg>
