<svg width="41" height="41" viewBox="0 0 41 41" fill="none" xmlns="http://www.w3.org/2000/svg">
<rect x="0.333252" y="0.400391" width="40" height="40" rx="20" fill="white"/>
<path d="M28.098 15.7866H12.6551C10.7442 15.7866 9.19519 14.2376 9.19519 12.3267V12.3267C9.19519 10.4159 10.7442 8.86682 12.6551 8.86682H17.5496V8.86682C18.8545 8.86682 19.9124 7.80894 19.9124 6.50397V4.84473" stroke="#212121" stroke-linecap="round"/>
<path d="M20.8389 11.9051V11.9051C22.7497 11.9051 24.2988 10.3561 24.2988 8.44521V4.84473" stroke="#212121" stroke-linecap="round"/>
<path d="M19.7432 29.6262V29.6262C17.8323 29.6262 16.2833 31.1753 16.2833 33.0861L16.2833 37.4375" stroke="#212121" stroke-linecap="round"/>
<path d="M15.3951 11.9053H28.5194C30.4302 11.9053 31.9793 13.4543 31.9793 15.3652V15.3652C31.9793 17.276 30.4302 18.8251 28.5194 18.8251H13.0764" stroke="#212121" stroke-linecap="round"/>
<path d="M25.9027 15.7871H10.4598C8.54893 15.7871 6.99988 17.3362 6.99988 19.247V19.247C6.99988 21.1579 8.54893 22.7069 10.4598 22.7069H25.9027" stroke="#212121" stroke-linecap="round"/>
<path d="M14.7623 18.8242H30.0365C32.0406 18.8242 33.6652 20.4488 33.6652 22.4529V22.4529C33.6652 24.4569 32.0406 26.0816 30.0365 26.0816H16.3827" stroke="#212121" stroke-linecap="round"/>
<path d="M16.3828 26.3262H27.8877C29.7159 26.3262 31.1979 27.8082 31.1979 29.6363V29.6363C31.1979 31.4645 29.7159 32.9465 27.8877 32.9465H21.3265V32.9465C20.3203 32.9465 19.5046 33.7622 19.5046 34.7684V37.1906" stroke="#212121" stroke-linecap="round"/>
<path d="M29.2786 22.707H13.8356C11.9248 22.707 10.3757 24.2561 10.3757 26.1669V26.1669C10.3757 28.0778 11.9248 29.6268 13.8356 29.6268H26.2595" stroke="#212121" stroke-linecap="round"/>
</svg>
