<svg width="40" height="41" viewBox="0 0 40 41" fill="none" xmlns="http://www.w3.org/2000/svg">
<rect y="0.400391" width="40" height="40" rx="20" fill="white"/>
<path d="M10.6451 7.40039C10.7821 8.66602 11.1795 11.5348 11.6728 12.8848C12.2895 14.5723 12.0839 18.791 10.6451 21.5332C9.49394 23.727 9.06913 31.0254 9.00061 34.4004" stroke="#212121"/>
<path d="M30.3562 7.40039C30.2191 8.66602 29.8217 11.5348 29.3284 12.8848C28.7117 14.5723 28.9173 18.791 30.3562 21.5332C31.5073 23.727 31.9321 31.0254 32.0006 34.4004" stroke="#212121"/>
<path d="M12.2249 11.6479C13.8729 11.3 17.4698 10.4372 18.6735 9.76922C19.8772 9.10124 21.6112 9.49089 22.3277 9.76922C24.3339 10.3954 28.6043 11.6479 29.6361 11.6479M32.0006 28.5563C28.2748 29.9479 18.4586 31.8962 9.00061 28.5563" stroke="#212121"/>
<path d="M25.483 21.5011C26.2416 18.6703 24.5616 15.7607 21.7308 15.0022C19.574 14.4243 17.3714 15.2618 16.1093 16.9454" stroke="#212121"/>
<path d="M23.849 19.8203L25.3967 21.368L26.9444 19.8203" stroke="#212121"/>
<path d="M15.2824 18.4516C14.4166 21.2514 15.9845 24.2229 18.7844 25.0886C20.9176 25.7482 23.1505 24.9952 24.4758 23.3609" stroke="#212121"/>
<path d="M16.8463 20.1934L15.3587 18.5879L13.7531 20.0755" stroke="#212121"/>
</svg>
