<svg width="41" height="41" viewBox="0 0 41 41" fill="none" xmlns="http://www.w3.org/2000/svg">
<g clip-path="url(#clip0_573_5826)">
<rect x="0.666626" y="0.400391" width="40" height="40" rx="20" fill="white"/>
<path d="M34.3877 24.2376C36.4208 16.6503 31.918 8.85145 24.3304 6.81842C18.5495 5.26948 12.6458 7.51438 9.26294 12.0269" stroke="#212121"/>
<path d="M32.319 21.6504L35.069 24.4004L37.8191 21.6504" stroke="#212121"/>
<path d="M7.63746 16.0672C5.31689 23.5716 9.51943 31.5362 17.0241 33.8567C22.7418 35.6247 28.7267 33.6063 32.279 29.2259" stroke="#212121"/>
<path d="M9.83459 18.7373L7.43161 16.144L4.83822 18.5469" stroke="#212121"/>
<rect x="20.7619" y="10.2668" width="2.73403" height="8.06835" rx="1.36701" transform="rotate(-36.0861 20.7619 10.2668)" fill="white" stroke="#212121"/>
<rect x="16.5971" y="12.6114" width="2.73403" height="8.06835" rx="1.36701" transform="rotate(45.5591 16.5971 12.6114)" fill="white" stroke="#212121"/>
<rect x="24.484" y="17.1591" width="2.73403" height="8.06835" rx="1.36701" transform="rotate(78.1893 24.484 17.1591)" fill="white" stroke="#212121"/>
<rect x="28.095" y="16.8714" width="2.73403" height="8.06835" rx="1.36701" transform="rotate(17.5031 28.095 16.8714)" fill="white" stroke="#212121"/>
<rect x="19.3579" y="23.9391" width="2.73403" height="8.06835" rx="1.36701" transform="rotate(-41.4616 19.3579 23.9391)" fill="white" stroke="#212121"/>
<rect x="13.005" y="23.2507" width="2.73403" height="8.06835" rx="1.36701" transform="rotate(-19.8464 13.005 23.2507)" fill="white" stroke="#212121"/>
</g>
<defs>
<clipPath id="clip0_573_5826">
<rect x="0.666626" y="0.400391" width="40" height="40" rx="20" fill="white"/>
</clipPath>
</defs>
</svg>
