<svg width="108" height="31" viewBox="0 0 108 31" fill="none" xmlns="http://www.w3.org/2000/svg">
<path d="M82.4922 12.0293C82.8784 12.0445 83.2496 12.0896 83.5088 12.1553C83.7324 12.2108 84.0885 12.3421 84.2969 12.4482C84.5865 12.5846 84.7849 12.7361 85.1152 13.0645C85.4455 13.3928 85.5923 13.5852 85.7295 13.873C85.8311 14.0802 87.2141 17.8695 88.7998 22.2852C90.3855 26.7057 91.692 30.3587 91.7022 30.4092C91.717 30.4897 91.6051 30.495 88.2354 30.5L87.6055 28.7412C87.2599 27.7764 86.96 26.9429 86.9346 26.8975C86.8938 26.8117 86.6164 26.8066 77.7402 26.8066L77.3643 27.8828C77.161 28.4689 76.8662 29.3028 76.4443 30.4951H74.6807C73.71 30.4951 72.9225 30.4792 72.9326 30.459C72.9562 30.4101 74.2167 26.8962 75.7656 22.5781L75.835 22.3857C77.4206 17.9703 78.7874 14.1961 78.8789 13.999C78.9755 13.8071 79.1535 13.5095 79.2754 13.3428C79.4024 13.1761 79.6512 12.9284 79.8291 12.792C80.0067 12.6608 80.2556 12.4995 80.3828 12.4336C80.5099 12.373 80.7391 12.282 80.8916 12.2314C81.044 12.181 81.3332 12.1096 81.5264 12.0742C81.755 12.0288 82.106 12.0142 82.4922 12.0293ZM22.1641 12.0293L22.1895 18.1426C22.2149 23.9067 22.22 24.2705 22.3115 24.5332C22.3623 24.6846 22.4842 24.9672 22.5908 25.1592C22.6925 25.3512 22.9215 25.6703 23.1045 25.8623C23.2875 26.0543 23.5827 26.3116 23.7656 26.4277C23.9485 26.5489 24.2581 26.7102 24.4512 26.791C24.6494 26.8719 24.9547 26.9781 25.1377 27.0186C25.3207 27.064 25.7225 27.1299 26.0273 27.1602C26.3475 27.1955 26.8255 27.2106 27.1455 27.1904C27.4554 27.1752 27.8969 27.1245 28.1357 27.0791C28.3745 27.0336 28.7408 26.9334 28.9492 26.8525C29.1575 26.7717 29.4978 26.5946 29.7012 26.4531C29.9045 26.3117 30.1942 26.0484 30.3467 25.8564C30.5042 25.6696 30.7081 25.357 30.8047 25.165C30.9013 24.968 31.0175 24.6592 31.0684 24.4824C31.1497 24.1793 31.1603 23.6879 31.1807 12.0039H34.4893V18.1924C34.4893 24.0776 34.484 24.4068 34.3926 24.9473C34.3367 25.2604 34.2202 25.7455 34.1338 26.0234C34.0424 26.3012 33.8794 26.7102 33.7676 26.9326C33.6558 27.1549 33.488 27.4484 33.3965 27.5898C33.2999 27.7262 33.1015 27.9835 32.9541 28.1553C32.8067 28.327 32.5476 28.5849 32.3799 28.7314C32.2122 28.878 31.9271 29.0899 31.7441 29.2061C31.5611 29.3223 31.2314 29.51 31.0078 29.6211C30.7842 29.7322 30.3622 29.9038 30.0674 30.0049C29.7726 30.1059 29.3049 30.2325 29.0254 30.2881C28.7459 30.3436 28.2937 30.4091 28.0244 30.4395C27.75 30.4698 27.1601 30.4951 26.7129 30.4951C26.2659 30.4951 25.6768 30.4697 25.4072 30.4395C25.1328 30.4091 24.6901 30.3435 24.4258 30.293C24.1615 30.2374 23.7242 30.1261 23.46 30.0352C23.1957 29.9492 22.7482 29.7671 22.4688 29.6357C22.1893 29.4993 21.7577 29.247 21.5088 29.0703C21.2598 28.8935 20.8479 28.5295 20.5938 28.2617C20.3397 27.9941 20.0147 27.585 19.8672 27.3525C19.7198 27.1201 19.511 26.7158 19.4043 26.4531C19.2925 26.1854 19.1454 25.7304 19.0742 25.4424C18.998 25.1494 18.9162 24.7148 18.8857 24.4824C18.8553 24.2084 18.835 21.8394 18.835 18.0264V11.999L22.1641 12.0293ZM46.5088 12.0293C47.7894 12.0394 48.3792 12.0644 48.7705 12.125C49.0653 12.1705 49.5228 12.2613 49.7871 12.332C50.0514 12.3977 50.443 12.5142 50.6514 12.585C50.8598 12.6608 51.2515 12.8324 51.5156 12.9688C51.7798 13.1051 52.1909 13.3623 52.4297 13.5391C52.6686 13.7159 53.0299 14.0396 53.2383 14.2568C53.4466 14.4791 53.7567 14.873 53.9346 15.1357C54.1125 15.3985 54.3464 15.8084 54.4531 16.0459C54.5649 16.2834 54.7271 16.6823 54.8135 16.9297C54.8999 17.1823 55.0267 17.622 55.0928 17.915C55.1639 18.208 55.256 18.6826 55.3018 18.9756C55.3424 19.2686 55.4031 19.9056 55.4336 20.3906C55.4742 21.032 55.4742 21.522 55.4336 22.1836C55.4031 22.6838 55.3424 23.331 55.3018 23.624C55.256 23.917 55.1748 24.3466 55.124 24.584C55.0681 24.8215 54.9504 25.2305 54.8691 25.4932C54.7827 25.7559 54.5646 26.2713 54.3867 26.6299C54.2089 26.9935 53.9142 27.4783 53.7363 27.7158C53.5584 27.9533 53.2275 28.3173 53.0039 28.5244C52.7853 28.7315 52.4298 29.0148 52.2266 29.1562C52.0181 29.2927 51.6519 29.5049 51.4131 29.6211C51.1742 29.7373 50.7428 29.9138 50.4482 30.0098C50.1535 30.1057 49.6655 30.2325 49.3555 30.2881C49.0506 30.3487 48.593 30.414 48.3389 30.4443C48.0898 30.4696 47.1748 30.4951 46.3057 30.4951C45.4417 30.4951 44.4911 30.4696 44.1963 30.4443C43.9015 30.414 43.4338 30.3436 43.1543 30.2881C42.8747 30.2325 42.3715 30.0955 42.0361 29.9844C41.7007 29.8732 41.2228 29.6762 40.9688 29.5449C40.7198 29.4136 40.3291 29.1764 40.1055 29.0098C39.8818 28.8481 39.5203 28.5291 39.3018 28.3018C39.0782 28.0795 38.7634 27.691 38.5957 27.4385C38.428 27.1909 38.2044 26.8014 38.0977 26.5791C37.991 26.3569 37.8335 25.9733 37.7471 25.7207C37.6556 25.4732 37.5282 25.0489 37.457 24.7861C37.391 24.5235 37.2844 23.9979 37.2285 23.624C37.1523 23.139 37.117 22.5831 37.0967 21.7041C37.0814 20.9261 37.0912 20.2136 37.1318 19.7842C37.1623 19.4103 37.2334 18.8643 37.2842 18.5713C37.335 18.2783 37.4263 17.8487 37.4873 17.6113C37.5483 17.3738 37.6808 16.9648 37.7773 16.7021C37.8739 16.4394 38.0669 16.0049 38.2041 15.7422C38.3413 15.4796 38.6004 15.0705 38.7783 14.833C38.9562 14.5956 39.2822 14.2316 39.5059 14.0244C39.7244 13.8122 40.0749 13.524 40.2832 13.3877C40.4916 13.2462 40.8477 13.0398 41.0713 12.9287C41.2948 12.8176 41.65 12.6606 41.8584 12.5898C42.0668 12.5141 42.4584 12.3977 42.7227 12.332C42.987 12.2664 43.4597 12.1752 43.7647 12.1348C44.0746 12.0893 44.4257 12.0493 44.5527 12.0342C44.6813 12.0241 45.5595 12.0243 46.5088 12.0293ZM60.8672 17.4248C60.8672 21.0606 60.8873 22.9904 60.9229 23.2949C60.9533 23.5475 61.0242 23.9217 61.0801 24.1289C61.1309 24.336 61.2679 24.6898 61.3848 24.9121C61.4965 25.1343 61.695 25.4523 61.8272 25.6191C61.9542 25.7808 62.2086 26.0389 62.3916 26.1904C62.5746 26.3369 62.9307 26.5593 63.1797 26.6855C63.4337 26.8067 63.8092 26.9483 64.0176 27.0039C64.226 27.0595 64.623 27.125 64.8975 27.1553C65.1979 27.1906 66.5559 27.2109 71.3877 27.2109V30.4951H68.1602C66.2288 30.4951 64.7342 30.4748 64.4395 30.4395C64.165 30.4142 63.713 30.3428 63.4336 30.2822C63.1541 30.2267 62.7219 30.116 62.4678 30.0352C62.2187 29.9543 61.7612 29.7617 61.4512 29.6152C61.1462 29.4636 60.6884 29.1961 60.4395 29.0244C60.1955 28.8475 59.8048 28.5088 59.5762 28.2715C59.3476 28.0342 59.0426 27.6711 58.9053 27.4639C58.763 27.2568 58.5542 26.903 58.4424 26.6807C58.3306 26.4584 58.1778 26.1046 58.1016 25.8975C58.0253 25.6903 57.9088 25.3008 57.8428 25.0381C57.7767 24.7754 57.6852 24.291 57.6445 23.9678C57.5785 23.4626 57.5635 22.5072 57.5635 17.6875V12.0039H60.8672V17.4248ZM4.54883 11.999C6.82552 11.999 8.90401 12.0236 9.2295 12.0488C9.54969 12.0791 10.063 12.1454 10.3731 12.2061C10.683 12.2616 11.1812 12.3872 11.4912 12.4883C11.8012 12.5843 12.2588 12.7663 12.5078 12.8926C12.7569 13.0138 13.1282 13.2212 13.3213 13.3525C13.5195 13.484 13.8698 13.7719 14.1035 13.9941C14.3373 14.2164 14.6725 14.5907 14.8555 14.8281C15.0333 15.0655 15.3127 15.5299 15.4805 15.8633C15.6431 16.1967 15.8573 16.7279 15.959 17.0361C16.0606 17.3494 16.1976 17.8843 16.2637 18.2227C16.3348 18.5661 16.4158 19.0615 16.4463 19.3242C16.4717 19.5869 16.5131 20.2137 16.5283 20.7139C16.5486 21.2493 16.5385 21.921 16.5029 22.3555C16.4724 22.7596 16.4059 23.3261 16.3652 23.6191C16.3195 23.9122 16.2127 24.4471 16.1162 24.8057C16.0248 25.1643 15.8523 25.7001 15.7354 25.9932C15.6236 26.2862 15.4249 26.7054 15.2979 26.9277C15.1759 27.15 14.9521 27.4885 14.8047 27.6855C14.6624 27.8826 14.3473 28.2315 14.1084 28.4639C13.8697 28.6961 13.4942 29.0038 13.2705 29.1504C13.0469 29.2969 12.6807 29.5099 12.457 29.6211C12.2334 29.7322 11.8114 29.904 11.5166 30C11.2218 30.096 10.7338 30.2267 10.4238 30.2822C10.1138 30.3429 9.65627 30.4091 9.40723 30.4395C9.13702 30.4698 7.17401 30.4893 0.385747 30.4893L0.375981 21.2793C0.370917 16.2288 0.385877 12.0765 0.411138 12.0342C0.43655 12.014 2.29732 11.999 4.54883 11.999ZM107.625 15.333L103.346 15.3486C99.3916 15.3587 99.0354 15.3682 98.7305 15.4541C98.5476 15.5046 98.2075 15.6359 97.9688 15.752C97.6181 15.9187 97.4552 16.0459 97.1045 16.3945C96.7844 16.7077 96.6163 16.9295 96.4639 17.2275C96.347 17.4498 96.1893 17.8138 96.1182 18.0361C96.042 18.2584 95.9407 18.6675 95.8848 18.9453C95.8339 19.2232 95.7631 19.7794 95.7275 20.1836C95.692 20.6181 95.6818 21.2345 95.7022 21.6992C95.7174 22.1285 95.7576 22.6839 95.7881 22.9365C95.8186 23.1841 95.905 23.6391 95.9863 23.9473C96.0626 24.2554 96.22 24.7054 96.3369 24.958C96.4538 25.2055 96.6517 25.5492 96.7686 25.7158C96.8905 25.8825 97.1245 26.1396 97.2871 26.2861C97.465 26.4478 97.7705 26.645 98.0449 26.7764C98.2989 26.8975 98.6643 27.0344 98.8574 27.085C99.1827 27.1658 99.5948 27.1757 107.625 27.2061V30.4893H103.803C100.698 30.4893 99.8542 30.4747 99.3154 30.4141C98.9495 30.3686 98.4514 30.2872 98.1973 30.2266C97.9432 30.171 97.511 30.0452 97.2315 29.9492C96.9519 29.8482 96.5603 29.6917 96.3672 29.5957C96.1741 29.4997 95.8189 29.2923 95.5801 29.1357C95.3412 28.9791 94.9395 28.6452 94.6904 28.3926C94.4263 28.135 94.0807 27.7215 93.8926 27.4336C93.7045 27.1557 93.4603 26.7355 93.3535 26.498C93.2418 26.2608 93.0946 25.9128 93.0234 25.7158C92.9523 25.5189 92.8255 25.079 92.7441 24.7305C92.6577 24.3819 92.546 23.8256 92.4951 23.4922C92.424 23.0072 92.4033 22.5576 92.4033 21.2441C92.4033 19.9055 92.4189 19.4963 92.4951 19.0215C92.546 18.7032 92.6316 18.2329 92.6875 17.9854C92.7434 17.7328 92.8757 17.2684 92.9824 16.9502C93.0892 16.6319 93.2776 16.1769 93.3945 15.9395C93.5114 15.702 93.7399 15.3175 93.8975 15.0801C94.0551 14.8426 94.3702 14.459 94.5938 14.2217C94.8225 13.9842 95.1887 13.6605 95.4072 13.5039C95.6308 13.3474 96.0015 13.1155 96.2402 12.9893C96.4791 12.863 96.8555 12.6912 97.0791 12.6104C97.3027 12.5295 97.7146 12.4028 97.9941 12.332C98.2737 12.2664 98.7567 12.1703 99.0615 12.1299C99.3662 12.0845 99.7366 12.0443 99.874 12.0342C100.011 12.0241 101.816 12.0142 107.625 11.999V15.333ZM3.74024 21.2695V27.2051C9.3629 27.1748 9.75239 27.1596 10.0674 27.084C10.2605 27.0335 10.642 26.8919 10.9063 26.7656C11.3128 26.5736 11.4554 26.4676 11.7959 26.124C12.1108 25.811 12.2636 25.6091 12.4414 25.2607C12.5685 25.0132 12.7363 24.6134 12.8125 24.376C12.8836 24.1384 12.9957 23.674 13.0566 23.3408C13.1532 22.8106 13.168 22.5471 13.168 21.2441C13.168 19.9262 13.1531 19.6827 13.0566 19.1475C12.9956 18.8141 12.8836 18.359 12.8125 18.1367C12.7362 17.9144 12.5735 17.5298 12.4414 17.2773C12.2586 16.9242 12.1107 16.7269 11.7705 16.3887C11.4201 16.0353 11.2568 15.9137 10.9063 15.7471C10.6674 15.6309 10.3366 15.4947 10.169 15.4492C9.89963 15.3736 9.51604 15.3579 6.80469 15.3428L3.74512 15.3281L3.74024 21.2695ZM46.2344 15.3379C44.2526 15.3379 43.972 15.3485 43.5654 15.4395C43.2962 15.4951 42.9357 15.6164 42.7022 15.7324C42.4532 15.8537 42.1528 16.061 41.9395 16.2529C41.7464 16.4298 41.477 16.7432 41.3398 16.9502C41.2078 17.1573 41.0249 17.5103 40.9385 17.7324C40.8521 17.9546 40.7405 18.3085 40.6846 18.5156C40.6338 18.7228 40.5516 19.1574 40.5059 19.4756C40.4449 19.8848 40.4199 20.4106 40.4199 21.2441C40.4199 22.1232 40.4398 22.5833 40.5059 23.0127C40.5567 23.3309 40.6535 23.8105 40.7246 24.0732C40.7906 24.3357 40.9429 24.7449 41.0547 24.9824C41.1665 25.2198 41.3546 25.549 41.4766 25.7158C41.5934 25.8824 41.8275 26.1396 41.9951 26.2861C42.1729 26.4477 42.4786 26.645 42.7529 26.7764C43.0016 26.8974 43.3671 27.0334 43.5654 27.0791C43.8602 27.1549 44.2528 27.1702 46.0059 27.1904C47.7432 27.2106 48.176 27.2005 48.6231 27.1299C48.9125 27.0844 49.3042 26.9887 49.4873 26.918C49.6651 26.8472 49.9392 26.7053 50.0967 26.6094C50.2491 26.5185 50.5085 26.311 50.666 26.1494C50.8286 25.9928 51.0523 25.7301 51.1641 25.5635C51.2708 25.3967 51.4433 25.0684 51.5449 24.8311C51.6466 24.5936 51.7693 24.2296 51.8252 24.0225C51.876 23.8152 51.9621 23.4163 52.0078 23.1387C52.079 22.7396 52.0996 22.3454 52.0996 21.2441C52.0996 20.0217 52.084 19.774 51.9824 19.1982C51.9164 18.8346 51.7993 18.3346 51.7129 18.0869C51.6316 17.8343 51.4636 17.4498 51.3467 17.2275C51.1943 16.9348 51.0217 16.7074 50.707 16.3945C50.3616 16.0511 50.1832 15.9138 49.8428 15.7471C49.5633 15.6107 49.2325 15.5002 48.9277 15.4346C48.4858 15.3437 48.2462 15.3328 46.2344 15.3379ZM82.3291 15.333C82.2528 15.3382 82.1203 15.3689 82.0342 15.4092C81.948 15.4447 81.8367 15.5303 81.791 15.5957C81.7491 15.66 81.0736 17.4976 80.2969 19.6777L78.8838 23.6436C84.1616 23.6637 85.7236 23.6585 85.75 23.6436C85.7585 23.61 85.1517 21.8639 84.3984 19.7383C83.6412 17.6064 82.9795 15.7825 82.9287 15.6865C82.8727 15.5806 82.7659 15.4744 82.6543 15.4189C82.5527 15.3736 82.4052 15.333 82.3291 15.333ZM46.2295 18.9199C46.7682 18.9199 46.9869 18.9408 47.2461 19.0166C47.429 19.0722 47.6777 19.1933 47.8047 19.2842C47.9317 19.3801 48.1096 19.5667 48.2012 19.7031C48.2927 19.8446 48.4205 20.1125 48.4814 20.3096C48.5627 20.5874 48.5879 20.7947 48.5879 21.2695C48.5879 21.7444 48.5628 21.9516 48.4814 22.2295C48.4205 22.4265 48.2929 22.6945 48.1963 22.8359C48.0997 22.9723 47.9116 23.164 47.7744 23.2549C47.6373 23.3458 47.4087 23.4566 47.2715 23.4971C47.1292 23.5375 46.7782 23.5884 46.4834 23.6035C46.1785 23.6187 45.8072 23.6084 45.6191 23.5781C45.4362 23.5478 45.182 23.4776 45.0449 23.417C44.9128 23.3614 44.6995 23.2197 44.5674 23.1035C44.4302 22.9772 44.2727 22.7598 44.1914 22.583C44.1101 22.4163 44.0188 22.1535 43.9883 22.002C43.9578 21.8403 43.942 21.4565 43.9522 21.0928C43.9674 20.7189 44.0088 20.3596 44.0596 20.208C44.1054 20.0665 44.2172 19.8444 44.3086 19.7031C44.4001 19.5667 44.5781 19.3801 44.7051 19.2842C44.8321 19.1933 45.0706 19.072 45.2383 19.0215C45.467 18.9508 45.7111 18.925 46.2295 18.9199ZM104.881 4.82422C105.12 4.82425 105.449 4.85986 105.617 4.90527C105.785 4.94569 106.06 5.05669 106.223 5.14258C106.39 5.23355 106.639 5.40598 106.776 5.53223C106.914 5.6586 107.117 5.89589 107.229 6.0625C107.335 6.2291 107.472 6.51151 107.528 6.69336C107.599 6.93072 107.625 7.16853 107.625 7.56738C107.625 7.99177 107.6 8.18438 107.514 8.45215C107.448 8.64413 107.29 8.94244 107.143 9.14453C106.975 9.37181 106.761 9.58836 106.532 9.75C106.334 9.89146 106.029 10.0583 105.846 10.124C105.648 10.1896 105.343 10.2505 105.084 10.2656C104.779 10.2858 104.55 10.2657 104.296 10.2051C104.103 10.1596 103.803 10.0487 103.641 9.96289C103.473 9.87195 103.208 9.68931 103.056 9.54785C102.903 9.4114 102.705 9.17455 102.608 9.0332C102.517 8.88675 102.385 8.59385 102.313 8.38672C102.217 8.09874 102.187 7.90083 102.187 7.56738C102.187 7.3201 102.222 6.99734 102.263 6.8457C102.303 6.69424 102.4 6.44164 102.477 6.29004C102.553 6.13855 102.746 5.87572 102.903 5.70898C103.061 5.54226 103.31 5.32451 103.463 5.22852C103.615 5.13255 103.9 5.00606 104.093 4.94043C104.342 4.86467 104.581 4.82927 104.881 4.82422ZM104.88 5.33398C104.727 5.33907 104.514 5.35954 104.412 5.38477C104.305 5.41024 104.077 5.50106 103.904 5.5918C103.726 5.67771 103.478 5.85518 103.351 5.98145C103.224 6.10763 103.061 6.31411 102.984 6.44043C102.913 6.56658 102.811 6.81427 102.766 6.99609C102.705 7.23344 102.69 7.43667 102.71 7.72949C102.735 8.04234 102.781 8.2098 102.913 8.4873C103.01 8.68905 103.193 8.9512 103.335 9.09277C103.472 9.23405 103.731 9.42162 103.914 9.5127C104.097 9.60356 104.392 9.69909 104.575 9.72949C104.824 9.77495 104.993 9.77491 105.262 9.72949C105.485 9.68905 105.749 9.59849 105.968 9.48242C106.161 9.38138 106.415 9.18897 106.537 9.05762C106.659 8.92116 106.832 8.67364 106.913 8.50195C106.999 8.32512 107.091 8.03725 107.116 7.85547C107.147 7.63832 107.147 7.41538 107.111 7.19824C107.081 7.01642 106.999 6.74414 106.923 6.59277C106.846 6.44116 106.669 6.18853 106.526 6.03711C106.384 5.88561 106.156 5.69779 106.019 5.62207C105.881 5.54637 105.632 5.45054 105.465 5.41016C105.297 5.36474 105.032 5.32894 104.88 5.33398ZM104.642 5.93555C105.5 5.93555 105.582 5.94101 105.79 6.04688C105.917 6.11241 106.059 6.21836 106.115 6.28906C106.166 6.35969 106.222 6.52663 106.237 6.66797C106.253 6.80426 106.242 7.00157 106.212 7.09766C106.181 7.19365 106.084 7.33535 106.003 7.41113C105.851 7.54686 105.851 7.5524 105.947 7.60254C106.003 7.62774 106.084 7.73426 106.125 7.83008C106.166 7.92598 106.201 8.13835 106.201 8.29492C106.206 8.45628 106.237 8.67868 106.277 8.79004C106.318 8.90015 106.354 9.00574 106.354 9.02734C106.354 9.0526 106.217 9.06836 106.049 9.06836C105.77 9.06834 105.739 9.05752 105.693 8.94141C105.663 8.87021 105.643 8.68821 105.643 8.53711C105.642 8.38573 105.607 8.17894 105.566 8.08301C105.526 7.98727 105.444 7.88089 105.389 7.85547C105.332 7.83027 105.066 7.80469 104.321 7.80469L104.296 9.04297L103.711 9.06836V5.93555H104.642ZM104.321 7.2998C105.362 7.2998 105.399 7.29486 105.516 7.17383C105.602 7.08807 105.642 6.99209 105.643 6.87109C105.643 6.74987 105.602 6.65325 105.516 6.56738C105.399 6.45138 105.357 6.44141 104.854 6.44141H104.321V7.2998Z" fill="white"/>
</svg>
