<svg width="124" height="32" viewBox="0 0 124 32" fill="none" xmlns="http://www.w3.org/2000/svg">
<g clip-path="url(#clip0_1025_22783)">
<mask id="mask0_1025_22783" style="mask-type:luminance" maskUnits="userSpaceOnUse" x="0" y="0" width="124" height="32">
<path d="M0 0H124V32H0V0Z" fill="white"/>
</mask>
<g mask="url(#mask0_1025_22783)">
<path d="M9.93561 10.7253C16.2822 10.7253 19.4548 14.1879 19.4548 21.1127V21.2039C19.3942 28.1276 16.2106 31.5898 9.90486 31.5898H1.24023V10.7253H9.93561ZM4.93258 27.9256H10.8204C12.4882 27.9256 13.7285 27.3775 14.5432 26.2794C15.356 25.1814 15.7631 23.4445 15.7631 21.0669C15.7631 16.6154 14.1254 14.3896 10.8507 14.3896H4.93258V27.9256Z" fill="#393280"/>
</g>
<mask id="mask1_1025_22783" style="mask-type:luminance" maskUnits="userSpaceOnUse" x="0" y="0" width="124" height="32">
<path d="M0 0H124V32H0V0Z" fill="white"/>
</mask>
<g mask="url(#mask1_1025_22783)">
<path d="M39.8352 23.6866C39.8352 24.878 39.6525 25.9574 39.2862 26.9272C38.9199 27.8953 38.3712 28.7239 37.639 29.4098C36.9069 30.0968 35.986 30.6317 34.8775 31.0151C33.7687 31.3985 32.4825 31.5898 31.0179 31.5898C29.5733 31.5898 28.3027 31.3985 27.2042 31.0151C26.1059 30.6317 25.18 30.0915 24.4279 29.3946C23.6753 28.698 23.1059 27.8657 22.719 26.897C22.3326 25.9276 22.1396 24.8678 22.1396 23.7162V10.7254H25.831V23.6036C25.831 24.873 26.2938 25.9106 27.2196 26.7172C28.1447 27.5234 29.4315 27.9256 31.0788 27.9256H31.1708C32.8184 27.9256 34.0582 27.5234 34.8926 26.7172C35.7267 25.9106 36.1441 24.873 36.1441 23.6036V10.7254H39.8352V23.6866Z" fill="#393280"/>
</g>
<mask id="mask2_1025_22783" style="mask-type:luminance" maskUnits="userSpaceOnUse" x="0" y="0" width="124" height="32">
<path d="M0 0H124V32H0V0Z" fill="white"/>
</mask>
<g mask="url(#mask2_1025_22783)">
<path d="M75.3481 31.5898C73.803 31.5898 72.45 31.379 71.2906 30.9542C70.1319 30.5302 69.16 29.9242 68.3764 29.1377C67.5943 28.3501 67.0089 27.4012 66.6229 26.2906C66.236 25.181 66.043 23.9393 66.043 22.5662V10.7256H69.7347V22.5761C69.7347 24.2686 70.2174 25.5838 71.1841 26.5206C72.1493 27.458 73.4976 27.9256 75.2265 27.9256H81.6337V31.5898H75.3481Z" fill="#393280"/>
</g>
<mask id="mask3_1025_22783" style="mask-type:luminance" maskUnits="userSpaceOnUse" x="0" y="0" width="124" height="32">
<path d="M0 0H124V32H0V0Z" fill="white"/>
</mask>
<g mask="url(#mask3_1025_22783)">
<path d="M115.101 31.5898C108.715 31.5898 105.522 28.118 105.522 21.1729V21.0824C105.542 14.1779 108.746 10.7256 115.133 10.7256H122.76V14.3895H114.186C112.518 14.3895 111.273 14.9338 110.449 16.0215C109.626 17.1091 109.213 18.8317 109.213 21.188C109.213 25.6807 110.862 27.9256 114.156 27.9256H122.729V31.5898H115.101Z" fill="#393280"/>
</g>
<mask id="mask4_1025_22783" style="mask-type:luminance" maskUnits="userSpaceOnUse" x="0" y="0" width="124" height="32">
<path d="M0 0H124V32H0V0Z" fill="white"/>
</mask>
<g mask="url(#mask4_1025_22783)">
<path d="M53.9985 10.7253C60.3334 10.7253 63.5312 14.1779 63.593 21.082V21.1729C63.593 28.1178 60.4052 31.5898 54.0292 31.5898H52.3788C46.0032 31.5898 42.8154 28.1178 42.8154 21.1729V21.082C42.8356 14.1779 46.0335 10.7253 52.4099 10.7253H53.9985ZM51.4691 14.3896C49.8051 14.3896 48.5617 14.9341 47.7401 16.0212C46.9181 17.1091 46.5072 18.8317 46.5072 21.188C46.5072 25.6806 48.1509 27.9256 51.4384 27.9256H54.9704C58.2573 27.9256 59.9008 25.6806 59.9008 21.188C59.9008 18.8317 59.4848 17.1091 58.6533 16.0212C57.8203 14.9341 56.5833 14.3896 54.9397 14.3896H51.4691Z" fill="#393280"/>
</g>
<mask id="mask5_1025_22783" style="mask-type:luminance" maskUnits="userSpaceOnUse" x="0" y="0" width="124" height="32">
<path d="M0 0H124V32H0V0Z" fill="white"/>
</mask>
<g mask="url(#mask5_1025_22783)">
<path d="M53.4046 18.5324H53.0049C51.4001 18.5324 50.5951 19.4009 50.5898 21.1386V21.1614C50.5898 22.909 51.3922 23.7832 52.9969 23.7832H53.4121C55.017 23.7832 55.8194 22.909 55.8194 21.1614V21.1386C55.8039 19.4009 54.9985 18.5324 53.4046 18.5324Z" fill="#393280"/>
</g>
<mask id="mask6_1025_22783" style="mask-type:luminance" maskUnits="userSpaceOnUse" x="0" y="0" width="124" height="32">
<path d="M0 0H124V32H0V0Z" fill="white"/>
</mask>
<g mask="url(#mask6_1025_22783)">
<path d="M90.1335 23.9231L93.3182 14.9953C93.4603 14.6116 93.7248 14.4199 94.1124 14.4199C94.4979 14.4199 94.7624 14.6116 94.9041 14.9953L98.0887 23.9231H90.1335ZM100.824 31.5898H104.729L98.1992 13.421C97.8737 12.5124 97.356 11.8362 96.6432 11.3918C95.9311 10.9474 95.0879 10.7256 94.1124 10.7256C93.1358 10.7256 92.2902 10.9474 91.5795 11.3918C90.8672 11.8362 90.348 12.5124 90.0228 13.421L83.4932 31.5898H87.3987L88.8885 27.4131H99.3337L100.824 31.5898Z" fill="#393280"/>
</g>
<mask id="mask7_1025_22783" style="mask-type:luminance" maskUnits="userSpaceOnUse" x="0" y="0" width="124" height="32">
<path d="M0 0H124V32H0V0Z" fill="white"/>
</mask>
<g mask="url(#mask7_1025_22783)">
<path d="M59.8433 0.412275C61.6679 0.412275 62.5901 1.40686 62.6061 3.39541V3.42126C62.6061 5.42237 61.6882 6.42188 59.8518 6.42188H59.3769C57.5405 6.42188 56.6221 5.42237 56.6221 3.42126V3.39541C56.6278 1.40686 57.5493 0.412275 59.3857 0.412275H59.8433ZM59.1146 1.46729C58.6353 1.46729 58.2772 1.62409 58.0405 1.93744C57.804 2.25104 57.6856 2.74717 57.6856 3.42569C57.6856 4.71984 58.1593 5.36674 59.1054 5.36674H60.1238C61.0702 5.36674 61.5436 4.71984 61.5436 3.42569C61.5436 2.74717 61.4233 2.25104 61.1842 1.93744C60.9441 1.62409 60.588 1.46729 60.1145 1.46729H59.1146Z" fill="#393280"/>
</g>
<mask id="mask8_1025_22783" style="mask-type:luminance" maskUnits="userSpaceOnUse" x="0" y="0" width="124" height="32">
<path d="M0 0H124V32H0V0Z" fill="white"/>
</mask>
<g mask="url(#mask8_1025_22783)">
<path d="M69.9199 0.412275H70.9831V6.42188H69.9199V0.412275Z" fill="#393280"/>
</g>
<mask id="mask9_1025_22783" style="mask-type:luminance" maskUnits="userSpaceOnUse" x="0" y="0" width="124" height="32">
<path d="M0 0H124V32H0V0Z" fill="white"/>
</mask>
<g mask="url(#mask9_1025_22783)">
<path d="M75.289 0.412275C77.1148 0.412275 78.036 1.40686 78.0533 3.39541V3.42126C78.0533 5.42237 77.1344 6.42188 75.2984 6.42188H74.8233C72.9868 6.42188 72.0684 5.42237 72.0684 3.42126V3.39541C72.0752 1.40686 72.9954 0.412275 74.8318 0.412275H75.289ZM74.5616 1.46729C74.0811 1.46729 73.7234 1.62409 73.4865 1.93744C73.25 2.25104 73.1325 2.74717 73.1325 3.42569C73.1325 4.71984 73.605 5.36674 74.5525 5.36674H75.5695C76.5169 5.36674 76.9897 4.71984 76.9897 3.42569C76.9897 2.74717 76.87 2.25104 76.6307 1.93744C76.3904 1.62409 76.0336 1.46729 75.5607 1.46729H74.5616Z" fill="#393280"/>
</g>
<mask id="mask10_1025_22783" style="mask-type:luminance" maskUnits="userSpaceOnUse" x="0" y="0" width="124" height="32">
<path d="M0 0H124V32H0V0Z" fill="white"/>
</mask>
<g mask="url(#mask10_1025_22783)">
<path d="M81.4121 6.42188H80.3479V1.46741H78.8545V0.412275H82.817V1.46741H81.4121V6.42188Z" fill="#393280"/>
</g>
<mask id="mask11_1025_22783" style="mask-type:luminance" maskUnits="userSpaceOnUse" x="0" y="0" width="124" height="32">
<path d="M0 0H124V32H0V0Z" fill="white"/>
</mask>
<g mask="url(#mask11_1025_22783)">
<path d="M84.0938 0.412275H85.1571V6.42188H84.0938V0.412275Z" fill="#393280"/>
</g>
<mask id="mask12_1025_22783" style="mask-type:luminance" maskUnits="userSpaceOnUse" x="0" y="0" width="124" height="32">
<path d="M0 0H124V32H0V0Z" fill="white"/>
</mask>
<g mask="url(#mask12_1025_22783)">
<path d="M89.0013 6.42188C87.162 6.42188 86.2422 5.42224 86.2422 3.42138V3.39541C86.2478 1.40674 87.1706 0.412275 89.0106 0.412275H91.207V1.46741H88.7382C88.2571 1.46741 87.8981 1.62397 87.661 1.93732C87.4238 2.25092 87.305 2.74717 87.305 3.42557C87.305 4.71972 87.7793 5.36637 88.7286 5.36637H91.1977V6.42188H89.0013Z" fill="#393280"/>
</g>
<mask id="mask13_1025_22783" style="mask-type:luminance" maskUnits="userSpaceOnUse" x="0" y="0" width="124" height="32">
<path d="M0 0H124V32H0V0Z" fill="white"/>
</mask>
<g mask="url(#mask13_1025_22783)">
<path d="M97.5663 4.66914C97.5663 5.25055 97.3981 5.68772 97.0616 5.98163C96.7244 6.27554 96.2546 6.42188 95.651 6.42188H92.5397V5.36661H95.853C96.0398 5.36661 96.1958 5.29609 96.3182 5.15443C96.4426 5.01264 96.5031 4.84132 96.5031 4.63824C96.5031 4.44723 96.4426 4.28157 96.3182 4.13978C96.1958 3.998 96.0398 3.92797 95.853 3.92797H94.1485C93.797 3.92797 93.4997 3.87504 93.256 3.77068C93.0131 3.66544 92.8171 3.52883 92.6674 3.36021C92.5174 3.1916 92.4096 3.00464 92.3419 2.79812C92.2742 2.59123 92.2412 2.38618 92.2412 2.18348C92.2412 1.93831 92.2764 1.71012 92.3474 1.49794C92.4178 1.28575 92.5316 1.09843 92.688 0.935845C92.8448 0.773014 93.0434 0.644891 93.285 0.551968C93.5257 0.458675 93.8171 0.412152 94.1564 0.412152H97.1798V1.46741H93.9897C93.8965 1.46741 93.8082 1.48698 93.7262 1.5244C93.6443 1.56255 93.5724 1.61264 93.511 1.67701C93.4492 1.74052 93.3994 1.81535 93.3622 1.89917C93.3231 1.98397 93.3048 2.07246 93.3048 2.16563C93.3048 2.36304 93.3716 2.53068 93.5065 2.66704C93.6409 2.80403 93.8036 2.87246 93.9974 2.87246H95.6725C96.2574 2.87246 96.7181 3.01892 97.0576 3.31258C97.3978 3.60588 97.5663 4.04329 97.5663 4.62544V4.66914Z" fill="#393280"/>
</g>
<mask id="mask14_1025_22783" style="mask-type:luminance" maskUnits="userSpaceOnUse" x="0" y="0" width="124" height="32">
<path d="M0 0H124V32H0V0Z" fill="white"/>
</mask>
<g mask="url(#mask14_1025_22783)">
<path d="M49.6588 1.49794C49.586 1.28575 49.4715 1.09843 49.3158 0.935844C49.1603 0.772768 48.962 0.645383 48.7219 0.551845C48.4805 0.458798 48.1932 0.412398 47.8582 0.412398H44.8301V1.46754H44.8308V4.60514C44.8308 4.61203 44.8301 4.61831 44.8301 4.62569V6.42188H45.8936V4.64243C45.8936 4.45055 45.957 4.28341 46.083 4.14138C46.2088 3.99886 46.3663 3.92748 46.5542 3.92748H47.8582C48.2041 3.92748 48.4992 3.87664 48.7428 3.77461C48.9864 3.67344 49.1851 3.53892 49.3375 3.37314C49.4904 3.20797 49.6 3.02052 49.6679 2.81104C49.7354 2.60157 49.7689 2.39246 49.7689 2.18323C49.7689 1.93855 49.7322 1.71037 49.6588 1.49794ZM48.5038 2.66643C48.3688 2.80366 48.2046 2.87197 48.0114 2.87197H46.7372C46.4189 2.87197 46.1377 2.91677 45.8908 3.00366V1.46754H48.0207C48.1142 1.46754 48.202 1.48661 48.2842 1.52391C48.3661 1.56267 48.4379 1.61277 48.4992 1.67701C48.5612 1.74077 48.6103 1.81548 48.6485 1.89941C48.687 1.98384 48.7059 2.07258 48.7059 2.166C48.7059 2.36329 48.6379 2.5308 48.5038 2.66643Z" fill="#393280"/>
</g>
<mask id="mask15_1025_22783" style="mask-type:luminance" maskUnits="userSpaceOnUse" x="0" y="0" width="124" height="32">
<path d="M0 0H124V32H0V0Z" fill="white"/>
</mask>
<g mask="url(#mask15_1025_22783)">
<path d="M68.0259 3.39443C68.2616 3.25474 68.4334 3.07135 68.5404 2.84501C68.6458 2.61769 68.6992 2.39701 68.6992 2.18261C68.6992 1.93203 68.6655 1.69978 68.5978 1.48464C68.5297 1.26901 68.4195 1.08157 68.2652 0.921568C68.1116 0.761322 67.9128 0.636399 67.6687 0.546061C67.4234 0.456953 67.129 0.411291 66.7833 0.411291H64.8154V0.41006H63.7559V6.42188H64.8154V6.42089H66.7833C67.1347 6.42089 67.432 6.37031 67.673 6.2684C67.9148 6.16674 68.1116 6.03308 68.2652 5.86754C68.4195 5.70163 68.5297 5.51135 68.5978 5.29609C68.6655 5.08108 68.6992 4.86286 68.6992 4.64181C68.6992 4.39763 68.6458 4.16354 68.5404 3.93991C68.4334 3.71603 68.2616 3.53388 68.0259 3.39443ZM67.4436 5.158C67.3145 5.29609 67.1469 5.36575 66.9415 5.36575H64.8154V3.92698H66.9496C67.0447 3.92698 67.132 3.9452 67.215 3.98298C67.2966 4.01991 67.368 4.07111 67.4287 4.13424C67.4906 4.19861 67.54 4.27197 67.5784 4.35591C67.6171 4.4396 67.6367 4.52809 67.6367 4.62003C67.6367 4.84058 67.5708 5.01929 67.4436 5.158ZM67.4436 2.66618C67.3145 2.80317 67.1469 2.87135 66.9415 2.87135H64.8154V1.46643H66.9496C67.0447 1.46643 67.132 1.48588 67.215 1.52341C67.2966 1.56169 67.368 1.61178 67.4287 1.67603C67.4906 1.74028 67.54 1.81449 67.5784 1.89831C67.6171 1.98311 67.6367 2.07148 67.6367 2.16489C67.6367 2.36218 67.5708 2.52969 67.4436 2.66618Z" fill="#393280"/>
</g>
<mask id="mask16_1025_22783" style="mask-type:luminance" maskUnits="userSpaceOnUse" x="0" y="0" width="124" height="32">
<path d="M0 0H124V32H0V0Z" fill="white"/>
</mask>
<g mask="url(#mask16_1025_22783)">
<path d="M54.6289 3.79449C54.6474 3.78784 54.6665 3.78107 54.6846 3.77369C54.9275 3.67239 55.1256 3.53812 55.2783 3.37221C55.4313 3.20692 55.5407 3.01972 55.6086 2.81012C55.6759 2.60064 55.7098 2.39153 55.7098 2.18243C55.7098 1.93775 55.6726 1.70944 55.5998 1.49701C55.5268 1.28495 55.4116 1.0975 55.2563 0.935041C55.1008 0.771842 54.9031 0.644087 54.662 0.551041C54.4216 0.457872 54.1339 0.411472 53.7993 0.411472H50.7705V1.46661H50.7715V6.42969H51.8318V1.46661H53.9614C54.0548 1.46661 54.1423 1.48569 54.2247 1.52298C54.3069 1.56175 54.3784 1.61172 54.4399 1.67621C54.5013 1.73984 54.5509 1.81467 54.5891 1.89849C54.6275 1.9828 54.6465 2.07166 54.6465 2.16519C54.6465 2.36224 54.5793 2.52987 54.4445 2.66563C54.3095 2.80273 54.1457 2.87116 53.9525 2.87116H52.2256V3.92655C54.511 3.92655 54.6317 6.42846 54.6317 6.42846H55.7098C55.7098 5.14046 55.231 4.31953 54.6289 3.79449Z" fill="#393280"/>
</g>
<mask id="mask17_1025_22783" style="mask-type:luminance" maskUnits="userSpaceOnUse" x="0" y="0" width="124" height="32">
<path d="M0 0H124V32H0V0Z" fill="white"/>
</mask>
<g mask="url(#mask17_1025_22783)">
<path d="M119.675 3.1905C121.333 3.1905 122.678 4.52416 122.678 6.1713C122.678 7.81831 121.333 9.15234 119.675 9.15234C118.016 9.15234 116.673 7.81831 116.672 6.1713C116.673 4.52416 118.016 3.1905 119.675 3.1905ZM119.675 3.6865C118.292 3.6892 117.176 4.79997 117.172 6.1713C117.176 7.54348 118.292 8.6529 119.675 8.6561C121.057 8.6529 122.175 7.54348 122.179 6.1713C122.175 4.79997 121.057 3.6892 119.675 3.6865Z" fill="#393280"/>
</g>
<mask id="mask18_1025_22783" style="mask-type:luminance" maskUnits="userSpaceOnUse" x="0" y="0" width="124" height="32">
<path d="M0 0H124V32H0V0Z" fill="white"/>
</mask>
<g mask="url(#mask18_1025_22783)">
<path d="M118.369 7.78125V4.41473H119.989C120.356 4.41473 120.636 4.49473 120.825 4.65337C121.016 4.8114 121.11 5.03553 121.11 5.32463C121.11 5.76168 120.924 6.04365 120.549 6.17362V6.18273C120.885 6.2306 121.053 6.4679 121.053 6.89534C121.053 7.3538 121.115 7.64919 121.238 7.78125H120.602C120.541 7.6839 120.511 7.51947 120.511 7.28648C120.511 6.96303 120.467 6.7362 120.378 6.60759C120.28 6.46605 120.1 6.39553 119.837 6.39553H118.963V7.78125H118.369ZM118.963 4.89657V5.94765H119.937C120.323 5.94765 120.516 5.76808 120.516 5.41005C120.516 5.06691 120.319 4.89657 119.928 4.89657H118.963Z" fill="#393280"/>
</g>
</g>
<defs>
<clipPath id="clip0_1025_22783">
<rect width="124" height="32" fill="white"/>
</clipPath>
</defs>
</svg>
