<svg width="124" height="24" viewBox="0 0 124 24" fill="none" xmlns="http://www.w3.org/2000/svg">
<g clip-path="url(#clip0_352_3420)">
<path d="M117.936 22.9466H106.467V1.3573H117.643C119.794 1.3573 121.437 1.82663 122.571 2.7653C123.725 3.70397 124.301 5.04352 124.301 6.78397C124.301 9.09152 123.519 10.7929 121.955 11.888C122.796 12.3377 123.402 12.9831 123.773 13.824C124.145 14.6649 124.331 15.848 124.331 17.3733C124.331 18.1164 124.194 18.8302 123.92 19.5146C123.646 20.1991 123.236 20.7955 122.688 21.304C122.141 21.8124 121.476 22.2133 120.693 22.5066C119.911 22.8 118.992 22.9466 117.936 22.9466ZM117.672 4.3493H109.723V10.2453H117.672C118.845 10.2453 119.716 9.9813 120.283 9.4533C120.869 8.90574 121.163 8.21152 121.163 7.37063C121.163 6.45152 120.869 5.71819 120.283 5.17063C119.716 4.62308 118.845 4.3493 117.672 4.3493ZM117.672 13.384H109.723V19.9546H117.672C118.845 19.9546 119.716 19.632 120.283 18.9866C120.869 18.2826 121.163 17.5493 121.163 16.7866C121.163 15.8675 120.86 15.0755 120.253 14.4106C119.686 13.7262 118.826 13.384 117.672 13.384Z" fill="#393280"/>
<path d="M98.7817 15.232L95.4963 5.46398V5.49331C95.3986 5.29776 95.2715 5.1022 95.115 4.90665C94.9781 4.69153 94.8021 4.58398 94.587 4.58398C94.4306 4.58398 94.2741 4.65242 94.1177 4.78931C93.9808 4.90664 93.8928 5.03376 93.8537 5.17065L90.4217 15.232H98.7817ZM99.867 18.4H89.3657C89.1115 19.1431 88.8572 19.9058 88.603 20.688C88.3488 21.4702 88.1043 22.2231 87.8697 22.9466H84.291L90.715 4.02664C90.8324 3.67464 90.9986 3.32264 91.2137 2.97064C91.4288 2.61864 91.6928 2.31553 92.0057 2.06131C92.3186 1.78753 92.6901 1.57242 93.1204 1.41598C93.5506 1.23998 94.0492 1.15198 94.6164 1.15198C95.1248 1.15198 95.5844 1.23998 95.995 1.41598C96.4057 1.57242 96.7675 1.78753 97.0804 2.06131C97.4128 2.31553 97.6866 2.61864 97.9017 2.97064C98.1364 3.32264 98.3124 3.67464 98.4297 4.02664L105 22.9466H101.392L99.867 18.4Z" fill="#393280"/>
<path d="M74.692 19.8373H82.5533V22.9466H75.1613C72.1693 22.9466 69.9595 22.184 68.532 20.6586C67.1044 19.1137 66.3906 16.904 66.3906 14.0293V1.3573H69.8813V14.968C69.8813 15.9653 70.0377 16.7769 70.3506 17.4026C70.6831 18.0089 71.1035 18.4977 71.612 18.8693C72.1204 19.2409 72.6484 19.4951 73.196 19.632C73.7435 19.7689 74.2422 19.8373 74.692 19.8373Z" fill="#393280"/>
<path d="M53.1988 20.0426C55.8388 20.0426 57.6966 19.3875 58.7721 18.0773C59.8672 16.728 60.4148 14.7724 60.4148 12.2106C60.4148 10.8026 60.2877 9.59998 60.0335 8.60264C59.7792 7.60531 59.3686 6.79376 58.8014 6.16798C58.2343 5.5422 57.4912 5.08264 56.5721 4.78931C55.653 4.49598 54.5286 4.34931 53.1988 4.34931C51.8494 4.34931 50.7152 4.49598 49.7961 4.78931C48.8966 5.08264 48.1632 5.5422 47.5961 6.16798C47.029 6.7742 46.6281 7.57598 46.3934 8.57331C46.1588 9.57065 46.0414 10.7831 46.0414 12.2106C46.0414 14.7333 46.5694 16.6889 47.6254 18.0773C48.173 18.6835 48.9161 19.1626 49.8548 19.5146C50.7934 19.8666 51.9081 20.0426 53.1988 20.0426ZM53.1988 1.15198C55.0566 1.15198 56.6601 1.36709 58.0095 1.79731C59.3588 2.20798 60.4637 2.86309 61.3241 3.76264C62.2041 4.6622 62.8495 5.8062 63.2601 7.19464C63.6903 8.58309 63.9055 10.2551 63.9055 12.2106C63.9055 13.9902 63.7001 15.5644 63.2894 16.9333C62.8983 18.2826 62.2628 19.4169 61.3828 20.336C60.5223 21.2355 59.4174 21.92 58.0681 22.3893C56.7188 22.8586 55.0957 23.0933 53.1988 23.0933C51.3019 23.0933 49.6788 22.8586 48.3294 22.3893C46.9801 21.92 45.8752 21.2355 45.0148 20.336C44.1739 19.4169 43.5481 18.2826 43.1375 16.9333C42.7463 15.5644 42.5508 13.9902 42.5508 12.2106C42.5508 8.33865 43.3917 5.53242 45.0735 3.79198C46.7748 2.03198 49.4832 1.15198 53.1988 1.15198Z" fill="#393280"/>
<path d="M30.939 23.0346C29.6092 23.0542 28.3967 22.8977 27.3016 22.5653C26.2065 22.2329 25.2483 21.6951 24.427 20.952C23.6252 20.2284 22.9994 19.2604 22.5496 18.048C22.1194 16.8355 21.9043 15.3395 21.9043 13.56V1.3573H25.1896V14.352C25.1896 15.3884 25.3363 16.2684 25.6296 16.992C25.923 17.7155 26.3239 18.3022 26.8323 18.752C27.3407 19.2017 27.9372 19.5342 28.6216 19.7493C29.3061 19.9449 30.0687 20.0426 30.9096 20.0426C31.7114 20.0426 32.4643 19.9449 33.1683 19.7493C33.8723 19.5537 34.4883 19.2311 35.0163 18.7813C35.5247 18.3315 35.9354 17.7449 36.2483 17.0213C36.5612 16.2977 36.7176 15.408 36.7176 14.352V1.3573H40.003V13.56C39.9834 15.4569 39.7292 17.0115 39.2403 18.224C38.771 19.4364 38.1159 20.4142 37.275 21.1573V21.128C36.4536 21.8515 35.4954 22.3502 34.4003 22.624C33.3052 22.9173 32.1514 23.0542 30.939 23.0346Z" fill="#393280"/>
<path d="M15.9038 12.152C15.9038 11.3502 15.8158 10.4995 15.6398 9.59997C15.4638 8.70041 15.1802 7.87908 14.7891 7.13597C14.398 6.39286 13.8602 5.77686 13.1758 5.28797C12.5109 4.79908 11.6505 4.55463 10.5945 4.55463H3.90646V19.7786H10.5945C11.6505 19.7786 12.5109 19.544 13.1758 19.0746C13.8602 18.5857 14.398 17.9795 14.7891 17.256C15.1802 16.4933 15.4638 15.6622 15.6398 14.7626C15.8158 13.8631 15.9038 12.9929 15.9038 12.152ZM0.591797 22.9466V1.3573H9.89046C11.7091 1.3573 13.2247 1.63108 14.4371 2.17863C15.6496 2.70663 16.6274 3.4693 17.3705 4.46663C18.1136 5.44441 18.6318 6.58841 18.9251 7.89863C19.238 9.1893 19.3945 10.6071 19.3945 12.152C19.3945 13.7164 19.238 15.1537 18.9251 16.464C18.6122 17.7742 18.094 18.9084 17.3705 19.8666C16.6274 20.8444 15.6496 21.5973 14.4371 22.1253C13.2442 22.6729 11.7287 22.9466 9.89046 22.9466H0.591797Z" fill="#393280"/>
<path d="M51.8259 10.0911C51.9691 9.99413 52.2383 9.8648 52.4274 9.81091C52.6851 9.73546 52.9601 9.70851 53.5443 9.70312C54.1515 9.70312 54.3978 9.72468 54.69 9.80552C54.8962 9.8648 55.1768 9.99413 55.32 10.0911C55.4632 10.1935 55.6637 10.3929 55.7668 10.5384C55.8699 10.6893 56.0131 10.9749 56.0819 11.1851C56.1735 11.4815 56.2022 11.7025 56.2022 12.209C56.2022 12.7156 56.1735 12.9365 56.0819 13.2329C56.0131 13.4431 55.8699 13.7287 55.7611 13.8796C55.6523 14.0251 55.4403 14.2299 55.2857 14.3269C55.131 14.4239 54.8733 14.5425 54.7186 14.5856C54.5582 14.6287 54.163 14.6826 53.8307 14.6987C53.4871 14.7149 53.0689 14.7041 52.857 14.6718C52.6507 14.6395 52.3643 14.564 52.2097 14.4994C52.0608 14.4401 51.8202 14.2892 51.6712 14.1652C51.5166 14.0305 51.339 13.7988 51.2474 13.6102C51.1557 13.4323 51.0526 13.1521 51.0182 12.9904C50.9839 12.818 50.9667 12.4084 50.9781 12.0204C50.9953 11.6216 51.0412 11.239 51.0984 11.0773C51.15 10.9264 51.276 10.6893 51.3791 10.5384C51.4822 10.3929 51.6827 10.1935 51.8259 10.0911Z" fill="white"/>
</g>
<defs>
<clipPath id="clip0_352_3420">
<rect width="125.333" height="24" fill="white" transform="translate(-0.666016)"/>
</clipPath>
</defs>
</svg>
