<svg width="170" height="32" viewBox="0 0 170 32" fill="none" xmlns="http://www.w3.org/2000/svg">
<path d="M157.897 31.2152H164.461L164.357 31.0095L163.262 30.9714C161.804 30.9409 161.841 30.8342 161.841 30.56V23.0857C162.833 19.2609 163.565 17.76 165.156 17.4171C165.223 18.7428 165.881 19.3981 166.614 19.3981C167.48 19.3981 167.976 18.6133 167.976 17.8971C167.976 17.1123 167.376 16.3276 166.214 16.3276C164.128 16.3276 162.67 18.7504 161.774 22.3695H161.737L161.871 16.3962L157.897 17.4552L157.86 17.5923L158.622 17.6914C159.747 17.7904 159.976 18.2704 159.976 20.3885V30.4914C159.976 30.9028 159.606 30.9028 158.578 30.9714L157.986 31.0095L157.897 31.2152ZM153.745 31.52C155.003 31.52 155.795 30.1866 156.424 29.4704L156.261 29.3638C155.766 29.9123 155.203 30.3923 154.67 30.3923C154.004 30.3923 153.575 30.1866 153.642 29.0971L153.975 20.8381C154.145 17.2876 152.621 16.3352 150.26 16.3352C147.877 16.3352 144.296 18.3847 144.296 19.9543C144.296 20.8381 144.821 21.2495 145.554 21.2495C146.316 21.2495 146.812 20.6323 146.812 20.0228C146.812 19.1314 146.02 18.7581 146.02 18.5219C146.02 18.0419 147.574 16.9828 149.032 16.9828C150.46 16.9828 152.347 17.6 152.184 21.0438L152.117 23.0552C146.183 24.6552 144.399 26.1638 144.399 28.4114C144.399 30.08 145.628 31.4819 147.618 31.4819C149.076 31.4819 150.534 30.4609 151.895 29.2647V29.3333C151.925 30.5981 152.82 31.52 153.745 31.52ZM148.676 30.3923C147.152 30.3923 146.323 29.4704 146.323 27.9009C146.323 26.2247 146.952 24.7238 152.125 23.3981L151.962 28.8609C151.126 29.6076 149.934 30.3923 148.676 30.3923ZM135.985 31.619C138.635 31.619 140.292 30.0114 141.683 27.5885L141.447 27.4819C140.189 29.4628 138.931 30.2857 136.77 30.2857C133.817 30.2857 131.464 27.3828 131.464 23.2914C131.464 22.6742 131.568 21.9581 131.627 21.4095L141.276 21.4476C141.313 21.1733 141.343 21.1047 141.343 20.9371C141.343 18.6133 139.552 16.3276 136.244 16.3276C132.1 16.3276 129.444 19.9771 129.444 24.2819C129.451 28.3123 132.367 31.619 135.985 31.619ZM131.708 21.0819C132.374 18.5219 134.224 16.6781 136.052 16.6781C138.146 16.6781 139.204 18.659 139.204 21.0438L131.708 21.0819ZM121.23 31.2152H127.335L127.231 31.0095L126.765 30.9714C125.241 30.9028 125.107 30.8342 125.107 30.56V8.24377L121.2 9.19616L121.163 9.3333L121.896 9.40187C123.087 9.56949 123.25 9.98092 123.25 12.099V30.4914C123.25 30.9028 122.887 30.9028 121.859 30.9714L121.296 31.0095L121.23 31.2152ZM110.559 31.6952C112.949 31.6952 115.369 30.9104 116.694 30.1943L117.855 29.9581L119.054 25.0438H118.854L118.026 26.4762C116.331 29.6152 114.481 31.3904 110.537 31.3904C105.098 31.3904 101.649 26.9562 101.649 20.4419C101.649 14.1943 105.061 9.69139 110.7 9.69139C112.92 9.69139 114.844 10.4762 115.702 11.1923L118.122 15.9314H118.322L117.892 10.0952L116.264 10.88C114.91 10.0647 113.053 9.37901 110.663 9.37901C103.966 9.37901 99.2888 14.1562 99.2888 20.7085C99.2888 27.2533 103.958 31.6952 110.559 31.6952ZM85.9318 30.9714C80.1524 30.9714 76.2378 25.9962 76.2378 20.5257V20.4647C76.2378 14.9638 80.0636 10.08 85.88 10.08C91.6594 10.08 95.574 15.0552 95.574 20.5181V20.579C95.574 26.08 91.7482 30.9714 85.9318 30.9714ZM85.9022 31.5809C92.1922 31.5809 96.2252 26.3923 96.2252 20.5562V20.4952C96.2252 14.659 92.1922 9.47044 85.9022 9.47044C79.6196 9.47044 75.5792 14.6666 75.5792 20.4952V20.5562C75.5866 26.3923 79.6196 31.5809 85.9022 31.5809ZM66.0998 31.2152H66.751V10.4533H74.2546V9.84377H58.5962V10.4533H66.0998V31.2152ZM48.5766 31.5809C52.2248 31.5809 54.8296 29.8971 56.6426 27.9466L56.169 27.4895C54.504 29.3181 51.988 30.9714 48.6062 30.9714C43.145 30.9714 39.0824 26.2019 39.0824 20.5562V20.4952C39.0824 14.9028 43.0858 10.08 48.6062 10.08C52.3136 10.08 54.4152 11.6647 56.0802 13.3181L56.5242 12.8609C54.5928 10.9638 52.5504 9.47044 48.6358 9.47044C42.701 9.47044 38.4312 14.5066 38.4312 20.5257V20.5866C38.4312 26.6362 42.7306 31.5809 48.5766 31.5809ZM19.8942 24.1904L26.2138 10.5752L32.5334 24.1904H19.8942ZM15.9574 31.2152H16.6382L19.6056 24.8H32.8294L35.7968 31.2152H36.5072L26.5172 9.68377H25.9474L15.9574 31.2152ZM0.617188 31.2152H14.026V30.6057H1.27579V9.83616H0.617188V31.2152Z" fill="#393280" stroke="#393280" stroke-width="0.5" stroke-miterlimit="10"/>
<path d="M163.262 14.9257H163.58V10.9791L165.327 13.5924H165.349L167.095 10.9791V14.9257H167.421V10.3848H167.11L165.342 13.0743L163.573 10.3848H163.262V14.9257ZM159.518 14.9257H159.843V10.6971H161.383V10.3848H157.979V10.6971H159.518V14.9257Z" fill="#393280" stroke="#393280" stroke-width="0.5" stroke-miterlimit="10"/>
<path d="M53.1645 5.30291V5.76005H47.6367V5.30291H53.1645ZM47.9697 3.55053L47.6663 3.16958C47.9993 3.04767 48.3027 2.88767 48.5913 2.68196C48.8799 2.47624 49.1315 2.24005 49.3609 1.97339C49.5829 1.70672 49.7679 1.4172 49.9233 1.0972C50.0787 0.777196 50.1823 0.441958 50.2415 0.0838623L50.7225 0.18291C50.6929 0.335291 50.6633 0.487672 50.6189 0.632434C50.5745 0.777196 50.5301 0.921958 50.4709 1.0591C50.7817 1.50101 51.1739 1.88958 51.6327 2.2172C52.0915 2.54482 52.5947 2.78862 53.1275 2.95624L52.8685 3.35243C52.3727 3.19243 51.8917 2.94862 51.4255 2.62101C50.9593 2.29339 50.5745 1.92767 50.2489 1.52386C49.9899 1.98862 49.6569 2.40005 49.2573 2.75053C48.8577 3.10101 48.4285 3.37529 47.9697 3.55053Z" fill="#393280"/>
<path d="M53.9192 0.213386H56.8274V0.563862C56.8274 0.990529 56.7534 1.3791 56.598 1.7372C56.4426 2.09529 56.2354 2.40767 55.969 2.68196C55.7026 2.95624 55.3992 3.17719 55.044 3.36005C54.6888 3.54291 54.3114 3.67243 53.9044 3.741L53.6602 3.32196C54.156 3.23815 54.5926 3.09339 54.97 2.87243C55.3474 2.6591 55.6508 2.38481 55.8728 2.06481H53.9192V1.62291H56.117C56.1762 1.47815 56.228 1.32577 56.265 1.16577C56.302 1.00577 56.3242 0.838148 56.3316 0.66291H53.9192V0.213386ZM58.9142 5.50862V5.96576H54.1042V4.09148H54.5926V5.50862H58.9142ZM58.7736 0.0838623V4.55624H58.2852V0.0838623H58.7736Z" fill="#393280"/>
<path d="M64.2941 0.213386V5.76005H61.5117V0.213386H64.2941ZM62.0001 5.30291H63.8057V0.66291H62.0001V5.30291ZM66.2403 2.9791V6.03434H65.7519V0.0838623H66.2403V2.52196H67.0913V2.9791H66.2403Z" fill="#393280"/>
<path d="M67.4844 4.01529V1.95815C67.4844 1.35624 67.625 0.906719 67.8988 0.601957C68.1726 0.297196 68.5352 0.144815 68.9792 0.144815C69.4158 0.144815 69.7784 0.297196 70.0596 0.601957C70.3408 0.906719 70.4814 1.35624 70.4814 1.95815V4.01529C70.4814 4.61719 70.3408 5.06672 70.067 5.36386C69.7932 5.661 69.4306 5.81339 69.0014 5.81339C68.5574 5.81339 68.1948 5.66862 67.9136 5.37148C67.625 5.08196 67.4844 4.62481 67.4844 4.01529ZM67.9654 1.95815V4.01529C67.9654 4.48767 68.0542 4.83053 68.2318 5.04386C68.4094 5.25719 68.6536 5.36386 68.9792 5.36386C69.2974 5.36386 69.549 5.25719 69.7192 5.04386C69.8894 4.83053 69.9782 4.48767 69.9782 4.01529V1.95815C69.9782 1.49339 69.8894 1.15053 69.7192 0.929576C69.549 0.708624 69.2974 0.601957 68.9792 0.601957C68.661 0.601957 68.4094 0.708624 68.2318 0.929576C68.0542 1.15053 67.9654 1.49339 67.9654 1.95815ZM72.3906 0.0838623V6.03434H71.9022V0.0838623H72.3906Z" fill="#393280"/>
<path d="M78.813 5.30295V5.7601H73.2852V5.30295H78.813ZM78.48 4.64772H77.999V3.02486H73.6108V2.57533H77.999V0.662953H73.6108V0.205811H78.48V4.64772Z" fill="#393280"/>
<path d="M84.8286 5.29533V5.75248H79.3008V5.29533H81.8316V4.13724H82.3126V5.30295H84.8286V5.29533ZM84.5622 3.30676V3.76391H79.6264V1.75248H84.0146V0.662953H79.6264V0.205811H84.4956V2.20962H80.1148V3.31438H84.5622V3.30676Z" fill="#393280"/>
<path d="M88.3742 0.213386V5.76005H85.5918V0.213386H86.0802V2.25529H87.8858V0.213386H88.3742ZM86.0802 5.30291H87.8858V2.70481H86.0802V5.30291ZM90.3204 2.9791V6.03434H89.832V0.0838623H90.3204V2.52196H91.1714V2.9791H90.3204Z" fill="#393280"/>
<path d="M91.5625 4.01529V1.95815C91.5625 1.35624 91.7031 0.906719 91.9769 0.601957C92.2507 0.297196 92.6133 0.144815 93.0573 0.144815C93.4939 0.144815 93.8565 0.297196 94.1377 0.601957C94.4189 0.906719 94.5595 1.35624 94.5595 1.95815V4.01529C94.5595 4.61719 94.4189 5.06672 94.1451 5.36386C93.8639 5.661 93.5087 5.81339 93.0795 5.81339C92.6355 5.81339 92.2729 5.66862 91.9917 5.37148C91.7031 5.08196 91.5625 4.62481 91.5625 4.01529ZM92.0435 1.95815V4.01529C92.0435 4.48767 92.1323 4.83053 92.3099 5.04386C92.4875 5.25719 92.7317 5.36386 93.0573 5.36386C93.3755 5.36386 93.6271 5.25719 93.7973 5.04386C93.9675 4.83053 94.0563 4.48767 94.0563 4.01529V1.95815C94.0563 1.49339 93.9675 1.15053 93.7973 0.929576C93.6197 0.708624 93.3755 0.601957 93.0573 0.601957C92.7391 0.601957 92.4875 0.708624 92.3099 0.929576C92.1323 1.15053 92.0435 1.49339 92.0435 1.95815ZM96.4613 0.0838623V6.03434H95.9729V0.0838623H96.4613Z" fill="#393280"/>
<path d="M97.3574 3.38293V2.93341H99.8438V2.28579H99.0668C98.6006 2.28579 98.2454 2.19436 97.9938 2.00388C97.7422 1.82103 97.6164 1.54674 97.6164 1.18865C97.6164 0.861026 97.7422 0.594359 97.9938 0.396264C98.2454 0.198169 98.6006 0.0991211 99.0668 0.0991211H101.176C101.642 0.0991211 101.997 0.198169 102.249 0.396264C102.5 0.594359 102.626 0.861026 102.626 1.18865C102.626 1.54674 102.5 1.82103 102.249 2.00388C101.997 2.19436 101.642 2.28579 101.176 2.28579H100.332V2.93341H102.885V3.38293H97.3574ZM97.6904 5.96579V4.00007H102.56V5.96579H97.6904ZM101.176 0.548645H99.0668C98.756 0.548645 98.5266 0.609597 98.3638 0.723883C98.201 0.838169 98.1196 0.998169 98.1196 1.19626C98.1196 1.40198 98.1936 1.55436 98.349 1.66865C98.5044 1.78293 98.7412 1.84388 99.0594 1.84388H101.168C101.487 1.84388 101.723 1.78293 101.879 1.66865C102.034 1.55436 102.108 1.39436 102.108 1.19626C102.108 0.998169 102.034 0.838169 101.879 0.723883C101.738 0.609597 101.501 0.548645 101.176 0.548645ZM102.079 5.51626V4.44198H98.1788V5.51626H102.079Z" fill="#393280"/>
<path d="M107.931 2.52196H110.477V2.9791H104.949V2.52196H107.436V1.661H107.931V2.52196ZM107.547 0.0838623C107.584 0.0914813 107.628 0.0991004 107.665 0.114338C107.702 0.121958 107.746 0.129577 107.791 0.144815C107.828 0.160053 107.872 0.167672 107.917 0.18291C107.961 0.190529 108.005 0.198148 108.05 0.205767C108.02 0.266719 107.991 0.327672 107.961 0.388624C107.931 0.441957 107.894 0.495291 107.857 0.556243C108.176 0.830529 108.568 1.05148 109.034 1.2191C109.5 1.39434 109.966 1.501 110.455 1.5391L110.225 1.96577C109.752 1.91243 109.278 1.79053 108.805 1.60767C108.331 1.42481 107.924 1.18862 107.591 0.914338C107.295 1.24958 106.94 1.51624 106.511 1.71434C106.089 1.91243 105.66 2.03434 105.223 2.08005C105.179 2.0191 105.134 1.95053 105.097 1.88196C105.06 1.81339 105.016 1.74481 104.986 1.67624C105.26 1.65339 105.534 1.60005 105.8 1.51624C106.067 1.43243 106.311 1.32577 106.54 1.18862C106.77 1.0591 106.969 0.8991 107.147 0.716243C107.317 0.510529 107.45 0.304815 107.547 0.0838623ZM110.211 5.51624V5.96576H105.275V4.52577H109.663V3.96958H105.275V3.52005H110.144V4.96005H105.763V5.51624H110.211Z" fill="#393280"/>
<path d="M116.502 4.11438V4.57153H113.971V6.09533H113.49V4.57153H110.967V4.11438H116.502ZM116.236 2.88772V3.34486H111.3V1.53914H115.688V0.662953H111.3V0.205811H116.169V1.98867H111.788V2.8801H116.236V2.88772Z" fill="#393280"/>
<path d="M118.447 0.0838623H118.942C118.942 0.297196 118.928 0.510529 118.905 0.723862C118.876 0.937195 118.839 1.14291 118.787 1.34862C118.987 1.71434 119.246 2.0572 119.564 2.37719C119.882 2.69719 120.223 2.96386 120.585 3.16958C120.556 3.20005 120.533 3.23053 120.511 3.26862C120.489 3.30672 120.459 3.32958 120.437 3.36767C120.408 3.39815 120.385 3.42862 120.363 3.46672C120.341 3.49719 120.311 3.52767 120.289 3.55815C119.971 3.36767 119.668 3.12386 119.372 2.82672C119.076 2.52958 118.824 2.23243 118.609 1.92005C118.469 2.27815 118.284 2.61339 118.069 2.91815C117.855 3.22291 117.603 3.48958 117.322 3.71815C117.285 3.69529 117.255 3.67243 117.218 3.64196C117.181 3.61148 117.152 3.58862 117.122 3.55815C117.092 3.53529 117.055 3.51243 117.026 3.48196C116.989 3.45148 116.959 3.42862 116.93 3.39815C117.425 3.02481 117.803 2.54481 118.069 1.95815C118.336 1.37148 118.447 0.754338 118.447 0.0838623ZM117.44 5.96576V4.09148H117.929V5.50862H122.25V5.96576H117.44ZM121.621 0.784814V0.0838623H122.11V4.55624H121.621V2.40767H120.126V1.95053H121.621V1.24196H120.126V0.784814H121.621Z" fill="#393280"/>
</svg>
