<svg width="128" height="32" viewBox="0 0 128 32" fill="none" xmlns="http://www.w3.org/2000/svg">
<g clip-path="url(#clip0_1096_17278)">
<path d="M3.88996 27.4988H10.0937C11.8499 27.4988 13.1583 26.9027 14.0144 25.7015C14.8705 24.5049 15.3008 22.6083 15.3008 20.0118C15.3008 15.153 13.5754 12.7235 10.1244 12.7235H3.88996V27.4988ZM9.15854 8.72266C15.8452 8.72266 19.1864 12.5023 19.1864 20.0615V20.1608C19.1205 27.72 15.7706 31.4951 9.1278 31.4951H0V8.72266H9.15854Z" fill="white"/>
<path d="M40.6517 22.8708C40.6517 24.1713 40.4586 25.3499 40.0722 26.4066C39.6858 27.4632 39.1063 28.3664 38.338 29.116C37.5652 29.8656 36.5949 30.4481 35.4271 30.8681C34.2592 31.288 32.9025 31.4957 31.3615 31.4957C29.8204 31.4957 28.5033 31.288 27.3442 30.8681C26.1895 30.4481 25.2104 29.8611 24.4201 29.0979C23.6255 28.3393 23.0284 27.4271 22.62 26.3705C22.2117 25.3138 22.0098 24.1533 22.0098 22.8979V8.71875H25.8997V22.776C25.8997 24.1623 26.3871 25.2957 27.3618 26.1763C28.3364 27.0568 29.6931 27.4949 31.4273 27.4949H31.5239C33.2582 27.4949 34.5665 27.0568 35.4446 26.1763C36.3227 25.2957 36.7618 24.1623 36.7618 22.776V8.71875H40.6517V22.8663V22.8708Z" fill="white"/>
<path d="M78.0622 31.5C76.4334 31.5 75.0109 31.2697 73.7903 30.8046C72.5698 30.344 71.5468 29.6802 70.7214 28.8222C69.896 27.9642 69.2813 26.9256 68.873 25.7154C68.4647 24.5053 68.2627 23.1506 68.2627 21.6514V8.72754H72.1527V21.6604C72.1527 23.5073 72.662 24.9433 73.6806 25.9638C74.6991 26.9889 76.1173 27.4991 77.9393 27.4991H84.6875V31.5H78.0666H78.0622Z" fill="white"/>
<path d="M104.897 31.5L98.6627 13.3877C98.5135 12.9677 98.2369 12.76 97.8285 12.76C97.4202 12.76 97.1436 12.9677 96.99 13.3877L90.7555 31.5H86.6416L93.5215 11.6672C93.8639 10.6738 94.4128 9.93774 95.1591 9.45456C95.9099 8.97138 96.7968 8.72754 97.8285 8.72754C98.8603 8.72754 99.7428 8.97138 100.494 9.45456C101.244 9.93774 101.789 10.6783 102.131 11.6672L109.011 31.5H104.897Z" fill="white"/>
<path d="M119.935 31.5C113.209 31.5 109.846 27.7114 109.846 20.1296V20.0302C109.868 12.4936 113.24 8.72754 119.97 8.72754H128.005V12.7284H118.974C117.217 12.7284 115.905 13.3245 115.035 14.5076C114.166 15.6952 113.731 17.5737 113.731 20.1476C113.731 25.0516 115.466 27.5036 118.938 27.5036H127.97V31.5045H119.935V31.5Z" fill="white"/>
<path d="M52.91 12.7235C51.1582 12.7235 49.8455 13.3196 48.9806 14.5027C48.1156 15.6903 47.681 17.5688 47.681 20.1428C47.681 25.0468 49.4108 27.4988 52.8749 27.4988H56.5937C60.0577 27.4988 61.7876 25.0468 61.7876 20.1428C61.7876 17.5688 61.3485 15.6903 60.4748 14.5027C59.5967 13.3151 58.2928 12.7235 56.5629 12.7235H52.9057H52.91ZM55.5751 8.72266C62.2486 8.72266 65.6161 12.4932 65.6819 20.0254V20.1247C65.6819 27.7065 62.3232 31.4951 55.6102 31.4951H53.8716C47.1541 31.4951 43.7998 27.7065 43.7998 20.1247V20.0254C43.8218 12.4887 47.1893 8.72266 53.9067 8.72266H55.5795H55.5751Z" fill="white"/>
<path d="M54.947 17.249H54.5255C52.8352 17.249 51.9878 18.1973 51.9834 20.0939V20.1165C51.9834 22.0221 52.8308 22.9794 54.5211 22.9794H54.9601C56.6505 22.9794 57.4978 22.0266 57.4978 20.1165V20.0939C57.4803 18.1973 56.6329 17.249 54.9558 17.249" fill="white"/>
<path d="M104.182 23.1279H91.8359V26.9391H104.182V23.1279Z" fill="white"/>
<path d="M124.751 1.04188C123.293 1.04188 122.117 2.25659 122.117 3.75579C122.117 5.25499 123.298 6.46519 124.751 6.4697C126.204 6.4697 127.385 5.25499 127.39 3.75579C127.39 2.26111 126.209 1.04639 124.751 1.04188ZM124.751 0.5C126.498 0.5 127.917 1.95404 127.917 3.75127C127.917 5.54851 126.498 7.00706 124.751 7.00706C123.004 7.00706 121.59 5.55302 121.59 3.75127C121.59 1.95404 123.008 0.5 124.751 0.5Z" fill="white"/>
<path d="M124.005 2.36073V3.50771H125.032C125.44 3.50771 125.642 3.31353 125.642 2.92067C125.642 2.52781 125.436 2.36073 125.023 2.36073H124.009H124.005ZM123.377 5.51266V1.83691H125.085C125.471 1.83691 125.765 1.92271 125.967 2.09882C126.169 2.27042 126.266 2.51426 126.266 2.83036C126.266 3.30902 126.068 3.61608 125.678 3.75607V3.7651C126.029 3.81929 126.209 4.07668 126.209 4.54179C126.209 5.04303 126.275 5.36364 126.402 5.50814H125.73C125.664 5.39977 125.634 5.22366 125.634 4.96627C125.634 4.61404 125.585 4.36568 125.493 4.2257C125.392 4.07217 125.199 3.9954 124.922 3.9954H124V5.50814H123.377V5.51266Z" fill="white"/>
</g>
<defs>
<clipPath id="clip0_1096_17278">
<rect width="128" height="31" fill="white" transform="translate(0 0.5)"/>
</clipPath>
</defs>
</svg>
