<svg width="157" height="148" viewBox="0 0 157 148" fill="none" xmlns="http://www.w3.org/2000/svg">
<rect x="10.1611" y="0.580658" width="146.839" height="146.839" rx="73.4194" fill="url(#paint0_linear_810_15249)"/>
<rect x="0.0351562" y="47.0002" width="66" height="39" rx="19.5" fill="#393280"/>
<circle cx="16.3756" cy="66.3757" r="3.3756" fill="white"/>
<circle cx="33.2535" cy="66.3757" r="3.3756" fill="white"/>
<circle cx="50.1315" cy="66.3757" r="3.3756" fill="white"/>
<path d="M37.1307 91.7177C36.4621 92.3091 35.4126 91.7949 35.4702 90.9042L36.596 73.4909C36.642 72.7805 37.3946 72.3442 38.0339 72.6574L49.9776 78.5089C50.6169 78.8221 50.7335 79.6842 50.2002 80.1559L37.1307 91.7177Z" fill="#393280"/>
<path d="M89.7277 38.5751C89.7277 38.1063 87.9682 37.7159 85.6413 37.6311C85.5564 35.3042 85.166 33.5447 84.6973 33.5447C84.2285 33.5447 83.8381 35.3042 83.7533 37.6311C81.4264 37.7159 79.6668 38.1063 79.6668 38.5751C79.6668 39.0439 81.4264 39.4342 83.7533 39.5191C83.8381 41.846 84.2285 43.6055 84.6973 43.6055C85.166 43.6055 85.5564 41.846 85.6413 39.5191C87.9682 39.4342 89.7277 39.0439 89.7277 38.5751Z" fill="#393280" fill-opacity="0.5"/>
<path d="M67.1189 96.7858C67.1189 96.299 65.2915 95.8935 62.8749 95.8054C62.7868 93.3888 62.3814 91.5614 61.8945 91.5614C61.4077 91.5614 61.0023 93.3888 60.9141 95.8054C58.4975 95.8935 56.6702 96.299 56.6702 96.7858C56.6702 97.2726 58.4975 97.6781 60.9141 97.7662C61.0023 100.183 61.4077 102.01 61.8945 102.01C62.3814 102.01 62.7868 100.183 62.8749 97.7662C65.2915 97.6781 67.1189 97.2726 67.1189 96.7858Z" fill="white"/>
<path d="M109.182 52.9032C109.182 52.4286 107.4 52.0334 105.045 51.9475C104.959 49.5918 104.563 47.8104 104.089 47.8104C103.614 47.8104 103.219 49.5918 103.133 51.9475C100.777 52.0334 98.9961 52.4286 98.9961 52.9032C98.9961 53.3778 100.777 53.773 103.133 53.8589C103.219 56.2147 103.614 57.996 104.089 57.996C104.563 57.996 104.959 56.2147 105.045 53.8589C107.4 53.773 109.182 53.3778 109.182 52.9032Z" fill="white"/>
<defs>
<linearGradient id="paint0_linear_810_15249" x1="22.3977" y1="21.3828" x2="126.409" y2="135.183" gradientUnits="userSpaceOnUse">
<stop stop-color="#393280" stop-opacity="0.03"/>
<stop offset="1" stop-color="#393280" stop-opacity="0.25"/>
</linearGradient>
</defs>
</svg>
