<svg width="20" height="21" viewBox="0 0 20 21" fill="none" xmlns="http://www.w3.org/2000/svg">
<path d="M2.30064 15.229L1.16042 8.42724C0.988019 7.39884 0.901821 6.88464 1.17785 6.54761C1.45388 6.21057 1.96121 6.21057 2.97587 6.21057H17.0241C18.0388 6.21057 18.5461 6.21057 18.8221 6.54761C19.0982 6.88464 19.012 7.39884 18.8396 8.42724L17.6994 15.229C17.3214 17.4834 17.1325 18.6106 16.361 19.279C15.5894 19.9474 14.4773 19.9474 12.253 19.9474H7.74699C5.5227 19.9474 4.41055 19.9474 3.63904 19.279C2.86752 18.6106 2.67856 17.4834 2.30064 15.229Z" fill="#393280" stroke="#393280" stroke-width="1.6"/>
<path d="M15.2101 6.21053C15.2101 3.33283 12.8773 1 9.99959 1C7.12189 1 4.78906 3.33283 4.78906 6.21053" stroke="#393280" stroke-width="1.6"/>
</svg>
