<svg width="290" height="32" viewBox="0 0 290 32" fill="none" xmlns="http://www.w3.org/2000/svg">
<path d="M157.898 31.2156H164.462L164.358 31.0099L163.263 30.9718C161.805 30.9413 161.842 30.8346 161.842 30.5603V23.086C162.834 19.2613 163.566 17.7603 165.157 17.4175C165.224 18.7432 165.882 19.3984 166.615 19.3984C167.481 19.3984 167.977 18.6137 167.977 17.8975C167.977 17.1127 167.377 16.328 166.215 16.328C164.129 16.328 162.671 18.7508 161.775 22.3699H161.738L161.872 16.3965L157.898 17.4556L157.861 17.5927L158.623 17.6918C159.748 17.7908 159.977 18.2708 159.977 20.3889V30.4918C159.977 30.9032 159.607 30.9032 158.579 30.9718L157.987 31.0099L157.898 31.2156ZM153.746 31.5203C155.004 31.5203 155.796 30.187 156.425 29.4708L156.262 29.3641C155.767 29.9127 155.204 30.3927 154.671 30.3927C154.005 30.3927 153.576 30.187 153.643 29.0975L153.976 20.8384C154.146 17.288 152.622 16.3356 150.261 16.3356C147.878 16.3356 144.297 18.3851 144.297 19.9546C144.297 20.8384 144.822 21.2499 145.555 21.2499C146.317 21.2499 146.813 20.6327 146.813 20.0232C146.813 19.1318 146.021 18.7584 146.021 18.5222C146.021 18.0422 147.575 16.9832 149.033 16.9832C150.461 16.9832 152.348 17.6003 152.185 21.0441L152.118 23.0556C146.184 24.6556 144.4 26.1641 144.4 28.4118C144.4 30.0803 145.629 31.4822 147.619 31.4822C149.077 31.4822 150.535 30.4613 151.896 29.2651V29.3337C151.926 30.5984 152.821 31.5203 153.746 31.5203ZM148.677 30.3927C147.153 30.3927 146.324 29.4708 146.324 27.9013C146.324 26.2251 146.953 24.7241 152.126 23.3984L151.963 28.8613C151.127 29.608 149.935 30.3927 148.677 30.3927ZM135.986 31.6194C138.636 31.6194 140.293 30.0118 141.684 27.5889L141.448 27.4822C140.19 29.4632 138.932 30.286 136.771 30.286C133.818 30.286 131.465 27.3832 131.465 23.2918C131.465 22.6746 131.569 21.9584 131.628 21.4099L141.277 21.4479C141.314 21.1737 141.344 21.1051 141.344 20.9375C141.344 18.6137 139.553 16.328 136.245 16.328C132.101 16.328 129.445 19.9775 129.445 24.2822C129.452 28.3127 132.368 31.6194 135.986 31.6194ZM131.709 21.0822C132.375 18.5222 134.225 16.6784 136.053 16.6784C138.147 16.6784 139.205 18.6594 139.205 21.0441L131.709 21.0822ZM121.231 31.2156H127.336L127.232 31.0099L126.766 30.9718C125.242 30.9032 125.108 30.8346 125.108 30.5603V8.24414L121.201 9.19652L121.164 9.33366L121.897 9.40224C123.088 9.56986 123.251 9.98128 123.251 12.0994V30.4918C123.251 30.9032 122.888 30.9032 121.86 30.9718L121.297 31.0099L121.231 31.2156ZM110.56 31.6956C112.95 31.6956 115.37 30.9108 116.695 30.1946L117.856 29.9584L119.055 25.0441H118.855L118.027 26.4765C116.332 29.6156 114.482 31.3908 110.538 31.3908C105.099 31.3908 101.65 26.9565 101.65 20.4422C101.65 14.1946 105.062 9.69176 110.701 9.69176C112.921 9.69176 114.845 10.4765 115.703 11.1927L118.123 15.9318H118.323L117.893 10.0956L116.265 10.8803C114.911 10.0651 113.054 9.37938 110.664 9.37938C103.967 9.37938 99.2897 14.1565 99.2897 20.7089C99.2897 27.2537 103.959 31.6956 110.56 31.6956ZM85.9327 30.9718C80.1534 30.9718 76.2388 25.9965 76.2388 20.526V20.4651C76.2388 14.9641 80.0646 10.0803 85.881 10.0803C91.6604 10.0803 95.5749 15.0556 95.5749 20.5184V20.5794C95.5749 26.0803 91.7491 30.9718 85.9327 30.9718ZM85.9032 31.5813C92.1932 31.5813 96.2262 26.3927 96.2262 20.5565V20.4956C96.2262 14.6594 92.1932 9.47081 85.9032 9.47081C79.6206 9.47081 75.5802 14.667 75.5802 20.4956V20.5565C75.5876 26.3927 79.6206 31.5813 85.9032 31.5813ZM66.1008 31.2156H66.752V10.4537H74.2555V9.84414H58.5972V10.4537H66.1008V31.2156ZM48.5776 31.5813C52.2258 31.5813 54.8306 29.8975 56.6436 27.947L56.17 27.4899C54.505 29.3184 51.989 30.9718 48.6072 30.9718C43.146 30.9718 39.0834 26.2022 39.0834 20.5565V20.4956C39.0834 14.9032 43.0868 10.0803 48.6072 10.0803C52.3146 10.0803 54.4162 11.6651 56.0812 13.3184L56.5252 12.8613C54.5938 10.9641 52.5514 9.47081 48.6368 9.47081C42.702 9.47081 38.4322 14.507 38.4322 20.526V20.587C38.4322 26.6365 42.7316 31.5813 48.5776 31.5813ZM19.8952 24.1908L26.2148 10.5756L32.5344 24.1908H19.8952ZM15.9584 31.2156H16.6392L19.6066 24.8003H32.8304L35.7978 31.2156H36.5082L26.5182 9.68414H25.9484L15.9584 31.2156ZM0.618164 31.2156H14.027V30.606H1.27676V9.83652H0.618164V31.2156Z" fill="#393280" stroke="#393280" stroke-width="0.5" stroke-miterlimit="10"/>
<path d="M163.263 14.9257H163.581V10.9791L165.328 13.5924H165.35L167.096 10.9791V14.9257H167.422V10.3848H167.111L165.343 13.0743L163.574 10.3848H163.263V14.9257ZM159.519 14.9257H159.844V10.6971H161.383V10.3848H157.979V10.6971H159.519V14.9257Z" fill="#393280" stroke="#393280" stroke-width="0.5" stroke-miterlimit="10"/>
<path d="M53.1655 5.30303V5.76018H47.6377V5.30303H53.1655ZM47.9707 3.55065L47.6673 3.1697C48.0003 3.04779 48.3037 2.88779 48.5923 2.68208C48.8809 2.47637 49.1325 2.24018 49.3619 1.97351C49.5839 1.70684 49.7689 1.41732 49.9243 1.09732C50.0797 0.777318 50.1833 0.44208 50.2425 0.0839844L50.7235 0.183032C50.6939 0.335413 50.6643 0.487794 50.6199 0.632556C50.5755 0.777318 50.5311 0.92208 50.4719 1.05922C50.7827 1.50113 51.1749 1.8897 51.6337 2.21732C52.0925 2.54494 52.5957 2.78875 53.1285 2.95637L52.8695 3.35256C52.3737 3.19256 51.8927 2.94875 51.4265 2.62113C50.9603 2.29351 50.5755 1.92779 50.2499 1.52398C49.9909 1.98875 49.6579 2.40018 49.2583 2.75065C48.8587 3.10113 48.4295 3.37541 47.9707 3.55065Z" fill="#393280"/>
<path d="M53.9201 0.213508H56.8283V0.563984C56.8283 0.990651 56.7543 1.37922 56.5989 1.73732C56.4435 2.09541 56.2363 2.40779 55.9699 2.68208C55.7035 2.95636 55.4001 3.17732 55.0449 3.36017C54.6897 3.54303 54.3123 3.67255 53.9053 3.74113L53.6611 3.32208C54.1569 3.23827 54.5935 3.09351 54.9709 2.87256C55.3483 2.65922 55.6517 2.38494 55.8737 2.06494H53.9201V1.62303H56.1179C56.1771 1.47827 56.2289 1.32589 56.2659 1.16589C56.3029 1.00589 56.3251 0.83827 56.3325 0.663032H53.9201V0.213508ZM58.9151 5.50874V5.96589H54.1051V4.0916H54.5935V5.50874H58.9151ZM58.7745 0.0839844V4.55636H58.2861V0.0839844H58.7745Z" fill="#393280"/>
<path d="M64.2951 0.213508V5.76017H61.5127V0.213508H64.2951ZM62.0011 5.30303H63.8067V0.663032H62.0011V5.30303ZM66.2413 2.97922V6.03446H65.7529V0.0839844H66.2413V2.52208H67.0923V2.97922H66.2413Z" fill="#393280"/>
<path d="M67.4844 4.01541V1.95827C67.4844 1.35637 67.625 0.906841 67.8988 0.60208C68.1726 0.297318 68.5352 0.144937 68.9792 0.144937C69.4158 0.144937 69.7784 0.297318 70.0596 0.60208C70.3408 0.906841 70.4814 1.35637 70.4814 1.95827V4.01541C70.4814 4.61732 70.3408 5.06684 70.067 5.36398C69.7932 5.66113 69.4306 5.81351 69.0014 5.81351C68.5574 5.81351 68.1948 5.66875 67.9136 5.3716C67.625 5.08208 67.4844 4.62494 67.4844 4.01541ZM67.9654 1.95827V4.01541C67.9654 4.48779 68.0542 4.83065 68.2318 5.04398C68.4094 5.25732 68.6536 5.36398 68.9792 5.36398C69.2974 5.36398 69.549 5.25732 69.7192 5.04398C69.8894 4.83065 69.9782 4.48779 69.9782 4.01541V1.95827C69.9782 1.49351 69.8894 1.15065 69.7192 0.929698C69.549 0.708746 69.2974 0.60208 68.9792 0.60208C68.661 0.60208 68.4094 0.708746 68.2318 0.929698C68.0542 1.15065 67.9654 1.49351 67.9654 1.95827ZM72.3906 0.0839844V6.03446H71.9022V0.0839844H72.3906Z" fill="#393280"/>
<path d="M78.8139 5.3032V5.76034H73.2861V5.3032H78.8139ZM78.4809 4.64796H77.9999V3.0251H73.6117V2.57558H77.9999V0.663198H73.6117V0.206055H78.4809V4.64796Z" fill="#393280"/>
<path d="M84.8305 5.29558V5.75272H79.3027V5.29558H81.8335V4.13748H82.3145V5.3032H84.8305V5.29558ZM84.5641 3.30701V3.76415H79.6283V1.75272H84.0165V0.663197H79.6283V0.206055H84.4975V2.20986H80.1167V3.31463H84.5641V3.30701Z" fill="#393280"/>
<path d="M88.3742 0.213508V5.76017H85.5918V0.213508H86.0802V2.25541H87.8858V0.213508H88.3742ZM86.0802 5.30303H87.8858V2.70494H86.0802V5.30303ZM90.3204 2.97922V6.03446H89.832V0.0839844H90.3204V2.52208H91.1714V2.97922H90.3204Z" fill="#393280"/>
<path d="M91.5645 4.01541V1.95827C91.5645 1.35637 91.7051 0.906841 91.9789 0.60208C92.2527 0.297318 92.6153 0.144937 93.0593 0.144937C93.4959 0.144937 93.8585 0.297318 94.1397 0.60208C94.4209 0.906841 94.5615 1.35637 94.5615 1.95827V4.01541C94.5615 4.61732 94.4209 5.06684 94.1471 5.36398C93.8659 5.66113 93.5107 5.81351 93.0815 5.81351C92.6375 5.81351 92.2749 5.66875 91.9937 5.3716C91.7051 5.08208 91.5645 4.62494 91.5645 4.01541ZM92.0455 1.95827V4.01541C92.0455 4.48779 92.1343 4.83065 92.3119 5.04398C92.4895 5.25732 92.7337 5.36398 93.0593 5.36398C93.3775 5.36398 93.6291 5.25732 93.7993 5.04398C93.9695 4.83065 94.0583 4.48779 94.0583 4.01541V1.95827C94.0583 1.49351 93.9695 1.15065 93.7993 0.929698C93.6217 0.708746 93.3775 0.60208 93.0593 0.60208C92.7411 0.60208 92.4895 0.708746 92.3119 0.929698C92.1343 1.15065 92.0455 1.49351 92.0455 1.95827ZM96.4633 0.0839844V6.03446H95.9749V0.0839844H96.4633Z" fill="#393280"/>
<path d="M97.3584 3.38342V2.9339H99.8448V2.28628H99.0678C98.6016 2.28628 98.2464 2.19485 97.9948 2.00437C97.7432 1.82151 97.6174 1.54723 97.6174 1.18913C97.6174 0.861514 97.7432 0.594848 97.9948 0.396752C98.2464 0.198657 98.6016 0.0996094 99.0678 0.0996094H101.177C101.643 0.0996094 101.998 0.198657 102.25 0.396752C102.501 0.594848 102.627 0.861514 102.627 1.18913C102.627 1.54723 102.501 1.82151 102.25 2.00437C101.998 2.19485 101.643 2.28628 101.177 2.28628H100.333V2.9339H102.886V3.38342H97.3584ZM97.6914 5.96628V4.00056H102.561V5.96628H97.6914ZM101.177 0.549133H99.0678C98.757 0.549133 98.5276 0.610086 98.3648 0.724371C98.202 0.838657 98.1206 0.998657 98.1206 1.19675C98.1206 1.40247 98.1946 1.55485 98.35 1.66913C98.5054 1.78342 98.7422 1.84437 99.0604 1.84437H101.169C101.488 1.84437 101.724 1.78342 101.88 1.66913C102.035 1.55485 102.109 1.39485 102.109 1.19675C102.109 0.998657 102.035 0.838657 101.88 0.724371C101.739 0.610086 101.502 0.549133 101.177 0.549133ZM102.08 5.51675V4.44247H98.1798V5.51675H102.08Z" fill="#393280"/>
<path d="M107.933 2.52208H110.479V2.97922H104.951V2.52208H107.438V1.66113H107.933V2.52208ZM107.549 0.0839844C107.586 0.0916034 107.63 0.0992225 107.667 0.114461C107.704 0.12208 107.748 0.129699 107.793 0.144937C107.83 0.160175 107.874 0.167794 107.919 0.183032C107.963 0.190651 108.007 0.19827 108.052 0.205889C108.022 0.266841 107.993 0.327794 107.963 0.388746C107.933 0.442079 107.896 0.495413 107.859 0.556365C108.178 0.830651 108.57 1.0516 109.036 1.21922C109.502 1.39446 109.968 1.50113 110.457 1.53922L110.227 1.96589C109.754 1.91256 109.28 1.79065 108.807 1.60779C108.333 1.42494 107.926 1.18875 107.593 0.91446C107.297 1.2497 106.942 1.51637 106.513 1.71446C106.091 1.91256 105.662 2.03446 105.225 2.08017C105.181 2.01922 105.136 1.95065 105.099 1.88208C105.062 1.81351 105.018 1.74494 104.988 1.67637C105.262 1.65351 105.536 1.60017 105.802 1.51636C106.069 1.43256 106.313 1.32589 106.542 1.18875C106.772 1.05922 106.971 0.899222 107.149 0.716365C107.319 0.510651 107.452 0.304937 107.549 0.0839844ZM110.213 5.51636V5.96589H105.277V4.52589H109.665V3.9697H105.277V3.52017H110.146V4.96017H105.765V5.51636H110.213Z" fill="#393280"/>
<path d="M116.502 4.11463V4.57177H113.971V6.09558H113.49V4.57177H110.967V4.11463H116.502ZM116.236 2.88796V3.3451H111.3V1.53939H115.688V0.663198H111.3V0.206055H116.169V1.98891H111.788V2.88034H116.236V2.88796Z" fill="#393280"/>
<path d="M118.449 0.0839844H118.944C118.944 0.297318 118.93 0.510651 118.907 0.723984C118.878 0.937317 118.841 1.14303 118.789 1.34875C118.989 1.71446 119.248 2.05732 119.566 2.37732C119.884 2.69732 120.225 2.96398 120.587 3.1697C120.558 3.20017 120.535 3.23065 120.513 3.26875C120.491 3.30684 120.461 3.3297 120.439 3.36779C120.41 3.39827 120.387 3.42875 120.365 3.46684C120.343 3.49732 120.313 3.52779 120.291 3.55827C119.973 3.36779 119.67 3.12398 119.374 2.82684C119.078 2.5297 118.826 2.23256 118.611 1.92017C118.471 2.27827 118.286 2.61351 118.071 2.91827C117.857 3.22303 117.605 3.4897 117.324 3.71827C117.287 3.69541 117.257 3.67255 117.22 3.64208C117.183 3.6116 117.154 3.58875 117.124 3.55827C117.094 3.53541 117.057 3.51255 117.028 3.48208C116.991 3.4516 116.961 3.42875 116.932 3.39827C117.427 3.02494 117.805 2.54494 118.071 1.95827C118.338 1.3716 118.449 0.75446 118.449 0.0839844ZM117.442 5.96589V4.0916H117.931V5.50874H122.252V5.96589H117.442ZM121.623 0.784936V0.0839844H122.112V4.55636H121.623V2.40779H120.128V1.95065H121.623V1.24208H120.128V0.784936H121.623Z" fill="#393280"/>
</svg>
