<svg width="124" height="32" viewBox="0 0 124 32" fill="none" xmlns="http://www.w3.org/2000/svg">
<g clip-path="url(#clip0_258_5556)">
<g clip-path="url(#clip1_258_5556)">
<path d="M117.935 26.9468H106.466V5.35742H117.642C119.793 5.35742 121.436 5.82676 122.57 6.76542C123.724 7.70409 124.3 9.04364 124.3 10.7841C124.3 13.0916 123.518 14.793 121.954 15.8881C122.795 16.3379 123.401 16.9832 123.772 17.8241C124.144 18.665 124.33 19.8481 124.33 21.3734C124.33 22.1165 124.193 22.8303 123.919 23.5148C123.645 24.1992 123.235 24.7956 122.687 25.3041C122.14 25.8125 121.475 26.2134 120.692 26.5068C119.91 26.8001 118.991 26.9468 117.935 26.9468ZM117.671 8.34942H109.722V14.2454H117.671C118.844 14.2454 119.715 13.9814 120.282 13.4534C120.868 12.9059 121.162 12.2116 121.162 11.3708C121.162 10.4516 120.868 9.71831 120.282 9.17076C119.715 8.6232 118.844 8.34942 117.671 8.34942ZM117.671 17.3841H109.722V23.9548H117.671C118.844 23.9548 119.715 23.6321 120.282 22.9868C120.868 22.2828 121.162 21.5494 121.162 20.7868C121.162 19.8676 120.859 19.0756 120.252 18.4108C119.685 17.7263 118.825 17.3841 117.671 17.3841Z" fill="#393280"/>
<path d="M98.7817 19.2323L95.4963 9.46434V9.49368C95.3986 9.29812 95.2715 9.10257 95.115 8.90701C94.9781 8.6919 94.8021 8.58434 94.587 8.58434C94.4306 8.58434 94.2741 8.65279 94.1177 8.78968C93.9808 8.90701 93.8928 9.03412 93.8537 9.17101L90.4217 19.2323H98.7817ZM99.867 22.4003H89.3657C89.1115 23.1435 88.8572 23.9061 88.603 24.6883C88.3488 25.4706 88.1043 26.2235 87.8697 26.947H84.291L90.715 8.02701C90.8324 7.67501 90.9986 7.32301 91.2137 6.97101C91.4288 6.61901 91.6928 6.3159 92.0057 6.06168C92.3186 5.7879 92.6901 5.57279 93.1204 5.41634C93.5506 5.24034 94.0492 5.15234 94.6164 5.15234C95.1248 5.15234 95.5844 5.24034 95.995 5.41634C96.4057 5.57279 96.7675 5.7879 97.0804 6.06168C97.4128 6.3159 97.6866 6.61901 97.9017 6.97101C98.1364 7.32301 98.3124 7.67501 98.4297 8.02701L105 26.947H101.392L99.867 22.4003Z" fill="#393280"/>
<path d="M74.691 23.8374H82.5523V26.9468H75.1603C72.1683 26.9468 69.9585 26.1841 68.531 24.6588C67.1034 23.1139 66.3896 20.9041 66.3896 18.0294V5.35742H69.8803V18.9681C69.8803 19.9654 70.0368 20.777 70.3496 21.4028C70.6821 22.009 71.1025 22.4979 71.611 22.8694C72.1194 23.241 72.6474 23.4952 73.195 23.6321C73.7425 23.769 74.2412 23.8374 74.691 23.8374Z" fill="#393280"/>
<path d="M53.1978 24.043C55.8378 24.043 57.6956 23.3879 58.7711 22.0777C59.8662 20.7283 60.4138 18.7728 60.4138 16.211C60.4138 14.803 60.2867 13.6003 60.0325 12.603C59.7783 11.6057 59.3676 10.7941 58.8005 10.1683C58.2334 9.54257 57.4903 9.08301 56.5711 8.78968C55.652 8.49634 54.5276 8.34968 53.1978 8.34968C51.8485 8.34968 50.7143 8.49634 49.7951 8.78968C48.8956 9.08301 48.1623 9.54257 47.5951 10.1683C47.028 10.7746 46.6271 11.5763 46.3925 12.5737C46.1578 13.571 46.0405 14.7835 46.0405 16.211C46.0405 18.7337 46.5685 20.6892 47.6245 22.0777C48.172 22.6839 48.9151 23.163 49.8538 23.515C50.7925 23.867 51.9071 24.043 53.1978 24.043ZM53.1978 5.15234C55.0556 5.15234 56.6591 5.36745 58.0085 5.79768C59.3578 6.20834 60.4627 6.86346 61.3231 7.76301C62.2031 8.66257 62.8485 9.80657 63.2591 11.195C63.6894 12.5835 63.9045 14.2555 63.9045 16.211C63.9045 17.9906 63.6991 19.5648 63.2885 20.9337C62.8974 22.283 62.2618 23.4172 61.3818 24.3363C60.5214 25.2359 59.4165 25.9203 58.0671 26.3897C56.7178 26.859 55.0947 27.0937 53.1978 27.0937C51.3009 27.0937 49.6778 26.859 48.3285 26.3897C46.9791 25.9203 45.8742 25.2359 45.0138 24.3363C44.1729 23.4172 43.5471 22.283 43.1365 20.9337C42.7454 19.5648 42.5498 17.9906 42.5498 16.211C42.5498 12.339 43.3907 9.53279 45.0725 7.79234C46.7738 6.03234 49.4822 5.15234 53.1978 5.15234Z" fill="#393280"/>
<path d="M30.938 27.0348C29.6082 27.0543 28.3958 26.8979 27.3007 26.5654C26.2055 26.233 25.2473 25.6952 24.426 24.9521C23.6242 24.2285 22.9984 23.2605 22.5487 22.0481C22.1184 20.8356 21.9033 19.3396 21.9033 17.5601V5.35742H25.1887V18.3521C25.1887 19.3885 25.3353 20.2685 25.6287 20.9921C25.922 21.7156 26.3229 22.3023 26.8313 22.7521C27.3398 23.2019 27.9362 23.5343 28.6207 23.7494C29.3051 23.945 30.0678 24.0428 30.9087 24.0428C31.7104 24.0428 32.4633 23.945 33.1673 23.7494C33.8713 23.5539 34.4873 23.2312 35.0153 22.7814C35.5238 22.3316 35.9344 21.745 36.2473 21.0214C36.5602 20.2979 36.7167 19.4081 36.7167 18.3521V5.35742H40.002V17.5601C39.9824 19.457 39.7282 21.0116 39.2393 22.2241C38.77 23.4365 38.1149 24.4143 37.274 25.1574V25.1281C36.4527 25.8516 35.4944 26.3503 34.3993 26.6241C33.3042 26.9174 32.1504 27.0543 30.938 27.0348Z" fill="#393280"/>
<path d="M15.9028 16.1521C15.9028 15.3503 15.8148 14.4996 15.6388 13.6001C15.4628 12.7005 15.1793 11.8792 14.7882 11.1361C14.397 10.393 13.8593 9.77698 13.1748 9.28809C12.5099 8.7992 11.6495 8.55476 10.5935 8.55476H3.90549V23.7788H10.5935C11.6495 23.7788 12.5099 23.5441 13.1748 23.0748C13.8593 22.5859 14.397 21.9796 14.7882 21.2561C15.1793 20.4934 15.4628 19.6623 15.6388 18.7628C15.8148 17.8632 15.9028 16.993 15.9028 16.1521ZM0.59082 26.9468V5.35742H9.88949C11.7082 5.35742 13.2237 5.6312 14.4362 6.17876C15.6486 6.70676 16.6264 7.46942 17.3695 8.46675C18.1126 9.44453 18.6308 10.5885 18.9242 11.8988C19.237 13.1894 19.3935 14.6072 19.3935 16.1521C19.3935 17.7165 19.237 19.1539 18.9242 20.4641C18.6113 21.7743 18.093 22.9085 17.3695 23.8668C16.6264 24.8445 15.6486 25.5974 14.4362 26.1254C13.2433 26.673 11.7277 26.9468 9.88949 26.9468H0.59082Z" fill="#393280"/>
<path d="M51.8249 14.0911C51.9681 13.9941 52.2373 13.8648 52.4264 13.8109C52.6841 13.7355 52.9591 13.7085 53.5434 13.7031C54.1505 13.7031 54.3968 13.7247 54.689 13.8055C54.8952 13.8648 55.1759 13.9941 55.3191 14.0911C55.4623 14.1935 55.6628 14.3929 55.7659 14.5384C55.869 14.6893 56.0122 14.9749 56.0809 15.1851C56.1726 15.4815 56.2012 15.7025 56.2012 16.209C56.2012 16.7156 56.1726 16.9365 56.0809 17.2329C56.0122 17.4431 55.869 17.7287 55.7601 17.8796C55.6513 18.0251 55.4394 18.2299 55.2847 18.3269C55.13 18.4239 54.8723 18.5425 54.7176 18.5856C54.5572 18.6287 54.162 18.6826 53.8298 18.6987C53.4861 18.7149 53.0679 18.7041 52.856 18.6718C52.6498 18.6395 52.3634 18.564 52.2087 18.4994C52.0598 18.4401 51.8192 18.2892 51.6703 18.1652C51.5156 18.0305 51.338 17.7988 51.2464 17.6102C51.1547 17.4323 51.0516 17.1521 51.0173 16.9904C50.9829 16.818 50.9657 16.4084 50.9772 16.0204C50.9944 15.6216 51.0402 15.239 51.0975 15.0773C51.149 14.9264 51.275 14.6893 51.3781 14.5384C51.4812 14.3929 51.6817 14.1935 51.8249 14.0911Z" fill="#393280"/>
</g>
</g>
<defs>
<clipPath id="clip0_258_5556">
<rect width="124" height="32" fill="white"/>
</clipPath>
<clipPath id="clip1_258_5556">
<rect width="125.333" height="24" fill="white" transform="translate(-0.666992 4)"/>
</clipPath>
</defs>
</svg>
