<svg width="390" height="152" viewBox="0 0 390 152" fill="none" xmlns="http://www.w3.org/2000/svg">
<rect width="390" height="152" fill="#393280"/>
<path d="M101.786 50.0781V51.9062H91.8019V45.8125H101.661V47.6094H94.1144V50.0781H101.786ZM103.286 53.1719V54.9531H100.442V59.5H98.1612V54.9531H95.38V59.5H93.1144V54.9531H90.1769V53.1719H103.286ZM110.232 45.8438C113.326 45.8281 115.685 47.4219 115.685 49.8125C115.685 51.9922 113.88 53.4453 111.341 53.7656V56.0469H116.81V57.875H103.701V56.0469H109.122V53.7656C106.599 53.4453 104.81 51.9922 104.81 49.8125C104.81 47.4219 107.138 45.8281 110.232 45.8438ZM110.232 47.625C108.341 47.625 107.029 48.4375 107.044 49.8125C107.029 51.2812 108.341 52.0625 110.232 52.0625C112.154 52.0625 113.451 51.2812 113.451 49.8125C113.451 48.4375 112.154 47.625 110.232 47.625ZM124.302 45.9531V50.4844H119.943V51.625C122.232 51.6016 123.763 51.5234 125.459 51.2188L125.693 53C123.74 53.3594 121.912 53.4531 118.927 53.4531H117.693V48.7812H122.099V47.7344H117.677V45.9531H124.302ZM128.631 45.1719V48.5312H130.506V50.3594H128.631V53.875H126.381V45.1719H128.631ZM128.631 54.5V59.4688H126.381V56.2812H118.896V54.5H128.631ZM120.42 70.1562V71.75H119.248V75.5391C119.724 75.5078 120.193 75.4609 120.638 75.4062L120.717 76.875C118.045 77.3203 114.943 77.375 112.685 77.375L112.482 75.7656C112.951 75.7656 113.467 75.7578 113.998 75.75V71.75H112.842V70.1562H120.42ZM114.717 80.7969C114.717 79.0938 116.56 78.1328 119.607 78.125C122.662 78.1328 124.506 79.0938 124.513 80.7969C124.506 82.4531 122.662 83.4453 119.607 83.4375C116.56 83.4453 114.717 82.4531 114.717 80.7969ZM115.92 75.7109C116.388 75.7031 116.865 75.6797 117.342 75.6641V71.75H115.92V75.7109ZM116.701 80.7969C116.701 81.5469 117.709 81.9219 119.607 81.9219C121.506 81.9219 122.521 81.5469 122.529 80.7969C122.521 80.0234 121.506 79.6484 119.607 79.6562C117.709 79.6484 116.701 80.0234 116.701 80.7969ZM120.732 75.7812V74.1875H122.482V73.0938H120.732V71.5312H122.482V69.2188H124.467V77.9062H122.482V75.7812H120.732ZM131.74 76.4219V78.2656H126.584V76.4219H131.74ZM137.405 71.75C137.405 73.2891 138.202 74.8047 140.092 75.5312L139.03 77.0469C137.811 76.5859 136.975 75.7422 136.467 74.6953C135.952 75.9219 135.061 76.9453 133.733 77.5L132.655 75.9688C134.663 75.0859 135.467 73.3359 135.467 71.75V70.0781H137.405V71.75ZM135.295 80.7812C135.288 79.1172 137.202 78.1172 140.217 78.125C143.217 78.1172 145.139 79.1172 145.155 80.7812C145.139 82.4297 143.217 83.4453 140.217 83.4375C137.202 83.4453 135.288 82.4297 135.295 80.7812ZM137.295 80.7812C137.28 81.5469 138.35 81.9375 140.217 81.9375C142.069 81.9375 143.139 81.5469 143.139 80.7812C143.139 80.0078 142.069 79.6094 140.217 79.6094C138.35 79.6094 137.28 80.0078 137.295 80.7812ZM140.139 77.4844V69.4844H141.998V72.7031H143.186V69.2344H145.077V77.9219H143.186V74.3125H141.998V77.4844H140.139ZM157.812 70.1719V71.7656H154.983C154.991 73.4219 155.999 75.0234 158.265 75.6875L157.312 77.25C155.741 76.7734 154.647 75.8125 154.022 74.6016C153.39 76.0312 152.233 77.1719 150.53 77.7344L149.515 76.1562C151.874 75.4141 152.944 73.5703 152.968 71.7656H150.062V70.1719H157.812ZM151.483 80.6719C151.476 78.9375 153.351 77.9297 156.358 77.9375C159.319 77.9297 161.147 78.9375 161.155 80.6719C161.147 82.4141 159.319 83.4453 156.358 83.4375C153.351 83.4453 151.476 82.4141 151.483 80.6719ZM153.483 80.6719C153.468 81.4844 154.491 81.8906 156.358 81.8906C158.202 81.8906 159.187 81.4844 159.187 80.6719C159.187 79.875 158.202 79.4766 156.358 79.4844C154.491 79.4766 153.468 79.875 153.483 80.6719ZM159.015 77.6562V69.2188H161.015V72.5156H162.937V74.1406H161.015V77.6562H159.015ZM178.593 69.2344V79.625H176.609V74.9844H174.062V73.3438H176.609V69.2344H178.593ZM166.797 76.625C169.742 75.7031 171.648 74 172.015 71.9062H167.531V70.2812H174.187C174.187 74.0938 171.765 76.9141 167.609 78.2031L166.797 76.625ZM169.218 83.1875V78.5781H171.25V81.5938H178.953V83.1875H169.218ZM191.398 69.2188V72.5625H193.32V74.1875H191.398V77.4688H189.398V69.2188H191.398ZM180.023 76.1719C183.156 75.3438 184.945 73.7188 185.258 71.75H180.695V70.1562H187.43C187.438 73.9453 185.055 76.6016 180.82 77.7812L180.023 76.1719ZM181.945 80.5469C181.93 78.7656 183.867 77.6406 186.758 77.6406C189.656 77.6406 191.547 78.7656 191.555 80.5469C191.547 82.3438 189.656 83.4531 186.758 83.4531C183.867 83.4531 181.93 82.3438 181.945 80.5469ZM183.914 80.5469C183.906 81.4062 184.969 81.8984 186.758 81.8906C188.523 81.8984 189.586 81.4062 189.586 80.5469C189.586 79.6719 188.523 79.1875 186.758 79.1875C184.969 79.1875 183.906 79.6719 183.914 80.5469ZM145.628 104.234V105.688H132.721V104.234H145.628ZM144.503 94.5781V95.9688H142.44V100.469H144.456V101.844H133.831V100.469H135.815V95.9688H133.784V94.5781H144.503ZM137.549 100.469H140.721V95.9688H137.549V100.469ZM159.136 104.312V105.75H146.229V104.312H151.792V102.016H147.761V97.3906H155.886V95.6406H147.729V94.2344H157.604V98.7656H149.495V100.594H157.932V102.016H153.511V104.312H159.136ZM170.8 93.2656V98.6406H172.972V100.109H170.8V107.391H169.066V93.2656H170.8ZM161.956 94.4219V97.9531H165.284V94.4219H167.019V104.078H160.238V94.4219H161.956ZM161.956 102.656H165.284V99.3125H161.956V102.656ZM184.996 93.2656V107.406H183.246V93.2656H184.996ZM177.386 94.2969C179.511 94.2969 181.058 96.2344 181.074 99.2812C181.058 102.359 179.511 104.281 177.386 104.281C175.246 104.281 173.699 102.359 173.699 99.2812C173.699 96.2344 175.246 94.2969 177.386 94.2969ZM177.386 95.8594C176.183 95.8594 175.371 97.125 175.371 99.2812C175.371 101.453 176.183 102.719 177.386 102.719C178.574 102.719 179.386 101.453 179.386 99.2812C179.386 97.125 178.574 95.8594 177.386 95.8594ZM193.176 94.0625C196.207 94.0625 198.441 95.5781 198.441 97.875C198.441 99.9922 196.621 101.406 194.035 101.656V104.25H199.66V105.672H186.754V104.25H192.316V101.656C189.746 101.406 187.926 99.9922 187.941 97.875C187.926 95.5781 190.16 94.0625 193.176 94.0625ZM193.176 95.4688C191.113 95.4531 189.629 96.3906 189.644 97.875C189.629 99.4062 191.113 100.312 193.176 100.312C195.269 100.312 196.738 99.4062 196.738 97.875C196.738 96.3906 195.269 95.4531 193.176 95.4688ZM212.027 102.438V107.391H210.277V103.844H202.387V102.438H212.027ZM212.027 93.2656V101.844H210.277V93.2656H212.027ZM207.871 94.2188V95.6094H202.809V97H207.465V98.3438H202.809V99.8125C205.449 99.8047 207.059 99.7266 208.918 99.4375L209.09 100.812C207.059 101.141 205.293 101.188 202.246 101.188H201.043V94.2188H207.871ZM221.067 95.2031C221.067 97.3906 223.207 99.5781 226.161 100.094L225.379 101.547C223.012 101.047 221.075 99.6172 220.161 97.7188C219.223 99.6016 217.286 101.039 214.926 101.547L214.161 100.094C217.082 99.5625 219.207 97.375 219.223 95.2031V94.1562H221.067V95.2031ZM226.676 104.156V105.594H213.77V104.156H226.676Z" fill="white"/>
<path d="M143.514 52.7656V53.5781H130.951V52.7656H143.514ZM142.123 58.0625V58.8906H132.607V54.8906H133.607V58.0625H142.123ZM137.217 45.9219C140.17 45.9219 142.045 46.9219 142.045 48.6406C142.045 50.3438 140.17 51.3594 137.217 51.3594C134.248 51.3594 132.389 50.3438 132.389 48.6406C132.389 46.9219 134.248 45.9219 137.217 45.9219ZM137.217 46.7344C134.904 46.75 133.389 47.4844 133.404 48.6406C133.389 49.8125 134.904 50.5312 137.217 50.5312C139.529 50.5312 141.045 49.8125 141.045 48.6406C141.045 47.4844 139.529 46.75 137.217 46.7344ZM152.108 46.6875V58H150.983V47.8438H150.921L148.249 49.6094V48.4688L150.952 46.6875H152.108ZM158.491 58.1562C156.069 58.1562 154.663 56.0156 154.663 52.3438C154.663 48.6875 156.085 46.5312 158.491 46.5312C160.882 46.5312 162.304 48.6875 162.304 52.3438C162.304 56.0156 160.897 58.1562 158.491 58.1562ZM158.491 57.1562C160.21 57.1562 161.226 55.4062 161.226 52.3438C161.226 49.2812 160.194 47.5156 158.491 47.5156C156.772 47.5156 155.757 49.2812 155.757 52.3438C155.757 55.4062 156.772 57.1562 158.491 57.1562ZM167.499 58.1562C165.077 58.1562 163.671 56.0156 163.671 52.3438C163.671 48.6875 165.093 46.5312 167.499 46.5312C169.89 46.5312 171.312 48.6875 171.312 52.3438C171.312 56.0156 169.906 58.1562 167.499 58.1562ZM167.499 57.1562C169.218 57.1562 170.234 55.4062 170.234 52.3438C170.234 49.2812 169.202 47.5156 167.499 47.5156C165.781 47.5156 164.765 49.2812 164.765 52.3438C164.765 55.4062 165.781 57.1562 167.499 57.1562ZM175.148 51.75C173.789 51.7656 172.976 50.7188 172.992 49.125C172.976 47.5625 173.82 46.5156 175.148 46.5156C176.508 46.5156 177.289 47.5625 177.289 49.125C177.289 50.7188 176.476 51.7656 175.148 51.75ZM175.148 50.9688C175.929 50.9688 176.367 50.2656 176.367 49.125C176.367 48.0156 175.945 47.2969 175.148 47.3125C174.367 47.3281 173.914 48.0156 173.914 49.125C173.914 50.2656 174.351 50.9688 175.148 50.9688ZM181.742 58.1562C180.383 58.1562 179.586 57.125 179.586 55.5312C179.586 53.9688 180.414 52.9219 181.742 52.9219C183.086 52.9219 183.883 53.9688 183.883 55.5312C183.883 57.125 183.07 58.1562 181.742 58.1562ZM181.742 57.3594C182.523 57.3594 182.961 56.6562 182.961 55.5312C182.961 54.4219 182.539 53.7031 181.742 53.7188C180.961 53.7188 180.508 54.4219 180.508 55.5312C180.508 56.6562 180.945 57.3594 181.742 57.3594ZM173.992 58L181.773 46.6875H182.789L175.023 58H173.992ZM199.602 45.4375V50.0938H201.727V50.9375H199.602V55.7812H198.617V45.4375H199.602ZM197.133 47.2031V48.0312H188.914V47.2031H192.539V45.4531H193.508V47.2031H197.133ZM193.024 48.875C194.977 48.875 196.305 49.875 196.305 51.4219C196.305 52.9688 194.977 53.9531 193.024 53.9531C191.039 53.9531 189.727 52.9688 189.727 51.4219C189.727 49.875 191.039 48.875 193.024 48.875ZM193.024 49.6719C191.602 49.6719 190.649 50.375 190.664 51.4219C190.649 52.4531 191.602 53.1562 193.024 53.1406C194.43 53.1562 195.367 52.4531 195.383 51.4219C195.367 50.375 194.43 49.6719 193.024 49.6719ZM200.274 58.0625V58.8906H191.071V54.9375H192.039V58.0625H200.274ZM213.298 46.1094V47.0938C213.298 48.1172 213.298 49.3828 212.938 51.0938H215.001V51.9219H209.141V54.6562H213.407V59.2188H212.407V55.4688H203.688V54.6562H208.173V51.9219H202.376V51.0938H211.954C212.313 49.3516 212.313 48.1094 212.313 47.0938V46.9375H204.001V46.1094H213.298ZM223.743 47.0625V47.875H215.884V47.0625H219.368V45.3125H220.337V47.0625H223.743ZM219.853 48.6719C221.681 48.6719 222.946 49.6719 222.946 51.2188C222.946 52.75 221.681 53.75 219.853 53.75C217.993 53.75 216.743 52.75 216.759 51.2188C216.743 49.6719 217.993 48.6719 219.853 48.6719ZM219.853 49.4375C218.54 49.4375 217.665 50.1719 217.681 51.2188C217.665 52.2656 218.54 52.9844 219.853 52.9844C221.134 52.9844 222.024 52.2656 222.024 51.2188C222.024 50.1719 221.134 49.4375 219.853 49.4375ZM227.243 45.4375V54.3906H226.259V52.3281H223.681V51.5H226.259V49.6719H223.681V48.8438H226.259V45.4375H227.243ZM222.759 54.5156C225.603 54.5156 227.321 55.3594 227.321 56.8438C227.321 58.3281 225.603 59.1719 222.759 59.1719C219.868 59.1719 218.149 58.3281 218.149 56.8438C218.149 55.3594 219.868 54.5156 222.759 54.5156ZM222.759 55.2969C220.556 55.2969 219.165 55.875 219.165 56.8438C219.165 57.8125 220.556 58.3906 222.759 58.3906C224.931 58.3906 226.306 57.8125 226.306 56.8438C226.306 55.875 224.931 55.2969 222.759 55.2969ZM245.525 53.3438V54.1719H242.087V59.2188H241.103V54.1719H237.322V59.2188H236.306V54.1719H232.916V53.3438H245.525ZM239.197 46.0156C242.072 46.0156 243.994 47.1719 243.994 49C243.994 50.8125 242.072 51.9531 239.197 51.9531C236.322 51.9531 234.4 50.8125 234.4 49C234.4 47.1719 236.322 46.0156 239.197 46.0156ZM239.197 46.8281C236.947 46.8281 235.4 47.7031 235.4 49C235.4 50.2969 236.947 51.1406 239.197 51.1406C241.431 51.1406 242.994 50.2969 242.994 49C242.994 47.7031 241.431 46.8281 239.197 46.8281ZM250.939 48.1094C250.924 50.0469 252.502 51.8125 254.471 52.5156L253.955 53.3125C252.392 52.7266 251.096 51.5078 250.502 50C249.924 51.7266 248.611 53.0391 246.986 53.6875L246.439 52.8906C248.471 52.1406 249.971 50.2812 249.971 48.0469V46.2656H250.939V48.1094ZM257.174 45.4219V49.7344H259.299V50.5781H257.174V55.6406H256.189V45.4219H257.174ZM257.846 58.0625V58.8906H248.658V54.6562H249.674V58.0625H257.846ZM270.869 46.2188V47.2188C270.869 48.3203 270.869 49.6328 270.526 51.4062H272.573V52.25H268.916V55.6875H267.963V52.25H265.088V55.6875H264.135V52.25H259.948V51.4062H269.541C269.885 49.6094 269.885 48.3125 269.885 47.2188V47.0312H261.557V46.2188H270.869ZM271.229 58.0625V58.8906H261.557V54.6406H262.541V58.0625H271.229ZM279.721 46.375C282.596 46.3906 284.721 47.875 284.721 50.125C284.721 52.375 282.596 53.8594 279.721 53.8438C276.862 53.8594 274.737 52.375 274.737 50.125C274.737 47.875 276.862 46.3906 279.721 46.375ZM279.721 47.1875C277.409 47.1875 275.659 48.4062 275.659 50.125C275.659 51.8438 277.409 53.0312 279.721 53.0312C282.034 53.0312 283.784 51.8438 283.784 50.125C283.784 48.4062 282.034 47.1875 279.721 47.1875ZM286.081 56.4844V57.3281H273.456V56.4844H286.081ZM299.589 56.6094V57.4531H286.964V56.6094H292.745V53.8281H288.589V49.7031H296.979V47.3281H288.542V46.5H297.948V50.5312H289.557V53H298.276V53.8281H293.729V56.6094H299.589ZM65.8322 69.4375V74.0938H67.9572V74.9375H65.8322V79.7812H64.8478V69.4375H65.8322ZM63.3634 71.2031V72.0312H55.1447V71.2031H58.7697V69.4531H59.7384V71.2031H63.3634ZM59.2541 72.875C61.2072 72.875 62.5353 73.875 62.5353 75.4219C62.5353 76.9688 61.2072 77.9531 59.2541 77.9531C57.2697 77.9531 55.9572 76.9688 55.9572 75.4219C55.9572 73.875 57.2697 72.875 59.2541 72.875ZM59.2541 73.6719C57.8322 73.6719 56.8791 74.375 56.8947 75.4219C56.8791 76.4531 57.8322 77.1562 59.2541 77.1406C60.6603 77.1562 61.5978 76.4531 61.6134 75.4219C61.5978 74.375 60.6603 73.6719 59.2541 73.6719ZM66.5041 82.0625V82.8906H57.3009V78.9375H58.2697V82.0625H66.5041ZM79.5278 70.1094V71.0938C79.5278 72.1172 79.5278 73.3828 79.1684 75.0938H81.2309V75.9219H75.3716V78.6562H79.6372V83.2188H78.6372V79.4688H69.9184V78.6562H74.4028V75.9219H68.6059V75.0938H78.1841C78.5434 73.3516 78.5434 72.1094 78.5434 71.0938V70.9375H70.2309V70.1094H79.5278ZM93.4422 69.4375V79.5781H92.4578V69.4375H93.4422ZM93.8953 82.0625V82.8906H84.6453V78.5312H85.6297V82.0625H93.8953ZM86.0359 70.4375C88.0828 70.4375 89.5984 71.8125 89.5984 73.7812C89.5984 75.7656 88.0828 77.1562 86.0359 77.1406C83.9891 77.1562 82.4578 75.7656 82.4734 73.7812C82.4578 71.8125 83.9891 70.4375 86.0359 70.4375ZM86.0359 71.2969C84.5359 71.2969 83.4266 72.3594 83.4266 73.7812C83.4266 75.2188 84.5359 76.2656 86.0359 76.2656C87.5203 76.2656 88.6453 75.2188 88.6453 73.7812C88.6453 72.3594 87.5203 71.2969 86.0359 71.2969ZM100.138 70.4688C102.31 70.4688 103.81 71.7656 103.825 73.6562C103.81 75.5625 102.31 76.8438 100.138 76.8438C97.9816 76.8438 96.4503 75.5625 96.4503 73.6562C96.4503 71.7656 97.9816 70.4688 100.138 70.4688ZM100.138 71.3438C98.5597 71.3438 97.4034 72.3125 97.4191 73.6562C97.4034 75 98.5597 75.9844 100.138 75.9688C101.716 75.9844 102.857 75 102.857 73.6562C102.857 72.3125 101.716 71.3438 100.138 71.3438ZM106.841 69.4375V83.2344H105.857V69.4375H106.841ZM95.7003 79.25C98.2784 79.2656 101.81 79.25 104.903 78.7812L104.982 79.5312C101.794 80.125 98.3566 80.125 95.8566 80.125L95.7003 79.25ZM200.11 69.4219C203.383 69.4219 205.274 70.2812 205.282 71.8438C205.274 73.4297 203.383 74.2812 200.11 74.2812C196.828 74.2812 194.922 73.4297 194.922 71.8438C194.922 70.2812 196.828 69.4219 200.11 69.4219ZM193.625 76.5312V74.9531H206.594V76.5312H193.625ZM195.125 78.8125V77.3594H205.016V80.9844H197.094V81.8438H205.391V83.3438H195.141V79.5938H203.047V78.8125H195.125ZM197.016 71.8438C197.008 72.5391 198.024 72.8125 200.11 72.8125C202.211 72.8125 203.219 72.5391 203.219 71.8438C203.219 71.2109 202.211 70.875 200.11 70.875C198.024 70.875 197.008 71.2109 197.016 71.8438ZM222.485 69.2344V79.6094H220.501V74.5156H218.173V72.9062H220.501V69.2344H222.485ZM210.423 76.4062C212.774 75.6719 213.837 73.8203 213.845 72V71.7812H210.985V70.1875H218.704V71.7812H215.876V72.0156C215.868 73.6641 216.884 75.4219 219.142 76.1562L218.157 77.7344C216.587 77.2188 215.501 76.1875 214.884 74.9141C214.251 76.3281 213.118 77.4766 211.438 78.0312L210.423 76.4062ZM213.048 83.1875V78.7031H215.048V81.5938H222.829V83.1875H213.048ZM237.009 76.25V77.8281H231.65V80.2812H229.681V77.8281H223.993V76.25H237.009ZM225.525 83.1875V79.0469H227.509V81.5938H235.572V83.1875H225.525ZM225.618 75.0781V69.8438H235.337V75.0781H225.618ZM227.572 73.5312H233.384V71.3906H227.572V73.5312ZM245.72 70.0156V71.5938H242.892C242.9 73.2656 243.916 74.9922 246.158 75.7344L245.173 77.2656C243.603 76.7734 242.517 75.7422 241.9 74.4688C241.267 75.8828 240.134 77.0234 238.455 77.5625L237.439 75.9844C239.783 75.2422 240.845 73.3594 240.861 71.5938H238.002V70.0156H245.72ZM239.736 79.9062V78.3125H249.502V83.4375H247.517V79.9062H239.736ZM245.314 74.2656V72.6406H247.517V69.2188H249.502V77.6875H247.517V74.2656H245.314ZM257.478 70.375C260.353 70.3906 262.478 71.875 262.478 74.125C262.478 76.375 260.353 77.8594 257.478 77.8438C254.619 77.8594 252.494 76.375 252.494 74.125C252.494 71.875 254.619 70.3906 257.478 70.375ZM257.478 71.1875C255.166 71.1875 253.416 72.4062 253.416 74.125C253.416 75.8438 255.166 77.0312 257.478 77.0312C259.791 77.0312 261.541 75.8438 261.541 74.125C261.541 72.4062 259.791 71.1875 257.478 71.1875ZM263.838 80.4844V81.3281H251.213V80.4844H263.838ZM277.346 80.6094V81.4531H264.721V80.6094H270.502V77.8281H266.346V73.7031H274.737V71.3281H266.299V70.5H275.705V74.5312H267.315V77H276.033V77.8281H271.487V80.6094H277.346ZM293.128 69.4375V76.5938H292.143V72.9531H288.925V72.125H292.143V69.4375H293.128ZM293.128 77.3438V80.4844H285.268V82.2031H293.69V83.0156H284.315V79.7031H292.159V78.1562H284.268V77.3438H293.128ZM286.3 71.2656C286.3 73.1406 287.878 74.8125 289.831 75.4688L289.284 76.25C287.761 75.6875 286.456 74.5469 285.862 73.0781C285.276 74.7344 283.964 75.9922 282.331 76.6094L281.784 75.8125C283.784 75.1094 285.347 73.3594 285.362 71.2656V69.8594H286.3V71.2656ZM307.027 69.4375V83.2188H306.073V69.4375H307.027ZM304.261 69.8281V82.4844H303.308V77.625H300.558V76.7969H303.308V74.1562H300.792C300.105 76.5156 298.55 78.6328 295.933 80.2031L295.339 79.4844C298.402 77.6562 299.995 74.9922 300.23 72.0625H295.886V71.2188H301.183C301.183 71.9297 301.12 72.6406 300.98 73.3281H303.308V69.8281H304.261ZM319.394 69.4375V75.2031H321.769V76.0469H319.394V83.2188H318.41V69.4375H319.394ZM316.941 71.7031V72.5312H308.707V71.7031H312.378V69.5781H313.363V71.7031H316.941ZM312.894 73.7969C314.832 73.7969 316.222 75.0781 316.222 76.9219C316.222 78.7656 314.832 80.0469 312.894 80.0469C310.957 80.0469 309.55 78.7656 309.566 76.9219C309.55 75.0781 310.957 73.7969 312.894 73.7969ZM312.894 74.625C311.519 74.6406 310.503 75.6094 310.503 76.9219C310.503 78.2344 311.519 79.2031 312.894 79.1875C314.269 79.2031 315.285 78.2344 315.285 76.9219C315.285 75.6094 314.269 74.6406 312.894 74.625ZM333.418 73.7344V74.5625H324.043V69.9375H325.012V73.7344H333.418ZM334.887 76.5625V77.375H322.277V76.5625H334.887ZM333.496 82.0312V82.875H323.98V78.875H324.949V82.0312H333.496ZM88.1181 104.234V105.688H75.2119V104.234H88.1181ZM86.9931 94.5781V95.9688H84.9306V100.469H86.9463V101.844H76.3213V100.469H78.3056V95.9688H76.2744V94.5781H86.9931ZM80.04 100.469H83.2119V95.9688H80.04V100.469ZM100.486 93.2656V107.406H98.7669V93.2656H100.486ZM96.1419 94.5V99.7969H91.2825V102.641C93.5091 102.625 95.4309 102.516 97.6263 102.141L97.7825 103.562C95.3763 103.984 93.2669 104.062 90.7356 104.062H89.5013V98.4219H94.3763V95.9062H89.4856V94.5H96.1419ZM109.697 94.5938V103.953H102.978V94.5938H109.697ZM104.697 95.9531V102.562H108.009V95.9531H104.697ZM113.978 93.2656V107.406H112.228V93.2656H113.978ZM119.658 94.0469C121.478 94.0312 122.916 95.1016 123.283 96.6875H125.83V93.2656H127.564V101.312H125.83V98.1094H123.299C122.963 99.7344 121.51 100.828 119.658 100.828C117.518 100.828 115.924 99.4219 115.924 97.4375C115.924 95.4531 117.518 94.0312 119.658 94.0469ZM119.658 95.5C118.455 95.4844 117.58 96.2656 117.58 97.4375C117.58 98.625 118.455 99.3594 119.658 99.375C120.83 99.3594 121.689 98.625 121.705 97.4375C121.689 96.2656 120.83 95.4844 119.658 95.5ZM127.564 101.969V107.219H118.174V101.969H127.564ZM119.908 103.344V105.812H125.861V103.344H119.908ZM243.661 104.188V105.625H230.755V104.188H243.661ZM233.911 94.2188V96.6406H240.458V94.2188H242.193V101.672H232.177V94.2188H233.911ZM233.911 100.312H240.458V98H233.911V100.312ZM256.341 93.2812V103.766H254.685V98.7812H253.216V103.438H251.591V93.5469H253.216V97.3594H254.685V93.2812H256.341ZM256.732 105.703V107.109H246.888V102.781H248.622V105.703H256.732ZM250.216 94.4375V98.7188H246.544V100.391C248.185 100.375 249.435 100.289 250.872 100.016L251.029 101.406C249.326 101.703 247.888 101.766 245.826 101.766H244.857V97.4062H248.544V95.8125H244.841V94.4375H250.216ZM269.24 99.8906V101.281H259.334V94.5H269.131V95.9062H261.052V99.8906H269.24ZM270.677 104.156V105.594H257.771V104.156H270.677ZM282.748 93.4375V100.812H281.764V93.4375H282.748ZM274.889 101.547V103.359H281.779V101.547H282.748V107.016H273.92V101.547H274.889ZM274.889 106.203H281.779V104.172H274.889V106.203ZM275.342 94.125C277.42 94.125 278.904 95.3906 278.904 97.2812C278.904 99.1406 277.42 100.422 275.342 100.406C273.264 100.422 271.764 99.1406 271.779 97.2812C271.764 95.3906 273.264 94.125 275.342 94.125ZM275.342 94.9688C273.826 94.9688 272.733 95.9375 272.733 97.2812C272.733 98.6094 273.826 99.5781 275.342 99.5781C276.858 99.5781 277.951 98.6094 277.951 97.2812C277.951 95.9375 276.858 94.9688 275.342 94.9688ZM296.209 93.4375V107.219H295.241V93.4375H296.209ZM286.834 94.7969V102.734H286.959C289.116 102.734 291.288 102.562 293.663 102.062L293.803 102.922C291.35 103.438 289.194 103.609 286.959 103.609H285.866V94.7969H286.834ZM309.046 93.4375V99H311.421V99.8281H309.046V107.234H308.061V93.4375H309.046ZM300.124 102.891C302.749 102.891 304.53 102.797 306.624 102.406L306.764 103.266C304.592 103.656 302.796 103.75 300.124 103.75H299.061V94.7969H305.483V95.625H300.046V102.891H300.124ZM313.304 106.078C312.835 106.078 312.46 105.703 312.46 105.25C312.46 104.781 312.835 104.406 313.304 104.406C313.757 104.406 314.132 104.781 314.132 105.25C314.132 105.703 313.757 106.078 313.304 106.078Z" fill="white"/>
</svg>
