<svg width="124" height="32" viewBox="0 0 124 32" fill="none" xmlns="http://www.w3.org/2000/svg">
<g clip-path="url(#clip0_1024_19640)">
<mask id="mask0_1024_19640" style="mask-type:luminance" maskUnits="userSpaceOnUse" x="0" y="0" width="124" height="32">
<path d="M0 0H124V32H0V0Z" fill="white"/>
</mask>
<g mask="url(#mask0_1024_19640)">
<path d="M9.93561 10.7256C16.2822 10.7256 19.4548 14.1881 19.4548 21.1129V21.2041C19.3942 28.1278 16.2106 31.5901 9.90486 31.5901H1.24023V10.7256H9.93561ZM4.93258 27.9258H10.8204C12.4882 27.9258 13.7285 27.3778 14.5432 26.2797C15.356 25.1816 15.7631 23.4447 15.7631 21.0671C15.7631 16.6157 14.1254 14.3898 10.8507 14.3898H4.93258V27.9258Z" fill="white"/>
</g>
<mask id="mask1_1024_19640" style="mask-type:luminance" maskUnits="userSpaceOnUse" x="0" y="0" width="124" height="32">
<path d="M0 0H124V32H0V0Z" fill="white"/>
</mask>
<g mask="url(#mask1_1024_19640)">
<path d="M39.8352 23.6868C39.8352 24.8782 39.6525 25.9576 39.2862 26.9274C38.9199 27.8956 38.3712 28.7241 37.639 29.41C36.9069 30.097 35.986 30.6319 34.8775 31.0153C33.7687 31.3987 32.4825 31.5901 31.0179 31.5901C29.5733 31.5901 28.3027 31.3987 27.2042 31.0153C26.1059 30.6319 25.18 30.0917 24.4279 29.3949C23.6753 28.6983 23.1059 27.8659 22.719 26.8973C22.3326 25.9278 22.1396 24.868 22.1396 23.7165V10.7256H25.831V23.6039C25.831 24.8733 26.2938 25.9108 27.2196 26.7175C28.1447 27.5236 29.4315 27.9258 31.0788 27.9258H31.1708C32.8184 27.9258 34.0582 27.5236 34.8926 26.7175C35.7267 25.9108 36.1441 24.8733 36.1441 23.6039V10.7256H39.8352V23.6868Z" fill="white"/>
</g>
<mask id="mask2_1024_19640" style="mask-type:luminance" maskUnits="userSpaceOnUse" x="0" y="0" width="124" height="32">
<path d="M0 0H124V32H0V0Z" fill="white"/>
</mask>
<g mask="url(#mask2_1024_19640)">
<path d="M75.3481 31.5901C73.803 31.5901 72.45 31.3793 71.2906 30.9544C70.1319 30.5304 69.16 29.9245 68.3764 29.1379C67.5943 28.3503 67.0089 27.4014 66.6229 26.2909C66.236 25.1812 66.043 23.9395 66.043 22.5665V10.7258H69.7347V22.5763C69.7347 24.2689 70.2174 25.5841 71.1841 26.5208C72.1493 27.4583 73.4976 27.9258 75.2265 27.9258H81.6337V31.5901H75.3481Z" fill="white"/>
</g>
<mask id="mask3_1024_19640" style="mask-type:luminance" maskUnits="userSpaceOnUse" x="0" y="0" width="124" height="32">
<path d="M0 0H124V32H0V0Z" fill="white"/>
</mask>
<g mask="url(#mask3_1024_19640)">
<path d="M115.101 31.5901C108.715 31.5901 105.522 28.1182 105.522 21.1731V21.0826C105.542 14.1781 108.746 10.7258 115.133 10.7258H122.76V14.3897H114.186C112.518 14.3897 111.273 14.9341 110.449 16.0217C109.626 17.1093 109.213 18.8319 109.213 21.1882C109.213 25.6809 110.862 27.9258 114.156 27.9258H122.729V31.5901H115.101Z" fill="white"/>
</g>
<mask id="mask4_1024_19640" style="mask-type:luminance" maskUnits="userSpaceOnUse" x="0" y="0" width="124" height="32">
<path d="M0 0H124V32H0V0Z" fill="white"/>
</mask>
<g mask="url(#mask4_1024_19640)">
<path d="M53.9985 10.7256C60.3334 10.7256 63.5312 14.1781 63.593 21.0823V21.1731C63.593 28.1181 60.4052 31.5901 54.0292 31.5901H52.3788C46.0032 31.5901 42.8154 28.1181 42.8154 21.1731V21.0823C42.8356 14.1781 46.0335 10.7256 52.4099 10.7256H53.9985ZM51.4691 14.3898C49.8051 14.3898 48.5617 14.9343 47.7401 16.0215C46.9181 17.1093 46.5072 18.8319 46.5072 21.1882C46.5072 25.6808 48.1509 27.9258 51.4384 27.9258H54.9704C58.2573 27.9258 59.9008 25.6808 59.9008 21.1882C59.9008 18.8319 59.4848 17.1093 58.6533 16.0215C57.8203 14.9343 56.5833 14.3898 54.9397 14.3898H51.4691Z" fill="white"/>
</g>
<mask id="mask5_1024_19640" style="mask-type:luminance" maskUnits="userSpaceOnUse" x="0" y="0" width="124" height="32">
<path d="M0 0H124V32H0V0Z" fill="white"/>
</mask>
<g mask="url(#mask5_1024_19640)">
<path d="M53.4046 18.5329H53.0049C51.4001 18.5329 50.5951 19.4014 50.5898 21.1391V21.1619C50.5898 22.9095 51.3922 23.7837 52.9969 23.7837H53.4121C55.017 23.7837 55.8194 22.9095 55.8194 21.1619V21.1391C55.8039 19.4014 54.9985 18.5329 53.4046 18.5329Z" fill="white"/>
</g>
<mask id="mask6_1024_19640" style="mask-type:luminance" maskUnits="userSpaceOnUse" x="0" y="0" width="124" height="32">
<path d="M0 0H124V32H0V0Z" fill="white"/>
</mask>
<g mask="url(#mask6_1024_19640)">
<path d="M90.1335 23.9234L93.3182 14.9955C93.4603 14.6119 93.7248 14.4201 94.1124 14.4201C94.4979 14.4201 94.7624 14.6119 94.9041 14.9955L98.0887 23.9234H90.1335ZM100.824 31.5901H104.729L98.1992 13.4212C97.8737 12.5127 97.356 11.8365 96.6432 11.3921C95.9311 10.9476 95.0879 10.7258 94.1124 10.7258C93.1358 10.7258 92.2902 10.9476 91.5795 11.3921C90.8672 11.8365 90.348 12.5127 90.0228 13.4212L83.4932 31.5901H87.3987L88.8885 27.4133H99.3337L100.824 31.5901Z" fill="white"/>
</g>
<mask id="mask7_1024_19640" style="mask-type:luminance" maskUnits="userSpaceOnUse" x="0" y="0" width="124" height="32">
<path d="M0 0H124V32H0V0Z" fill="white"/>
</mask>
<g mask="url(#mask7_1024_19640)">
<path d="M59.8433 0.411299C61.6679 0.411299 62.5901 1.40588 62.6061 3.39444V3.42028C62.6061 5.42139 61.6882 6.4209 59.8518 6.4209H59.3769C57.5405 6.4209 56.6221 5.42139 56.6221 3.42028V3.39444C56.6278 1.40588 57.5493 0.411299 59.3857 0.411299H59.8433ZM59.1146 1.46631C58.6353 1.46631 58.2772 1.62311 58.0405 1.93647C57.804 2.25007 57.6856 2.74619 57.6856 3.42471C57.6856 4.71887 58.1593 5.36576 59.1054 5.36576H60.1238C61.0702 5.36576 61.5436 4.71887 61.5436 3.42471C61.5436 2.74619 61.4233 2.25007 61.1842 1.93647C60.9441 1.62311 60.588 1.46631 60.1145 1.46631H59.1146Z" fill="white"/>
</g>
<mask id="mask8_1024_19640" style="mask-type:luminance" maskUnits="userSpaceOnUse" x="0" y="0" width="124" height="32">
<path d="M0 0H124V32H0V0Z" fill="white"/>
</mask>
<g mask="url(#mask8_1024_19640)">
<path d="M69.9199 0.411542H70.9831V6.42114H69.9199V0.411542Z" fill="white"/>
</g>
<mask id="mask9_1024_19640" style="mask-type:luminance" maskUnits="userSpaceOnUse" x="0" y="0" width="124" height="32">
<path d="M0 0H124V32H0V0Z" fill="white"/>
</mask>
<g mask="url(#mask9_1024_19640)">
<path d="M75.289 0.411299C77.1148 0.411299 78.036 1.40588 78.0533 3.39444V3.42028C78.0533 5.42139 77.1344 6.4209 75.2984 6.4209H74.8233C72.9868 6.4209 72.0684 5.42139 72.0684 3.42028V3.39444C72.0752 1.40588 72.9954 0.411299 74.8318 0.411299H75.289ZM74.5616 1.46631C74.0811 1.46631 73.7234 1.62311 73.4865 1.93647C73.25 2.25007 73.1325 2.74619 73.1325 3.42471C73.1325 4.71887 73.605 5.36576 74.5525 5.36576H75.5695C76.5169 5.36576 76.9897 4.71887 76.9897 3.42471C76.9897 2.74619 76.87 2.25007 76.6307 1.93647C76.3904 1.62311 76.0336 1.46631 75.5607 1.46631H74.5616Z" fill="white"/>
</g>
<mask id="mask10_1024_19640" style="mask-type:luminance" maskUnits="userSpaceOnUse" x="0" y="0" width="124" height="32">
<path d="M0 0H124V32H0V0Z" fill="white"/>
</mask>
<g mask="url(#mask10_1024_19640)">
<path d="M81.4121 6.42114H80.3479V1.46668H78.8545V0.411543H82.817V1.46668H81.4121V6.42114Z" fill="white"/>
</g>
<mask id="mask11_1024_19640" style="mask-type:luminance" maskUnits="userSpaceOnUse" x="0" y="0" width="124" height="32">
<path d="M0 0H124V32H0V0Z" fill="white"/>
</mask>
<g mask="url(#mask11_1024_19640)">
<path d="M84.0938 0.411542H85.1571V6.42114H84.0938V0.411542Z" fill="white"/>
</g>
<mask id="mask12_1024_19640" style="mask-type:luminance" maskUnits="userSpaceOnUse" x="0" y="0" width="124" height="32">
<path d="M0 0H124V32H0V0Z" fill="white"/>
</mask>
<g mask="url(#mask12_1024_19640)">
<path d="M89.0013 6.42114C87.162 6.42114 86.2422 5.42151 86.2422 3.42065V3.39468C86.2478 1.406 87.1706 0.411543 89.0106 0.411543H91.207V1.46668H88.7382C88.2571 1.46668 87.8981 1.62324 87.661 1.93659C87.4238 2.25019 87.305 2.74644 87.305 3.42484C87.305 4.71899 87.7793 5.36563 88.7286 5.36563H91.1977V6.42114H89.0013Z" fill="white"/>
</g>
<mask id="mask13_1024_19640" style="mask-type:luminance" maskUnits="userSpaceOnUse" x="0" y="0" width="124" height="32">
<path d="M0 0H124V32H0V0Z" fill="white"/>
</mask>
<g mask="url(#mask13_1024_19640)">
<path d="M97.5663 4.6684C97.5663 5.24982 97.3981 5.68699 97.0616 5.9809C96.7244 6.2748 96.2546 6.42114 95.651 6.42114H92.5397V5.36588H95.853C96.0398 5.36588 96.1958 5.29536 96.3182 5.1537C96.4426 5.01191 96.5031 4.84059 96.5031 4.63751C96.5031 4.4465 96.4426 4.28084 96.3182 4.13905C96.1958 3.99727 96.0398 3.92724 95.853 3.92724H94.1485C93.797 3.92724 93.4997 3.87431 93.256 3.76994C93.0131 3.66471 92.8171 3.5281 92.6674 3.35948C92.5174 3.19087 92.4096 3.00391 92.3419 2.79739C92.2742 2.5905 92.2412 2.38545 92.2412 2.18274C92.2412 1.93757 92.2764 1.70939 92.3474 1.4972C92.4178 1.28502 92.5316 1.0977 92.688 0.935112C92.8448 0.772282 93.0434 0.644158 93.285 0.551236C93.5257 0.457943 93.8171 0.41142 94.1564 0.41142H97.1798V1.46668H93.9897C93.8965 1.46668 93.8082 1.48625 93.7262 1.52367C93.6443 1.56182 93.5724 1.61191 93.511 1.67628C93.4492 1.73979 93.3994 1.81462 93.3622 1.89844C93.3231 1.98324 93.3048 2.07173 93.3048 2.1649C93.3048 2.36231 93.3716 2.52994 93.5065 2.66631C93.6409 2.8033 93.8036 2.87173 93.9974 2.87173H95.6725C96.2574 2.87173 96.7181 3.01819 97.0576 3.31185C97.3978 3.60514 97.5663 4.04256 97.5663 4.62471V4.6684Z" fill="white"/>
</g>
<mask id="mask14_1024_19640" style="mask-type:luminance" maskUnits="userSpaceOnUse" x="0" y="0" width="124" height="32">
<path d="M0 0H124V32H0V0Z" fill="white"/>
</mask>
<g mask="url(#mask14_1024_19640)">
<path d="M49.6588 1.49696C49.586 1.28478 49.4715 1.09745 49.3158 0.934868C49.1603 0.771791 48.962 0.644406 48.7219 0.550868C48.4805 0.457822 48.1932 0.411422 47.8582 0.411422H44.8301V1.46656H44.8308V4.60416C44.8308 4.61105 44.8301 4.61733 44.8301 4.62471V6.4209H45.8936V4.64145C45.8936 4.44958 45.957 4.28244 46.083 4.14041C46.2088 3.99788 46.3663 3.9265 46.5542 3.9265H47.8582C48.2041 3.9265 48.4992 3.87567 48.7428 3.77364C48.9864 3.67247 49.1851 3.53794 49.3375 3.37216C49.4904 3.20699 49.6 3.01954 49.6679 2.81007C49.7354 2.60059 49.7689 2.39148 49.7689 2.18225C49.7689 1.93758 49.7322 1.70939 49.6588 1.49696ZM48.5038 2.66545C48.3688 2.80268 48.2046 2.87099 48.0114 2.87099H46.7372C46.4189 2.87099 46.1377 2.91579 45.8908 3.00268V1.46656H48.0207C48.1142 1.46656 48.202 1.48564 48.2842 1.52293C48.3661 1.5617 48.4379 1.61179 48.4992 1.67604C48.5612 1.73979 48.6103 1.8145 48.6485 1.89844C48.687 1.98287 48.7059 2.07161 48.7059 2.16502C48.7059 2.36231 48.6379 2.52982 48.5038 2.66545Z" fill="white"/>
</g>
<mask id="mask15_1024_19640" style="mask-type:luminance" maskUnits="userSpaceOnUse" x="0" y="0" width="124" height="32">
<path d="M0 0H124V32H0V0Z" fill="white"/>
</mask>
<g mask="url(#mask15_1024_19640)">
<path d="M68.0259 3.39443C68.2616 3.25474 68.4334 3.07135 68.5404 2.84501C68.6458 2.61769 68.6992 2.39701 68.6992 2.18261C68.6992 1.93203 68.6655 1.69978 68.5978 1.48464C68.5297 1.26901 68.4195 1.08157 68.2652 0.921568C68.1116 0.761322 67.9128 0.636399 67.6687 0.546061C67.4234 0.456953 67.129 0.411291 66.7833 0.411291H64.8154V0.41006H63.7559V6.42188H64.8154V6.42089H66.7833C67.1347 6.42089 67.432 6.37031 67.673 6.2684C67.9148 6.16674 68.1116 6.03308 68.2652 5.86754C68.4195 5.70163 68.5297 5.51135 68.5978 5.29609C68.6655 5.08108 68.6992 4.86286 68.6992 4.64181C68.6992 4.39763 68.6458 4.16354 68.5404 3.93991C68.4334 3.71603 68.2616 3.53388 68.0259 3.39443ZM67.4436 5.158C67.3145 5.29609 67.1469 5.36575 66.9415 5.36575H64.8154V3.92698H66.9496C67.0447 3.92698 67.132 3.9452 67.215 3.98298C67.2966 4.01991 67.368 4.07111 67.4287 4.13424C67.4906 4.19861 67.54 4.27197 67.5784 4.35591C67.6171 4.4396 67.6367 4.52809 67.6367 4.62003C67.6367 4.84058 67.5708 5.01929 67.4436 5.158ZM67.4436 2.66618C67.3145 2.80317 67.1469 2.87135 66.9415 2.87135H64.8154V1.46643H66.9496C67.0447 1.46643 67.132 1.48588 67.215 1.52341C67.2966 1.56169 67.368 1.61178 67.4287 1.67603C67.4906 1.74028 67.54 1.81449 67.5784 1.89831C67.6171 1.98311 67.6367 2.07148 67.6367 2.16489C67.6367 2.36218 67.5708 2.52969 67.4436 2.66618Z" fill="white"/>
</g>
<mask id="mask16_1024_19640" style="mask-type:luminance" maskUnits="userSpaceOnUse" x="0" y="0" width="124" height="32">
<path d="M0 0H124V32H0V0Z" fill="white"/>
</mask>
<g mask="url(#mask16_1024_19640)">
<path d="M54.6289 3.79449C54.6474 3.78784 54.6665 3.78107 54.6846 3.77369C54.9275 3.67239 55.1256 3.53812 55.2783 3.37221C55.4313 3.20692 55.5407 3.01972 55.6086 2.81012C55.6759 2.60064 55.7098 2.39153 55.7098 2.18243C55.7098 1.93775 55.6726 1.70944 55.5998 1.49701C55.5268 1.28495 55.4116 1.0975 55.2563 0.935041C55.1008 0.771842 54.9031 0.644087 54.662 0.551041C54.4216 0.457872 54.1339 0.411472 53.7993 0.411472H50.7705V1.46661H50.7715V6.42969H51.8318V1.46661H53.9614C54.0548 1.46661 54.1423 1.48569 54.2247 1.52298C54.3069 1.56175 54.3784 1.61172 54.4399 1.67621C54.5013 1.73984 54.5509 1.81467 54.5891 1.89849C54.6275 1.9828 54.6465 2.07166 54.6465 2.16519C54.6465 2.36224 54.5793 2.52987 54.4445 2.66563C54.3095 2.80273 54.1457 2.87116 53.9525 2.87116H52.2256V3.92655C54.511 3.92655 54.6317 6.42846 54.6317 6.42846H55.7098C55.7098 5.14046 55.231 4.31953 54.6289 3.79449Z" fill="white"/>
</g>
<mask id="mask17_1024_19640" style="mask-type:luminance" maskUnits="userSpaceOnUse" x="0" y="0" width="124" height="32">
<path d="M0 0H124V32H0V0Z" fill="white"/>
</mask>
<g mask="url(#mask17_1024_19640)">
<path d="M119.675 3.19025C121.333 3.19025 122.678 4.52391 122.678 6.17105C122.678 7.81807 121.333 9.1521 119.675 9.1521C118.016 9.1521 116.673 7.81807 116.672 6.17105C116.673 4.52391 118.016 3.19025 119.675 3.19025ZM119.675 3.68625C118.292 3.68896 117.176 4.79973 117.172 6.17105C117.176 7.54324 118.292 8.65265 119.675 8.65585C121.057 8.65265 122.175 7.54324 122.179 6.17105C122.175 4.79973 121.057 3.68896 119.675 3.68625Z" fill="white"/>
</g>
<mask id="mask18_1024_19640" style="mask-type:luminance" maskUnits="userSpaceOnUse" x="0" y="0" width="124" height="32">
<path d="M0 0H124V32H0V0Z" fill="white"/>
</mask>
<g mask="url(#mask18_1024_19640)">
<path d="M118.369 7.78076V4.41424H119.989C120.356 4.41424 120.636 4.49424 120.825 4.65288C121.016 4.81092 121.11 5.03504 121.11 5.32415C121.11 5.76119 120.924 6.04316 120.549 6.17313V6.18224C120.885 6.23012 121.053 6.46741 121.053 6.89485C121.053 7.35332 121.115 7.6487 121.238 7.78076H120.602C120.541 7.68341 120.511 7.51898 120.511 7.28599C120.511 6.96255 120.467 6.73572 120.378 6.6071C120.28 6.46556 120.1 6.39504 119.837 6.39504H118.963V7.78076H118.369ZM118.963 4.89609V5.94716H119.937C120.323 5.94716 120.516 5.76759 120.516 5.40956C120.516 5.06642 120.319 4.89609 119.928 4.89609H118.963Z" fill="white"/>
</g>
</g>
<defs>
<clipPath id="clip0_1024_19640">
<rect width="124" height="32" fill="white"/>
</clipPath>
</defs>
</svg>
