<svg width="390" height="152" viewBox="0 0 390 152" fill="none" xmlns="http://www.w3.org/2000/svg">
<rect width="390" height="152" fill="#B196C0"/>
<path d="M179.714 50.1719V51.7969H169.886V45.8906H179.574V47.4844H171.933V50.1719H179.714ZM168.23 54.7969V53.2031H181.246V54.7969H178.277V59.4375H176.261V54.7969H173.261V59.4375H171.277V54.7969H168.23ZM188.238 45.9531C191.293 45.9531 193.59 47.5 193.598 49.8438C193.59 51.9922 191.777 53.4297 189.223 53.7109V56.1406H194.769V57.7812H181.754V56.1406H187.238V53.7109C184.699 53.4219 182.894 51.9844 182.894 49.8438C182.894 47.5 185.183 45.9531 188.238 45.9531ZM184.863 49.8438C184.863 51.3438 186.246 52.1797 188.238 52.1875C190.238 52.1797 191.621 51.3438 191.629 49.8438C191.621 48.4219 190.238 47.5391 188.238 47.5469C186.246 47.5391 184.863 48.4219 184.863 49.8438ZM207.481 45.2344V53.125H205.59V49.9688H204.356V53.0469H202.496V45.4531H204.356V48.4062H205.59V45.2344H207.481ZM195.824 47.5156V45.9531H201.246V50H197.762V51.1172C199.317 51.1016 200.481 51.0469 201.824 50.7812L201.996 52.375C200.332 52.6641 198.934 52.7188 196.824 52.7188H195.84V48.5469H199.324V47.5156H195.824ZM197.762 59.2812V53.7031H199.731V54.9062H205.512V53.7031H207.481V59.2812H197.762ZM199.731 57.6875H205.512V56.4531H199.731V57.6875ZM202.27 69.2188V83.4688H200.254V69.2188H202.27ZM190.785 75.2812C190.777 72.1797 192.363 70.2188 194.551 70.2188C196.692 70.2188 198.285 72.1797 198.285 75.2812C198.285 78.4062 196.692 80.3594 194.551 80.3594C192.363 80.3594 190.777 78.4062 190.785 75.2812ZM192.707 75.2812C192.699 77.3984 193.442 78.5547 194.551 78.5469C195.629 78.5547 196.356 77.3984 196.363 75.2812C196.356 73.1719 195.629 72.0156 194.551 72.0156C193.442 72.0156 192.699 73.1719 192.707 75.2812ZM215.887 69.2188V83.4688H213.903V75.2344H210.012V73.6094H213.903V69.2188H215.887ZM204.606 80.125V70.7344H206.606V78.4609C208.411 78.4297 210.27 78.2734 212.2 77.9062L212.418 79.5312C210.122 80.0078 207.934 80.125 205.809 80.125H204.606ZM230.38 77.2656V78.875H227.442V83.4375H225.442V78.875H222.333V83.4375H220.286V78.875H217.364V77.2656H230.38ZM218.895 75.9219V69.75H220.864V71.3281H226.833V69.75H228.833V75.9219H218.895ZM220.864 74.3438H226.833V72.8906H220.864V74.3438ZM238.903 70.3906V72.0156H233.638V74.3594H238.31V75.9219H233.638V78.6094C235.818 78.5938 237.552 78.5078 239.544 78.2031L239.732 79.8125C237.497 80.1406 235.458 80.2031 232.888 80.2031H231.669V70.3906H238.903ZM240.825 83.4375V69.2188H242.841V83.4375H240.825ZM260.06 69.2188V83.4375H258.17V69.2188H260.06ZM247.467 79.2812C249.56 77.9922 250.342 75.4453 250.342 73.0312V72.2656H248.013V70.6719H254.42V72.2656H252.263V73.0312C252.256 75.3906 252.998 77.7812 255.076 78.9688L253.904 80.4375C252.631 79.6875 251.803 78.4219 251.318 76.8906C250.834 78.5469 249.974 79.9531 248.67 80.75L247.467 79.2812ZM253.404 75.7031V74.0938H255.279V69.4531H257.154V82.7812H255.279V75.7031H253.404ZM274.24 75.875V77.4531H268.74V78.6719H272.693V83.2812H262.772V78.6719H266.756V77.4531H261.272V75.875H274.24ZM262.412 71.2031V69.6094H273.084V71.2031H271.225V73.375H272.99V74.9688H262.506V73.375H264.256V71.2031H262.412ZM264.74 81.6875H270.74V80.2188H264.74V81.6875ZM266.256 73.375H269.225V71.2031H266.256V73.375ZM135.791 98.1719V99.7969H125.963V93.8906H135.651V95.4844H128.01V98.1719H135.791ZM124.307 102.797V101.203H137.323V102.797H134.354V107.438H132.338V102.797H129.338V107.438H127.354V102.797H124.307ZM144.315 93.9531C147.37 93.9531 149.667 95.5 149.674 97.8438C149.667 99.9922 147.854 101.43 145.299 101.711V104.141H150.846V105.781H137.831V104.141H143.315V101.711C140.776 101.422 138.971 99.9844 138.971 97.8438C138.971 95.5 141.26 93.9531 144.315 93.9531ZM140.94 97.8438C140.94 99.3438 142.323 100.18 144.315 100.188C146.315 100.18 147.698 99.3438 147.706 97.8438C147.698 96.4219 146.315 95.5391 144.315 95.5469C142.323 95.5391 140.94 96.4219 140.94 97.8438ZM158.37 94.0156V98.375H153.839V99.7344C156.182 99.7188 157.776 99.6406 159.589 99.3125L159.807 100.906C157.768 101.273 155.94 101.367 153.057 101.359H151.854V96.8594H156.432V95.6094H151.839V94.0156H158.37ZM153.042 104.109V102.516H162.62V107.422H160.62V104.109H153.042ZM160.62 101.859V93.2344H162.62V96.625H164.542V98.2656H162.62V101.859H160.62ZM169.456 94.1719C171.714 94.1641 173.386 95.6172 173.394 97.6562C173.386 99.7031 171.714 101.148 169.456 101.156C167.214 101.148 165.495 99.7031 165.503 97.6562C165.495 95.6172 167.214 94.1641 169.456 94.1719ZM164.909 102.938C167.448 102.945 170.964 102.914 174.003 102.484L174.159 103.922C171.003 104.539 167.628 104.562 165.144 104.562L164.909 102.938ZM167.488 97.6562C167.48 98.7812 168.331 99.4297 169.456 99.4219C170.589 99.4297 171.448 98.7812 171.456 97.6562C171.448 96.5469 170.589 95.8906 169.456 95.8906C168.331 95.8906 167.48 96.5469 167.488 97.6562ZM174.816 107.469V93.2188H176.8V107.469H174.816ZM193.254 97.7031V99.2969H183.301V93.8594H185.285V97.7031H193.254ZM181.723 102.5V100.906H194.691V102.5H191.723V107.438H189.707V102.5H186.723V107.438H184.723V102.5H181.723ZM206.824 100.562V102.141H196.762V94.2656H206.715V95.875H198.793V97.375H206.387V98.9375H198.793V100.562H206.824ZM195.231 105.781V104.156H208.246V105.781H195.231ZM220.661 93.2188V107.469H218.676V93.2188H220.661ZM209.489 96.0156V94.4062H216.254V99.8906H211.567V102.5C213.739 102.484 215.575 102.375 217.661 102.031L217.833 103.641C215.497 104.055 213.379 104.141 210.786 104.141H209.504V98.3125H214.223V96.0156H209.489ZM227.575 95.6719C227.575 97.6406 228.552 99.5859 230.794 100.422L229.684 101.969C228.192 101.383 227.169 100.258 226.583 98.8594C225.966 100.352 224.864 101.531 223.247 102.141L222.184 100.578C224.52 99.75 225.552 97.7578 225.559 95.6719V94.0312H227.575V95.6719ZM224.762 107.188V102.766H226.778V105.594H234.528V107.188H224.762ZM229.809 99.4375V97.8281H232.247V96.6875H229.809V95.0781H232.247V93.2344H234.231V103.781H232.247V99.4375H229.809ZM252.138 104.094V105.719H239.122V104.094H252.138ZM240.497 101.719V94.125H242.497V96.4844H248.701V94.125H250.685V101.719H240.497ZM242.497 100.156H248.701V98.0312H242.497V100.156ZM264.849 93.2344V103.781H262.959V98.875H261.724V103.484H259.865V93.4844H261.724V97.2656H262.959V93.2344H264.849ZM253.193 95.9375V94.375H258.615V98.7969H255.131V100.258C256.685 100.242 257.849 100.164 259.193 99.9062L259.365 101.484C257.701 101.781 256.303 101.828 254.193 101.828H253.209V97.3281H256.693V95.9375H253.193ZM255.209 107.188V102.781H257.209V105.594H265.209V107.188H255.209ZM277.732 99.7969V101.391H267.67V94.4062H277.623V96.0156H269.639V99.7969H277.732ZM266.139 105.703V104.062H279.154V105.703H266.139Z" fill="white"/>
<path d="M221.52 52.7656V53.5781H208.957V52.7656H221.52ZM220.129 58.0625V58.8906H210.614V54.8906H211.614V58.0625H220.129ZM215.223 45.9219C218.176 45.9219 220.051 46.9219 220.051 48.6406C220.051 50.3438 218.176 51.3594 215.223 51.3594C212.254 51.3594 210.395 50.3438 210.395 48.6406C210.395 46.9219 212.254 45.9219 215.223 45.9219ZM215.223 46.7344C212.911 46.75 211.395 47.4844 211.411 48.6406C211.395 49.8125 212.911 50.5312 215.223 50.5312C217.536 50.5312 219.051 49.8125 219.051 48.6406C219.051 47.4844 217.536 46.75 215.223 46.7344ZM99.5247 69.4375V75H101.9V75.8281H99.5247V83.2344H98.5403V69.4375H99.5247ZM90.6028 78.8906C93.2278 78.8906 95.0091 78.7969 97.1028 78.4062L97.2434 79.2656C95.0716 79.6562 93.2747 79.75 90.6028 79.75H89.5403V70.7969H95.9622V71.625H90.5247V78.8906H90.6028ZM106.377 73.6875C106.377 75.9219 107.627 78.2344 109.486 79.2188L108.892 79.9844C107.486 79.1953 106.416 77.6719 105.923 75.9062C105.431 77.7734 104.377 79.4219 102.97 80.2656L102.361 79.5156C104.189 78.4531 105.423 76 105.439 73.6875V72.9219H102.642V72.0938H105.439V69.9531H106.392V72.0938H109.142V72.9219H106.377V73.6875ZM114.205 69.4375V83.2188H113.252V75.9531H111.142V82.5H110.205V69.75H111.142V75.0938H113.252V69.4375H114.205ZM128.557 80.6094V81.4531H115.932V80.6094H121.713V77.8281H117.557V73.7031H125.947V71.3281H117.51V70.5H126.916V74.5312H118.525V77H127.244V77.8281H122.697V80.6094H128.557ZM142.033 76.5312V77.375H136.33V80.3281H135.33V77.375H129.424V76.5312H142.033ZM140.627 82.0312V82.8906H131.096V78.8906H132.065V82.0312H140.627ZM135.705 69.8125C138.643 69.8125 140.533 70.8594 140.533 72.5625C140.533 74.25 138.643 75.2812 135.705 75.2812C132.783 75.2812 130.877 74.25 130.893 72.5625C130.877 70.8594 132.783 69.8125 135.705 69.8125ZM135.705 70.6406C133.455 70.6406 131.924 71.3906 131.924 72.5625C131.924 73.7031 133.455 74.4531 135.705 74.4531C137.971 74.4531 139.502 73.7031 139.502 72.5625C139.502 71.3906 137.971 70.6406 135.705 70.6406ZM150.503 72.2188C150.503 73.8125 151.643 75.4219 153.409 76.0938L152.878 76.875C151.518 76.3125 150.518 75.2422 150.034 73.9688C149.534 75.3438 148.487 76.5781 147.112 77.2031L146.565 76.4375C148.347 75.6406 149.55 73.7969 149.565 72.2188V70.2812H150.503V72.2188ZM158.143 69.4375V77.7656H157.206V73.9531H155.143V77.6875H154.206V69.7031H155.143V73.1094H157.206V69.4375H158.143ZM158.143 78.5781V83.2188H157.19V79.3906H148.925V78.5781H158.143ZM170.73 69.4375V72.5469H172.855V73.3906H170.73V76.5H169.745V69.4375H170.73ZM170.73 77.1875V80.4219H163.027V82.2031H171.292V83.0156H162.058V79.6406H169.777V77.9844H162.011V77.1875H170.73ZM164.058 70.2344C164.058 72.8594 162.855 74.4688 160.839 75.8438L160.152 75.2031C161.808 74.1641 162.886 73.0078 163.105 71.0625H160.402V70.2344H164.058ZM167.98 70.2344C167.964 72.8906 167.058 74.9062 164.823 76.5469L164.105 75.9531C165.98 74.6406 166.863 73.1328 167.027 71.0625H164.636V70.2344H167.98ZM178.019 70.4688C180.191 70.4688 181.691 71.7656 181.707 73.6562C181.691 75.5625 180.191 76.8438 178.019 76.8438C175.863 76.8438 174.332 75.5625 174.332 73.6562C174.332 71.7656 175.863 70.4688 178.019 70.4688ZM178.019 71.3438C176.441 71.3438 175.285 72.3125 175.3 73.6562C175.285 75 176.441 75.9844 178.019 75.9688C179.597 75.9844 180.738 75 180.738 73.6562C180.738 72.3125 179.597 71.3438 178.019 71.3438ZM184.722 69.4375V83.2344H183.738V69.4375H184.722ZM173.582 79.25C176.16 79.2656 179.691 79.25 182.785 78.7812L182.863 79.5312C179.675 80.125 176.238 80.125 173.738 80.125L173.582 79.25ZM287.53 75.3438V76.1719H274.967V75.3438H287.53ZM286.03 73.2812V74.1094H276.686V69.9688H285.873V70.7812H277.67V73.2812H286.03ZM285.873 77.5312V80.6094H277.514V82.2188H286.311V83.0312H276.561V79.8281H284.92V78.3281H276.514V77.5312H285.873ZM294.741 69.6875C297.772 69.6875 299.569 70.5312 299.569 72.0781C299.569 73.6406 297.772 74.5 294.741 74.5C291.71 74.5 289.913 73.6406 289.913 72.0781C289.913 70.5312 291.71 69.6875 294.741 69.6875ZM294.741 70.4531C292.382 70.4531 290.928 71.0781 290.928 72.0781C290.928 73.125 292.382 73.7344 294.741 73.7344C297.116 73.7344 298.569 73.125 298.569 72.0781C298.569 71.0781 297.116 70.4531 294.741 70.4531ZM301.038 75.5312V76.3438H288.475V75.5312H301.038ZM299.382 77.6562V80.6094H291.022V82.2344H299.819V83.0469H290.069V79.8438H298.428V78.4375H290.022V77.6562H299.382ZM71.5163 96.1094C71.5006 98.0781 73.0475 99.9062 75.0006 100.625L74.4381 101.406C72.9069 100.781 71.6178 99.5234 71.0475 97.9531C70.4616 99.6875 69.1334 101.062 67.5163 101.734L66.985 100.922C68.9694 100.156 70.5475 98.2188 70.5475 96.0469V94.2656H71.5163V96.1094ZM78.2975 93.4375V103.812H77.3131V97.6406H74.0788V96.7969H77.3131V93.4375H78.2975ZM78.6256 106.062V106.891H69.4694V102.594H70.4538V106.062H78.6256ZM93.0713 104.562V105.406H80.4463V104.562H86.2275V101.453H81.9775V94.4375H82.9775V97.0312H90.5088V94.4375H91.4775V101.453H87.2119V104.562H93.0713ZM82.9775 100.625H90.5088V97.8594H82.9775V100.625ZM105.267 93.4375V107.234H104.283V93.4375H105.267ZM97.9856 94.5312C100.017 94.5312 101.47 96.3906 101.47 99.2969C101.47 102.203 100.017 104.062 97.9856 104.062C95.9388 104.062 94.5013 102.203 94.5013 99.2969C94.5013 96.3906 95.9388 94.5312 97.9856 94.5312ZM97.9856 95.4062C96.5013 95.4062 95.4544 97 95.4544 99.2969C95.4544 101.609 96.5013 103.188 97.9856 103.188C99.47 103.188 100.501 101.609 100.501 99.2969C100.501 97 99.47 95.4062 97.9856 95.4062ZM118.588 97.7344V98.5625H109.213V93.9375H110.181V97.7344H118.588ZM120.056 100.562V101.375H107.447V100.562H120.056ZM118.666 106.031V106.875H109.15V102.875H110.119V106.031H118.666ZM291.163 93.4375V100.812H290.178V93.4375H291.163ZM283.303 101.547V103.359H290.194V101.547H291.163V107.016H282.334V101.547H283.303ZM283.303 106.203H290.194V104.172H283.303V106.203ZM283.756 94.125C285.834 94.125 287.319 95.3906 287.319 97.2812C287.319 99.1406 285.834 100.422 283.756 100.406C281.678 100.422 280.178 99.1406 280.194 97.2812C280.178 95.3906 281.678 94.125 283.756 94.125ZM283.756 94.9688C282.241 94.9688 281.147 95.9375 281.147 97.2812C281.147 98.6094 282.241 99.5781 283.756 99.5781C285.272 99.5781 286.366 98.6094 286.366 97.2812C286.366 95.9375 285.272 94.9688 283.756 94.9688ZM304.624 93.4375V107.219H303.655V93.4375H304.624ZM295.249 94.7969V102.734H295.374C297.53 102.734 299.702 102.562 302.077 102.062L302.217 102.922C299.764 103.438 297.608 103.609 295.374 103.609H294.28V94.7969H295.249ZM317.46 93.4375V99H319.835V99.8281H317.46V107.234H316.476V93.4375H317.46ZM308.538 102.891C311.163 102.891 312.944 102.797 315.038 102.406L315.179 103.266C313.007 103.656 311.21 103.75 308.538 103.75H307.476V94.7969H313.898V95.625H308.46V102.891H308.538ZM321.718 106.078C321.249 106.078 320.874 105.703 320.874 105.25C320.874 104.781 321.249 104.406 321.718 104.406C322.171 104.406 322.546 104.781 322.546 105.25C322.546 105.703 322.171 106.078 321.718 106.078Z" fill="white"/>
</svg>
