<svg width="134" height="23" viewBox="0 0 134 23" fill="none" xmlns="http://www.w3.org/2000/svg">
<g clip-path="url(#clip0_1096_17231)">
<path d="M9.14763 0.806641C11.2628 0.806641 13.0672 1.10178 14.5609 1.69207C16.0547 2.28236 17.2915 3.07334 18.2594 4.07093C19.2274 5.06851 19.9384 6.20777 20.3865 7.5005C20.8346 8.79323 21.0617 10.1273 21.0617 11.5085C21.0617 12.8898 20.8346 14.2239 20.3865 15.5166C19.9324 16.8093 19.2274 17.9427 18.2594 18.9285C17.2915 19.9142 16.0606 20.6993 14.5609 21.2896C13.0612 21.8799 11.2568 22.175 9.14763 22.175H0V21.8681C0.221073 21.8681 0.388371 21.8209 0.513845 21.7323C0.633344 21.6438 0.716993 21.5375 0.758817 21.4136C0.824542 21.2896 0.860391 21.1479 0.860391 20.9886V1.99312C0.860391 1.83374 0.824542 1.68617 0.758817 1.56811C0.716993 1.46776 0.633344 1.37332 0.513845 1.27887C0.394346 1.18442 0.221073 1.1431 0 1.1431V0.806641H9.14763ZM8.65171 21.6792C9.88255 21.6792 11.0536 21.4608 12.153 21.024C13.2524 20.5872 14.2204 19.9437 15.0569 19.0878C15.8933 18.2319 16.5566 17.1753 17.0525 15.9062C17.5484 14.6371 17.7934 13.1673 17.7934 11.5026C17.7934 9.83803 17.5484 8.36822 17.0525 7.0991C16.5566 5.82998 15.8933 4.76156 15.0569 3.89975C14.2204 3.03793 13.2524 2.38861 12.153 1.9518C11.0536 1.51499 9.88853 1.29658 8.65171 1.29658H3.89566L3.93151 21.6792H8.65171Z" fill="white"/>
<path d="M45.5353 0.836155V1.1431C44.9498 1.1431 44.4957 1.22574 44.179 1.38512C43.8623 1.5504 43.6293 1.73339 43.4859 1.93409C43.3126 2.17611 43.217 2.45354 43.1931 2.75459V14.2711C43.1931 15.5697 43.0497 16.7326 42.7689 17.7597C42.4881 18.7868 42.0161 19.6486 41.3588 20.351C40.7016 21.0535 39.8173 21.5847 38.7239 21.9507C37.6245 22.3167 36.2443 22.4997 34.5832 22.4997C33.3882 22.4997 32.2291 22.3757 31.1237 22.1219C30.0124 21.8681 29.0325 21.4313 28.19 20.8115C27.3476 20.1917 26.6784 19.3653 26.1765 18.3264C25.6746 17.2934 25.4236 15.9888 25.4236 14.4246V1.99312C25.4236 1.83374 25.3878 1.68617 25.3161 1.56811C25.2683 1.46776 25.1727 1.37332 25.0413 1.27887C24.9098 1.18442 24.7186 1.1431 24.4736 1.1431V0.806641H29.7495V1.1431C29.5284 1.1431 29.3552 1.19033 29.2177 1.27887C29.0803 1.37332 28.9907 1.46776 28.9429 1.56811C28.8712 1.69207 28.8353 1.83374 28.8353 1.99312V15.4281C28.8353 16.1187 28.907 16.8506 29.0564 17.6239C29.2058 18.3972 29.5165 19.1055 29.9885 19.7549C30.4665 20.4042 31.1357 20.9413 32.0021 21.3722C32.8684 21.7972 34.0096 22.0157 35.4257 22.0157C36.3279 22.0334 37.1943 21.9212 38.0248 21.6674C38.8553 21.4136 39.6141 21.0535 40.2953 20.5872C41.1975 19.8965 41.8069 19.0052 42.1296 17.9191C42.4463 16.8329 42.6076 15.6169 42.6076 14.277V2.75459C42.5837 2.44764 42.4821 2.17611 42.3148 1.93409C42.1654 1.73339 41.9384 1.5504 41.6157 1.38512C41.2991 1.21984 40.845 1.1431 40.2594 1.1431V0.836155H45.5353Z" fill="white"/>
<path d="M58.9786 0.5C61.0937 0.5 62.8623 0.812852 64.2963 1.44446C65.7243 2.07607 66.8834 2.90247 67.7618 3.92957C68.6401 4.95667 69.2734 6.13134 69.6618 7.44768C70.0442 8.76992 70.2413 10.1217 70.2413 11.497C70.2413 12.8724 70.0501 14.2301 69.6618 15.5523C69.2794 16.8746 68.646 18.0433 67.7618 19.0704C66.8834 20.0975 65.7243 20.9239 64.2963 21.5555C62.8623 22.1871 61.0937 22.5 58.9786 22.5C56.8635 22.5 55.0949 22.1871 53.6609 21.5555C52.2269 20.9239 51.0737 20.0975 50.1954 19.0704C49.3171 18.0433 48.6838 16.8746 48.2954 15.5523C47.913 14.2301 47.7158 12.8783 47.7158 11.497C47.7158 10.1158 47.907 8.76402 48.2954 7.44768C48.6778 6.12544 49.3111 4.95667 50.1954 3.92957C51.0737 2.90247 52.2329 2.07607 53.6609 1.44446C55.0889 0.812852 56.8635 0.5 58.9786 0.5ZM58.9786 22.0101C61.4462 22.0101 63.3941 21.1128 64.8221 19.3125C66.2501 17.5121 66.9671 14.9089 66.9671 11.497C66.9671 8.08519 66.2501 5.48202 64.8221 3.68165C63.3941 1.88127 61.4403 0.984035 58.9786 0.984035C57.7477 0.984035 56.6424 1.22015 55.6625 1.68648C54.6826 2.1528 53.8461 2.83754 53.153 3.74068C52.4599 4.64382 51.9282 5.74765 51.5517 7.04628C51.1753 8.34492 50.9901 9.83244 50.9901 11.497C50.9901 13.1617 51.1753 14.6433 51.5517 15.9478C51.9282 17.2464 52.4599 18.3503 53.153 19.2534C53.8461 20.1566 54.6826 20.8413 55.6625 21.3076C56.6424 21.7739 57.7477 22.0101 58.9786 22.0101Z" fill="white"/>
<path d="M89.6479 19.2716L89.3193 22.164H73.5693V21.857C73.7904 21.857 73.9577 21.8098 74.0832 21.7213C74.2027 21.6327 74.2863 21.5265 74.3282 21.4025C74.3939 21.2786 74.4297 21.1369 74.4297 20.9775V2.02339C74.4297 1.86401 74.3939 1.71054 74.3282 1.56887C74.2863 1.46852 74.2027 1.37408 74.0832 1.27963C73.9637 1.18518 73.7904 1.14386 73.5693 1.14386V0.836914H78.3254V1.14386C78.1282 1.14386 77.9669 1.19109 77.8474 1.27963C77.7279 1.37408 77.6442 1.46852 77.5964 1.56887C77.5307 1.71054 77.4949 1.86401 77.4949 2.02339V21.7095H86.5409C87.4193 21.7095 88.0646 21.4734 88.4708 20.9952C88.8771 20.5171 89.146 19.9445 89.2775 19.2716H89.6419H89.6479Z" fill="white"/>
<path d="M112.007 20.9771C112.18 21.3253 112.359 21.5555 112.532 21.6795C112.706 21.8035 112.927 21.8625 113.19 21.8625V22.1694H108.105V21.8625C108.458 21.8625 108.691 21.7798 108.798 21.6205C108.906 21.4611 108.906 21.2663 108.798 21.042L105.829 14.5193H96.4539L93.7473 20.4635C93.5919 20.8059 93.6218 21.1305 93.8309 21.4257C94.0401 21.7208 94.4284 21.8684 95.002 21.8684V22.1753H90.8076V21.8684C91.3334 21.892 91.8174 21.768 92.2595 21.5024C92.7017 21.2368 93.0183 20.8708 93.2155 20.4045L102.268 0.5H102.53L112.007 20.9771ZM105.602 14.0294L101.108 4.27784L96.681 14.0294H105.596H105.602Z" fill="white"/>
<path d="M127.165 10.9832C128.091 11.0658 128.963 11.2134 129.788 11.4259C130.613 11.6384 131.342 11.9572 131.969 12.3881C132.596 12.8131 133.092 13.3561 133.457 14.0173C133.821 14.6784 134 15.5048 134 16.5024C134 17.8423 133.696 18.893 133.092 19.6545C132.489 20.416 131.616 20.9768 130.481 21.3486C129.346 21.7146 127.978 21.9448 126.37 22.0334C124.763 22.1278 122.959 22.1691 120.957 22.1691H115.705V21.8622C115.926 21.8622 116.093 21.815 116.219 21.7264C116.338 21.6379 116.422 21.5316 116.464 21.4077C116.53 21.2837 116.565 21.142 116.565 20.9827V1.99312C116.565 1.83374 116.53 1.68617 116.464 1.56811C116.422 1.46776 116.338 1.37332 116.219 1.27887C116.099 1.18442 115.926 1.1431 115.705 1.1431V0.806641H120.061C121.979 0.806641 123.723 0.824349 125.313 0.853864C126.896 0.883378 128.264 1.05456 129.406 1.35561C130.553 1.66256 131.437 2.17611 132.064 2.89626C132.692 3.61641 133.009 4.67892 133.009 6.0779C133.009 6.82757 132.877 7.48279 132.614 8.04356C132.351 8.60433 131.963 9.07656 131.461 9.46025C130.953 9.84394 130.338 10.1627 129.609 10.4047C128.88 10.6467 128.067 10.8415 127.165 10.9832ZM119.601 10.8592C120.192 10.8592 120.766 10.8474 121.316 10.8297H123.825C124.638 10.7884 125.402 10.6999 126.119 10.5582C126.836 10.4165 127.464 10.1745 128.002 9.82623C128.539 9.48386 128.963 9.01163 129.274 8.40954C129.585 7.81335 129.734 7.03417 129.734 6.0779C129.734 4.75566 129.459 3.76988 128.91 3.10876C128.36 2.44764 127.631 1.98131 126.729 1.70978C125.827 1.43825 124.799 1.29658 123.64 1.29658H119.595V10.8651L119.601 10.8592ZM122.475 21.6792C122.761 21.6792 123.168 21.6792 123.7 21.6969C124.225 21.7087 124.799 21.6792 125.414 21.6084C126.03 21.5375 126.651 21.4077 127.279 21.2247C127.906 21.0417 128.48 20.7583 128.993 20.3688C129.513 19.9851 129.937 19.4774 130.266 18.8458C130.595 18.2142 130.762 17.435 130.762 16.5024C130.762 15.1034 130.451 14.0409 129.836 13.3148C129.22 12.5947 128.42 12.0929 127.44 11.8096C126.46 11.5263 125.361 11.3787 124.136 11.3669C122.917 11.3551 121.686 11.3492 120.455 11.3492H119.595V21.6792H122.469H122.475Z" fill="white"/>
</g>
<defs>
<clipPath id="clip0_1096_17231">
<rect width="134" height="22" fill="white" transform="translate(0 0.5)"/>
</clipPath>
</defs>
</svg>
