<svg width="24" height="24" viewBox="0 0 24 24" fill="none" xmlns="http://www.w3.org/2000/svg">
<path d="M4.30064 17.2294L3.16042 10.4276C2.98802 9.39921 2.90182 8.88501 3.17785 8.54797C3.45388 8.21094 3.96121 8.21094 4.97587 8.21094H19.0241C20.0388 8.21094 20.5461 8.21094 20.8221 8.54797C21.0982 8.88501 21.012 9.39921 20.8396 10.4276L19.6994 17.2294C19.3214 19.4838 19.1325 20.611 18.361 21.2794C17.5894 21.9478 16.4773 21.9478 14.253 21.9478H9.74699C7.5227 21.9478 6.41055 21.9478 5.63904 21.2794C4.86752 20.611 4.67856 19.4838 4.30064 17.2294Z" stroke="white" stroke-width="1.6"/>
<path d="M17.2101 8.21053C17.2101 5.33283 14.8773 3 11.9996 3C9.12189 3 6.78906 5.33283 6.78906 8.21053" stroke="white" stroke-width="1.6"/>
</svg>
