<svg width="44" height="44" viewBox="0 0 44 44" fill="none" xmlns="http://www.w3.org/2000/svg">
<g clip-path="url(#clip0_1025_22742)">
<path d="M22 44C34.1503 44 44 34.1503 44 22C44 9.84974 34.1503 0 22 0C9.84974 0 0 9.84974 0 22C0 34.1503 9.84974 44 22 44Z" fill="#1D1D1D"/>
<path d="M26.25 21.9602C26.2566 21.3649 26.4143 20.7811 26.7081 20.2634C27.002 19.7458 27.4226 19.3112 27.9303 19.0004C27.6074 18.5408 27.1827 18.1621 26.6893 17.8938C26.1959 17.6254 25.6472 17.4748 25.0859 17.4536C23.8725 17.3314 22.7177 18.1688 22.1037 18.1688C21.4897 18.1688 20.5393 17.4736 19.5346 17.4937C18.8747 17.5117 18.2308 17.7009 17.666 18.0427C17.1012 18.3845 16.6349 18.8671 16.3128 19.4434C14.9405 21.8257 15.9603 25.3589 17.3009 27.2881C17.954 28.2341 18.7323 29.2959 19.7556 29.2578C20.7436 29.2197 21.1161 28.6223 22.3085 28.6223C23.5009 28.6223 23.8353 29.2578 24.8791 29.2436C25.939 29.2216 26.6122 28.2756 27.2595 27.3301C27.7233 26.6468 28.0867 25.9005 28.3385 25.114C27.7198 24.8505 27.1921 24.4112 26.8208 23.8506C26.4496 23.2899 26.2511 22.6326 26.25 21.9602Z" fill="white"/>
<path d="M24.2884 16.172C24.58 15.8314 24.8017 15.4367 24.9408 15.0104C25.0799 14.5841 25.1336 14.1346 25.0989 13.6875C24.2127 13.7732 23.3928 14.1947 22.8075 14.8657C22.5148 15.1914 22.2907 15.5727 22.1485 15.9869C22.0063 16.4011 21.9489 16.8396 21.9798 17.2764C22.4236 17.282 22.8627 17.1853 23.263 16.9938C23.6634 16.8022 24.0142 16.5211 24.2884 16.172Z" fill="white"/>
</g>
<defs>
<clipPath id="clip0_1025_22742">
<rect width="44" height="44" fill="white"/>
</clipPath>
</defs>
</svg>
