<svg width="44" height="44" viewBox="0 0 44 44" fill="none" xmlns="http://www.w3.org/2000/svg">
<g clip-path="url(#clip0_1025_22735)">
<path d="M22 44C34.1503 44 44 34.1503 44 22C44 9.84974 34.1503 0 22 0C9.84974 0 0 9.84974 0 22C0 34.1503 9.84974 44 22 44Z" fill="#FEEB35"/>
<path d="M22.4845 14.6665C17.2211 14.6665 12.9551 18.0398 12.9551 22.2003C12.9551 24.9082 14.7639 27.2818 17.4758 28.6096C17.1966 29.6466 16.9211 30.6845 16.6491 31.7234C16.52 32.2416 16.8393 32.2347 17.048 32.0949C17.2118 31.9859 19.6592 30.3222 20.7147 29.6016C21.3003 29.6883 21.8915 29.7317 22.4835 29.7316C27.7464 29.7316 32.0129 26.3583 32.0129 22.1978C32.0129 18.0374 27.7464 14.6641 22.4835 14.6641" fill="#391B1B"/>
</g>
<defs>
<clipPath id="clip0_1025_22735">
<rect width="44" height="44" fill="white"/>
</clipPath>
</defs>
</svg>
