<svg width="390" height="176" viewBox="0 0 390 176" fill="none" xmlns="http://www.w3.org/2000/svg">
<rect width="390" height="176" fill="#970000"/>
<path d="M159.999 46.0156V50.375H155.468V51.7344C157.812 51.7188 159.405 51.6406 161.218 51.3125L161.437 52.9062C159.397 53.2734 157.569 53.3672 154.687 53.3594H153.483V48.8594H158.062V47.6094H153.468V46.0156H159.999ZM154.671 56.1094V54.5156H164.249V59.4219H162.249V56.1094H154.671ZM162.249 53.8594V45.2344H164.249V48.625H166.171V50.2656H164.249V53.8594H162.249ZM178.07 52.2656V53.8438H173.976V56.25H179.492V57.8438H166.476V56.25H171.96V53.8438H168.007V46.2031H177.96V47.7969H170.038V49.2188H177.632V50.7812H170.038V52.2656H178.07ZM191.453 45.7344V46.9688C191.461 48.0859 191.461 49.2734 191.179 50.7188H192.922V52.2969H180.015V50.7188H189.179C189.265 50.2891 189.32 49.8906 189.359 49.5156L181.406 49.8281L181.187 48.2969L189.453 48.125C189.461 47.8438 189.461 47.5703 189.468 47.2969H181.578V45.7344H191.453ZM181.422 54.6562V53.1406H191.515V56.875H183.422V57.75H192.015V59.2812H181.437V55.4375H189.531V54.6562H181.422ZM205.414 45.2188V59.4688H203.43V45.2188H205.414ZM194.242 48.0156V46.4062H201.008V51.8906H196.32V54.5C198.492 54.4844 200.328 54.375 202.414 54.0312L202.586 55.6406C200.25 56.0547 198.133 56.1406 195.539 56.1406H194.258V50.3125H198.977V48.0156H194.242ZM210.922 46.2188C212.844 46.2188 214.282 47.7969 214.563 50.3594H217.032V45.2188H219V59.4688H217.032V51.9531H214.586C214.375 54.6875 212.907 56.3594 210.922 56.3594C208.766 56.3594 207.219 54.4062 207.235 51.2812C207.219 48.1797 208.766 46.2188 210.922 46.2188ZM209.141 51.2812C209.133 53.3984 209.86 54.5547 210.922 54.5469C211.992 54.5547 212.703 53.3984 212.703 51.2812C212.703 49.1719 211.992 48.0156 210.922 48.0156C209.86 48.0156 209.133 49.1719 209.141 51.2812ZM104.067 69.2188V83.4375H102.052V69.2188H104.067ZM92.0831 78.5469C92.5987 78.5469 93.1456 78.5391 93.7237 78.5312V72.125H92.4737V70.5312H100.521V72.125H99.255V78.3047C99.88 78.2578 100.497 78.1953 101.099 78.125L101.192 79.6094C98.1691 80.1016 94.88 80.1562 92.2706 80.1719L92.0831 78.5469ZM95.6612 78.4922C96.2081 78.4766 96.7628 78.4609 97.3175 78.4297V72.125H95.6612V78.4922ZM118.622 77.4219V78.9844H113.06V83.4375H111.091V78.9844H105.607V77.4219H118.622ZM107.138 76.0469V69.7656H109.107V71.4062H115.076V69.7656H117.076V76.0469H107.138ZM109.107 74.4531H115.076V72.9688H109.107V74.4531ZM134.092 76.5625V78.1406H124.029V70.2656H133.982V71.875H126.061V73.375H133.654V74.9375H126.061V76.5625H134.092ZM122.498 81.7812V80.1562H135.514V81.7812H122.498ZM147.991 69.2188V83.4688H146.006V75.9688H143.709V74.3438H146.006V69.2188H147.991ZM136.475 72.0156V70.4062H142.913V75.7344H138.491V78.5156C140.452 78.5 142.108 78.4297 143.944 78.1094L144.1 79.7344C141.991 80.0859 140.061 80.1641 137.678 80.1562H136.506V74.1562H140.975V72.0156H136.475ZM153.139 69.4531V70.4531H158.842V69.4531H160.827V74.2344H151.171V69.4531H153.139ZM149.514 76.5625V75.0156H162.483V76.5625H149.514ZM151.014 78.8594V77.4062H160.905V81H152.983V81.8438H161.28V83.3438H151.03V79.6094H158.936V78.8594H151.014ZM153.139 72.75H158.842V71.8906H153.139V72.75ZM178.109 70.4531V71.7969C178.101 73.5781 178.101 75.5781 177.531 78.5938L175.531 78.3906C176.077 75.7031 176.101 73.7031 176.109 72.0312H167.734V70.4531H178.109ZM166.39 81.7031V80.0781H171.031V75.1875H173.015V80.0781H179.359V81.7031H166.39ZM187.57 70.3594V77.2188H180.617V70.3594H187.57ZM182.273 83.125V78.4062H184.289V81.5156H192.179V83.125H182.273ZM182.586 75.6406H185.586V71.9375H182.586V75.6406ZM189.804 79.3438V69.2344H191.804V79.3438H189.804ZM199.891 69.4219C203.164 69.4219 205.055 70.2812 205.062 71.8438C205.055 73.4297 203.164 74.2812 199.891 74.2812C196.609 74.2812 194.703 73.4297 194.703 71.8438C194.703 70.2812 196.609 69.4219 199.891 69.4219ZM193.406 76.5312V74.9531H206.375V76.5312H193.406ZM194.906 78.8125V77.3594H204.797V80.9844H196.875V81.8438H205.172V83.3438H194.922V79.5938H202.828V78.8125H194.906ZM196.797 71.8438C196.789 72.5391 197.805 72.8125 199.891 72.8125C201.992 72.8125 203 72.5391 203 71.8438C203 71.2109 201.992 70.875 199.891 70.875C197.805 70.875 196.789 71.2109 196.797 71.8438ZM217.141 71.3906V72.9688H210.266V71.3906H212.735V69.6094H214.704V71.3906H217.141ZM210.594 76.9844C210.594 75.0078 211.923 73.6172 213.735 73.6094C215.555 73.6172 216.852 75.0078 216.86 76.9844C216.852 78.9688 215.555 80.375 213.735 80.375C211.923 80.375 210.594 78.9688 210.594 76.9844ZM212.344 76.9844C212.344 78.0703 212.907 78.6875 213.735 78.6875C214.532 78.6875 215.102 78.0703 215.11 76.9844C215.102 75.9141 214.532 75.2656 213.735 75.2656C212.907 75.2656 212.344 75.9141 212.344 76.9844ZM217.673 82.8281V69.5H219.532V75H220.688V69.2188H222.579V83.4375H220.688V76.5938H219.532V82.8281H217.673ZM235.774 69.2188V76.375H233.79V75.2812H230.54V73.7656H233.79V72.5156H230.696C229.813 74.6484 227.782 76.0156 224.634 76.7031L223.962 75.0781C227.22 74.4375 228.72 73.0859 228.985 71.375H224.759V69.7656H231.196C231.196 70.1953 231.165 70.6094 231.103 71H233.79V69.2188H235.774ZM226.321 78.4531V76.8906H235.774V80.7812H228.337V81.7188H236.087V83.2969H226.337V79.3125H233.774V78.4531H226.321ZM82.5556 118.562V127.969H75.7275V118.562H82.5556ZM77.6963 126.391H80.5713V120.125H77.6963V126.391ZM84.4931 131.438V117.219H86.4931V122.578H88.5869V124.234H86.4931V131.438H84.4931ZM100.689 117.219V131.469H98.6731V117.219H100.689ZM89.2044 123.281C89.1966 120.18 90.7825 118.219 92.97 118.219C95.1106 118.219 96.7044 120.18 96.7044 123.281C96.7044 126.406 95.1106 128.359 92.97 128.359C90.7825 128.359 89.1966 126.406 89.2044 123.281ZM91.1263 123.281C91.1184 125.398 91.8606 126.555 92.97 126.547C94.0481 126.555 94.7747 125.398 94.7825 123.281C94.7747 121.172 94.0481 120.016 92.97 120.016C91.8606 120.016 91.1184 121.172 91.1263 123.281ZM113.931 118.469V120.125C113.923 122.195 113.923 124.164 113.275 127.25L111.291 127.062C111.572 125.883 111.736 124.836 111.838 123.875L103.588 124.281L103.338 122.688L111.939 122.375C111.97 121.594 111.978 120.859 111.978 120.125V120.062H103.775V118.469H113.931ZM102.291 129.734V128.109H115.259V129.734H102.291ZM128.814 128.219V129.859H115.799V128.219H121.283V126.078H117.299V121.297H125.346V119.734H117.283V118.141H127.314V122.859H119.299V124.453H127.643V126.078H123.268V128.219H128.814ZM140.526 117.219V122.531H142.619V124.203H140.526V131.438H138.526V117.219H140.526ZM129.76 128.141V118.344H131.744V121.812H134.698V118.344H136.682V128.141H129.76ZM131.744 126.531H134.698V123.359H131.744V126.531ZM154.721 117.219V131.469H152.706V117.219H154.721ZM143.237 123.281C143.229 120.18 144.815 118.219 147.003 118.219C149.143 118.219 150.737 120.18 150.737 123.281C150.737 126.406 149.143 128.359 147.003 128.359C144.815 128.359 143.229 126.406 143.237 123.281ZM145.159 123.281C145.151 125.398 145.893 126.555 147.003 126.547C148.081 126.555 148.807 125.398 148.815 123.281C148.807 121.172 148.081 120.016 147.003 120.016C145.893 120.016 145.151 121.172 145.159 123.281ZM162.807 117.422C165.972 117.43 167.972 118.469 167.979 120.188C167.972 121.711 166.37 122.711 163.761 122.906V123.906H169.292V125.5H156.323V123.906H161.807V122.898C159.237 122.695 157.62 121.703 157.62 120.188C157.62 118.469 159.659 117.43 162.807 117.422ZM157.823 131.281V126.438H167.745V131.281H157.823ZM159.698 120.188C159.682 121.016 160.815 121.422 162.807 121.422C164.768 121.422 165.917 121.016 165.917 120.188C165.917 119.383 164.768 118.953 162.807 118.953C160.815 118.953 159.682 119.383 159.698 120.188ZM159.792 129.688H165.792V128.016H159.792V129.688ZM184.871 118.406V119.672C184.863 121.383 184.894 123.398 184.23 126.469L182.277 126.266C182.511 125.188 182.66 124.227 182.753 123.359L174.496 123.828L174.214 122.125L182.871 121.844C182.91 121.172 182.91 120.562 182.918 120H174.683V118.406H184.871ZM173.199 129.797V128.172H177.839V124.734H179.824V128.172H186.168V129.797H173.199ZM194.191 119.094C194.183 121.18 196.035 123.406 199.254 123.953L198.379 125.609C195.894 125.117 194.058 123.719 193.137 121.898C192.199 123.703 190.355 125.109 187.894 125.609L187.035 123.953C190.199 123.391 192.051 121.156 192.066 119.094V118.062H194.191V119.094ZM186.707 129.688V128.047H199.723V129.688H186.707ZM206.277 118.688V122.391H207.699V117.422H209.574V130.781H207.699V123.984H206.277V127.859H200.621V118.688H206.277ZM202.481 126.297H204.418V120.266H202.481V126.297ZM210.637 131.438V117.219H212.543V131.438H210.637ZM225.629 126.406V131.438H223.629V128H215.848V126.406H225.629ZM214.504 125.266V118.156H221.395V119.734H216.504V120.922H220.973V122.453H216.504V123.688C219.012 123.68 220.598 123.609 222.395 123.328L222.598 124.891C220.575 125.211 218.762 125.266 215.723 125.266H214.504ZM223.629 125.844V117.219H225.629V125.844H223.629ZM243.614 128.094V129.719H230.599V128.094H243.614ZM231.974 125.719V118.125H233.974V120.484H240.177V118.125H242.161V125.719H231.974ZM233.974 124.156H240.177V122.031H233.974V124.156ZM256.326 117.234V127.781H254.435V122.875H253.201V127.484H251.341V117.484H253.201V121.266H254.435V117.234H256.326ZM244.669 119.938V118.375H250.091V122.797H246.607V124.258C248.162 124.242 249.326 124.164 250.669 123.906L250.841 125.484C249.177 125.781 247.779 125.828 245.669 125.828H244.685V121.328H248.169V119.938H244.669ZM246.685 131.188V126.781H248.685V129.594H256.685V131.188H246.685ZM269.209 123.797V125.391H259.146V118.406H269.099V120.016H261.115V123.797H269.209ZM257.615 129.703V128.062H270.631V129.703H257.615Z" fill="white"/>
<path d="M231.821 49.7344V50.5625H222.446V45.9375H223.415V49.7344H231.821ZM233.29 52.5625V53.375H220.68V52.5625H233.29ZM231.899 58.0312V58.875H222.383V54.875H223.352V58.0312H231.899ZM248.095 69.4375V75.2031H250.47V76.0469H248.095V83.2188H247.111V69.4375H248.095ZM245.642 71.7031V72.5312H237.408V71.7031H241.079V69.5781H242.064V71.7031H245.642ZM241.595 73.7969C243.533 73.7969 244.923 75.0781 244.923 76.9219C244.923 78.7656 243.533 80.0469 241.595 80.0469C239.658 80.0469 238.251 78.7656 238.267 76.9219C238.251 75.0781 239.658 73.7969 241.595 73.7969ZM241.595 74.625C240.22 74.6406 239.204 75.6094 239.204 76.9219C239.204 78.2344 240.22 79.2031 241.595 79.1875C242.97 79.2031 243.986 78.2344 243.986 76.9219C243.986 75.6094 242.97 74.6406 241.595 74.625ZM262.322 69.4375V83.2188H261.353V69.4375H262.322ZM258.259 70.9531C258.244 74.8438 256.291 78.3594 251.759 80.5469L251.212 79.7344C254.994 77.9453 257.017 75.125 257.275 71.7656H251.822V70.9531H258.259ZM272.588 70.125C274.635 70.125 276.104 71.2344 276.104 72.9062C276.104 74.5781 274.635 75.7188 272.588 75.7031C270.541 75.7188 269.088 74.5781 269.104 72.9062C269.088 71.2344 270.541 70.125 272.588 70.125ZM272.588 70.9531C271.119 70.9375 270.041 71.7812 270.057 72.9062C270.041 74.0625 271.119 74.875 272.588 74.875C274.088 74.875 275.166 74.0625 275.166 72.9062C275.166 71.7812 274.088 70.9375 272.588 70.9531ZM279.338 69.4375V83.2344H278.369V69.4375H279.338ZM267.994 76.9844C270.619 77 274.198 76.9375 277.291 76.4844L277.369 77.25C275.987 77.4922 274.557 77.6406 273.166 77.7188V82.7812H272.182V77.7656C270.721 77.8438 269.33 77.8516 268.135 77.8594L267.994 76.9844ZM288.518 71.9062V72.7188H281.518V71.9062H284.518V69.8594H285.518V71.9062H288.518ZM285.018 73.75C286.737 73.7656 287.971 75.0312 287.971 76.8438C287.971 78.6719 286.737 79.9531 285.018 79.9531C283.299 79.9531 282.065 78.6719 282.065 76.8438C282.065 75.0312 283.299 73.7656 285.018 73.75ZM285.018 74.5938C283.815 74.6094 282.94 75.5781 282.956 76.8438C282.94 78.125 283.815 79.0938 285.018 79.0781C286.206 79.0938 287.081 78.125 287.096 76.8438C287.081 75.5781 286.206 74.6094 285.018 74.5938ZM293.237 69.4375V83.2188H292.299V76.1406H290.221V82.5156H289.299V69.7812H290.221V75.3125H292.299V69.4375H293.237ZM66.7853 98.5469V99.3906H57.5978V94.1875H66.5822V95.0312H58.5978V98.5469H66.7853ZM68.4103 101.391V102.219H64.9884V107.219H64.0041V102.219H60.2072V107.219H59.2228V102.219H55.8009V101.391H68.4103ZM75.5903 94.4062C78.5122 94.4062 80.5903 95.8125 80.5903 97.9531C80.5903 99.9844 78.7466 101.32 76.0903 101.469V104.547H81.9497V105.391H69.3247V104.547H75.1059V101.469C72.4575 101.328 70.6059 99.9844 70.6059 97.9531C70.6059 95.8125 72.6841 94.4062 75.5903 94.4062ZM75.5903 95.2188C73.2622 95.2188 71.5434 96.3281 71.5434 97.9531C71.5434 99.5781 73.2622 100.688 75.5903 100.688C77.9184 100.688 79.6528 99.5781 79.6528 97.9531C79.6528 96.3281 77.9184 95.2188 75.5903 95.2188ZM84.5359 100.156C86.9734 100.156 88.8172 100.078 91.0828 99.7031L91.1766 100.547C88.8797 100.906 87.0203 101 84.5359 101H83.4734V97.1406H88.6922V95.1094H83.4422V94.2812H89.6609V97.9375H84.4578V100.156H84.5359ZM93.5672 93.4375V97.0469H95.7078V97.8906H93.5672V101.828H92.5828V93.4375H93.5672ZM93.5672 102.578V107.203H92.5828V103.406H84.6141V102.578H93.5672ZM100.857 94.4688C103.028 94.4688 104.528 95.7656 104.544 97.6562C104.528 99.5625 103.028 100.844 100.857 100.844C98.7003 100.844 97.1691 99.5625 97.1691 97.6562C97.1691 95.7656 98.7003 94.4688 100.857 94.4688ZM100.857 95.3438C99.2784 95.3438 98.1222 96.3125 98.1378 97.6562C98.1222 99 99.2784 99.9844 100.857 99.9688C102.435 99.9844 103.575 99 103.575 97.6562C103.575 96.3125 102.435 95.3438 100.857 95.3438ZM107.56 93.4375V107.234H106.575V93.4375H107.56ZM96.4191 103.25C98.9972 103.266 102.528 103.25 105.622 102.781L105.7 103.531C102.513 104.125 99.0753 104.125 96.5753 104.125L96.4191 103.25ZM117.685 106.156C115.513 106.156 113.935 104.938 113.873 103.156H114.998C115.06 104.359 116.217 105.156 117.67 105.156C119.263 105.156 120.388 104.234 120.404 102.953C120.388 101.625 119.279 100.688 117.451 100.688H116.748V99.6875H117.451C118.935 99.6875 119.998 98.8594 120.013 97.5781C119.998 96.3594 119.092 95.5156 117.701 95.5156C116.373 95.5156 115.248 96.2969 115.217 97.5156H114.138C114.185 95.75 115.748 94.5312 117.717 94.5312C119.779 94.5312 121.092 95.8906 121.076 97.5312C121.092 98.8281 120.31 99.7812 119.092 100.125V100.203C120.576 100.469 121.498 101.516 121.482 102.969C121.498 104.797 119.873 106.156 117.685 106.156ZM126.865 106.156C124.443 106.156 123.037 104.016 123.037 100.344C123.037 96.6875 124.459 94.5312 126.865 94.5312C129.256 94.5312 130.678 96.6875 130.678 100.344C130.678 104.016 129.272 106.156 126.865 106.156ZM126.865 105.156C128.584 105.156 129.6 103.406 129.6 100.344C129.6 97.2812 128.568 95.5156 126.865 95.5156C125.147 95.5156 124.131 97.2812 124.131 100.344C124.131 103.406 125.147 105.156 126.865 105.156ZM143.17 93.4375V103.672H142.186V98.8125H138.03V97.9844H142.186V96.1562H138.03V95.3438H142.186V93.4375H143.17ZM143.561 106.062V106.891H134.389V102.812H135.373V106.062H143.561ZM133.639 94.4844V100.672H133.67C135.623 100.672 137.514 100.562 139.748 100.156L139.873 101C137.561 101.422 135.67 101.516 133.67 101.516H132.639V94.4844H133.639ZM161.483 104.531V105.391H148.858V104.531H161.483ZM160.218 94.8906V95.7188H157.952V100.75H160.202V101.562H150.03V100.75H152.28V95.7188H150.015V94.8906H160.218ZM153.265 100.75H156.983V95.7188H153.265V100.75ZM174.992 104.609V105.453H162.367V104.609H168.148V101.828H163.992V97.7031H172.382V95.3281H163.945V94.5H173.351V98.5312H164.96V101H173.679V101.828H169.132V104.609H174.992ZM186.484 93.4375V98.9531H188.859V99.8281H186.484V107.219H185.5V93.4375H186.484ZM177.453 94.625V98.3594H181.875V94.625H182.843V103.859H176.484V94.625H177.453ZM177.453 103.031H181.875V99.1719H177.453V103.031ZM200.695 93.4375V107.234H199.711V93.4375H200.695ZM193.414 94.5312C195.445 94.5312 196.898 96.3906 196.898 99.2969C196.898 102.203 195.445 104.062 193.414 104.062C191.367 104.062 189.93 102.203 189.93 99.2969C189.93 96.3906 191.367 94.5312 193.414 94.5312ZM193.414 95.4062C191.93 95.4062 190.883 97 190.883 99.2969C190.883 101.609 191.93 103.188 193.414 103.188C194.898 103.188 195.93 101.609 195.93 99.2969C195.93 97 194.898 95.4062 193.414 95.4062ZM209.157 94.4062C212.078 94.4062 214.157 95.8125 214.157 97.9531C214.157 99.9844 212.313 101.32 209.657 101.469V104.547H215.516V105.391H202.891V104.547H208.672V101.469C206.024 101.328 204.172 99.9844 204.172 97.9531C204.172 95.8125 206.25 94.4062 209.157 94.4062ZM209.157 95.2188C206.828 95.2188 205.11 96.3281 205.11 97.9531C205.11 99.5781 206.828 100.688 209.157 100.688C211.485 100.688 213.219 99.5781 213.219 97.9531C213.219 96.3281 211.485 95.2188 209.157 95.2188ZM227.727 102.547V107.219H226.743V103.375H218.524V102.547H227.727ZM227.727 93.4375V101.859H226.743V93.4375H227.727ZM218.305 100.156C221.352 100.156 223.008 100.078 224.993 99.75L225.102 100.578C223.055 100.906 221.399 100.984 218.305 100.969H217.212V94.3906H223.805V95.2188H218.212V97.2188H223.43V98.0312H218.212V100.156H218.305ZM236.657 95.5312C236.657 98 239.657 100.094 241.829 100.5L241.345 101.344C239.399 100.859 237.032 99.3516 236.157 97.2344C235.282 99.3516 232.915 100.859 230.97 101.344L230.501 100.5C232.673 100.078 235.626 98.0156 235.642 95.5312V94.4375H236.657V95.5312ZM242.532 104.453V105.281H229.907V104.453H242.532ZM258.283 93.4375V107.219H257.314V93.4375H258.283ZM254.22 94.9531C254.205 98.8438 252.252 102.359 247.72 104.547L247.173 103.734C250.955 101.945 252.978 99.125 253.236 95.7656H247.783V94.9531H254.22ZM267.244 94.1094C267.244 95.9375 270.041 97.25 272.322 97.5312L271.963 98.2969C269.885 98.0078 267.596 97.0234 266.744 95.4375C265.885 97.0234 263.588 98.0078 261.525 98.2969L261.182 97.5312C263.447 97.25 266.244 95.9375 266.244 94.1094V93.5H267.244V94.1094ZM273.025 99.3125V100.125H267.228V101.656H271.369V104.641H263.01V106.234H271.807V107.047H262.057V103.891H270.416V102.469H262.01V101.656H266.244V100.125H260.463V99.3125H273.025ZM280.487 94.2812V98.0156H275.549V100.375C278.338 100.375 279.69 100.328 281.393 100.016L281.487 100.859C279.752 101.141 278.362 101.188 275.533 101.188H274.58V97.2344H279.502V95.1094H274.549V94.2812H280.487ZM285.33 93.4375V101.906H284.346V99.1875H281.44V98.3594H284.346V96.3594H281.44V95.5469H284.346V93.4375H285.33ZM285.33 102.688V107.25H284.346V103.516H276.112V102.688H285.33ZM293.745 93.6875C296.776 93.6875 298.573 94.5312 298.573 96.0781C298.573 97.6406 296.776 98.5 293.745 98.5C290.713 98.5 288.917 97.6406 288.917 96.0781C288.917 94.5312 290.713 93.6875 293.745 93.6875ZM293.745 94.4531C291.385 94.4531 289.932 95.0781 289.932 96.0781C289.932 97.125 291.385 97.7344 293.745 97.7344C296.12 97.7344 297.573 97.125 297.573 96.0781C297.573 95.0781 296.12 94.4531 293.745 94.4531ZM300.042 99.5312V100.344H287.479V99.5312H300.042ZM298.385 101.656V104.609H290.026V106.234H298.823V107.047H289.073V103.844H297.432V102.438H289.026V101.656H298.385ZM315.261 93.4375V96.9062H317.386V97.7344H315.261V101.281H314.277V93.4375H315.261ZM306.261 99.5312C309.058 99.5469 310.698 99.4531 312.636 99.0625L312.777 99.8906C310.761 100.281 309.089 100.375 306.261 100.375H305.214V94.3906H311.308V95.2031H306.198V99.5312H306.261ZM315.261 102.047V107.016H306.652V102.047H315.261ZM307.605 102.859V106.188H314.277V102.859H307.605ZM330.597 100.766V101.578H318.035V100.766H330.597ZM329.207 106.062V106.891H319.691V102.891H320.691V106.062H329.207ZM324.3 93.9219C327.253 93.9219 329.128 94.9219 329.128 96.6406C329.128 98.3438 327.253 99.3594 324.3 99.3594C321.332 99.3594 319.472 98.3438 319.472 96.6406C319.472 94.9219 321.332 93.9219 324.3 93.9219ZM324.3 94.7344C321.988 94.75 320.472 95.4844 320.488 96.6406C320.472 97.8125 321.988 98.5312 324.3 98.5312C326.613 98.5312 328.128 97.8125 328.128 96.6406C328.128 95.4844 326.613 94.75 324.3 94.7344ZM282.639 117.438V124.812H281.654V117.438H282.639ZM274.779 125.547V127.359H281.67V125.547H282.639V131.016H273.811V125.547H274.779ZM274.779 130.203H281.67V128.172H274.779V130.203ZM275.233 118.125C277.311 118.125 278.795 119.391 278.795 121.281C278.795 123.141 277.311 124.422 275.233 124.406C273.154 124.422 271.654 123.141 271.67 121.281C271.654 119.391 273.154 118.125 275.233 118.125ZM275.233 118.969C273.717 118.969 272.623 119.938 272.623 121.281C272.623 122.609 273.717 123.578 275.233 123.578C276.748 123.578 277.842 122.609 277.842 121.281C277.842 119.938 276.748 118.969 275.233 118.969ZM296.1 117.438V131.219H295.131V117.438H296.1ZM286.725 118.797V126.734H286.85C289.006 126.734 291.178 126.562 293.553 126.062L293.694 126.922C291.241 127.438 289.084 127.609 286.85 127.609H285.756V118.797H286.725ZM308.936 117.438V123H311.311V123.828H308.936V131.234H307.952V117.438H308.936ZM300.014 126.891C302.639 126.891 304.421 126.797 306.514 126.406L306.655 127.266C304.483 127.656 302.686 127.75 300.014 127.75H298.952V118.797H305.374V119.625H299.936V126.891H300.014ZM313.194 130.078C312.726 130.078 312.351 129.703 312.351 129.25C312.351 128.781 312.726 128.406 313.194 128.406C313.647 128.406 314.022 128.781 314.022 129.25C314.022 129.703 313.647 130.078 313.194 130.078Z" fill="white"/>
</svg>
