<svg width="159" height="22" viewBox="0 0 159 22" fill="none" xmlns="http://www.w3.org/2000/svg">
<g clip-path="url(#clip0_1096_17316)">
<path d="M150.018 4.86569H150.595V0.820526H152.121V0.268555H148.5V0.820526H150.018V4.86569Z" fill="white"/>
<path d="M154.286 1.3725L155.78 3.54096L155.843 3.59615H155.978L157.504 1.3725V4.86569H158.089V0.268555H157.583L155.899 2.73666L154.223 0.268555H153.717V4.86569H154.286V1.3725Z" fill="white"/>
<path d="M52.8349 17.7023C51.5147 19.1058 49.2458 20.7854 45.9255 20.7854C41.0557 20.7854 37.2452 16.7403 37.2452 11.5754V11.5202C37.2452 6.3553 41.0557 2.31014 45.9255 2.31014C49.3091 2.31014 51.2064 3.69007 52.7638 5.18039L52.9614 5.36964L53.7757 4.55746L53.5701 4.36032C51.8863 2.75961 49.9099 1.19043 45.9571 1.19043C40.4153 1.19043 36.0752 5.74025 36.0752 11.5438V11.599C36.0752 17.3711 40.3916 21.8972 45.9018 21.8972C48.9138 21.8972 51.5384 20.7539 53.6887 18.4987L53.8864 18.2937L53.0326 17.4894L52.8428 17.6944L52.8349 17.7023Z" fill="white"/>
<path d="M25.3157 1.3877H24.4303L14.7539 21.5662H16.0188L18.8094 15.7232H30.897L33.6481 21.4952L33.6798 21.5662H34.9684L25.3948 1.5454L25.3157 1.3877ZM19.3628 14.6035L24.8651 3.12246L30.3673 14.6035H19.3628Z" fill="white"/>
<path d="M1.67792 1.5293H0.5V21.5659H13.6706V20.4461H1.67792V1.5293Z" fill="white"/>
<path d="M81.0102 1.19043C75.3182 1.19043 71.0176 5.62986 71.0176 11.5202V11.5754C71.0176 17.4657 75.3103 21.9051 81.0102 21.9051C86.7101 21.9051 91.0028 17.4657 91.0028 11.5754V11.5202C91.0028 5.62986 86.7101 1.19043 81.0102 1.19043ZM89.8328 11.599C89.8328 16.8349 86.0539 20.7854 81.0418 20.7854C75.5079 20.7854 72.2034 16.0858 72.2034 11.5438V11.4886C72.2034 6.2528 75.9823 2.30226 80.9944 2.30226C86.5282 2.30226 89.8328 7.0019 89.8328 11.536V11.5911V11.599Z" fill="white"/>
<path d="M55.04 2.64112H62.0997V21.5659H63.2776V2.64112H70.3372V1.5293H55.04V2.64112Z" fill="white"/>
<path d="M119.471 20.7857C118.727 20.7541 118.293 20.7147 118.182 20.6674V0L114 0.993548L113.842 1.60072L114.846 1.69534C115.7 1.81362 115.881 1.90824 115.881 3.87957V20.6753C115.826 20.7384 115.296 20.7699 114.98 20.7935L114.111 20.8487L113.858 21.5821H120.443L120.071 20.8487L119.478 20.8014L119.471 20.7857Z" fill="white"/>
<path d="M147.005 19.4133C146.484 19.9731 146.049 20.257 145.717 20.257C145.432 20.257 145.258 20.2097 145.163 20.115C145.053 19.9889 145.005 19.7444 145.029 19.3659L145.337 11.8434C145.416 10.2426 145.116 9.12293 144.436 8.39748C143.812 7.743 142.902 7.44336 141.566 7.44336C138.831 7.44336 135.677 9.60393 135.677 11.0233C135.677 11.9222 136.238 12.4821 137.139 12.4821C138.041 12.4821 138.602 11.7566 138.602 11.0864C138.602 10.4161 138.207 10.0376 137.969 9.79318C137.938 9.75375 137.89 9.71433 137.867 9.69067C138.001 9.42257 139.163 8.6025 140.412 8.6025C141.266 8.6025 141.93 8.83906 142.381 9.31218C142.918 9.87203 143.155 10.7867 143.092 12.0168L143.037 13.6491C137.74 15.0606 135.764 16.4405 135.764 18.7509C135.764 20.533 137.155 21.8262 139.068 21.8262C140.491 21.8262 141.891 20.8641 142.863 20.0756C143.084 21.1086 143.899 21.8577 144.831 21.8577C145.938 21.8577 146.665 20.9824 147.243 20.2806L147.282 20.2412C147.385 20.1229 147.48 20.0046 147.567 19.9021L147.788 19.6577L147.156 19.2634L146.997 19.429L147.005 19.4133ZM142.879 19.0032C142.191 19.5867 141.163 20.257 140.064 20.257C138.799 20.257 138.127 19.571 138.127 18.262C138.127 16.953 138.507 15.6993 143.013 14.5165L142.871 18.9953L142.879 19.0032Z" fill="white"/>
<path d="M110.98 16.8268C109.494 19.5078 107.834 21.1637 104.181 21.1637C99.2721 21.1637 96.102 17.3551 96.102 11.4648C96.102 5.57448 99.4144 1.94724 104.332 1.94724C106.292 1.94724 108.024 2.60172 108.822 3.21678L111.146 7.63255H111.81L111.352 1.60818L109.589 2.43613C108.024 1.55298 106.245 1.10352 104.308 1.10352C97.944 1.10352 93.3271 5.5666 93.3271 11.7093C93.3271 17.8519 97.8017 22.0075 104.213 22.0075C106.419 22.0075 108.743 21.3136 110.079 20.6275L111.304 20.3831L112.561 15.3838H111.85L110.988 16.8268H110.98Z" fill="white"/>
<path d="M133.037 17.7424C131.875 19.5087 130.744 20.1711 128.871 20.1711C126.183 20.1711 124.159 17.5532 124.159 14.0757C124.159 13.6342 124.222 13.1295 124.277 12.6721V12.6485L133.353 12.68L133.385 12.4356C133.392 12.3489 133.408 12.2858 133.416 12.2306C133.432 12.1359 133.448 12.0571 133.448 11.9388C133.448 9.71516 131.701 7.45996 128.372 7.45996C124.507 7.45996 121.7 10.622 121.7 14.9825C121.7 18.8227 124.586 21.9532 128.127 21.9532C130.436 21.9532 132.167 20.7782 133.732 18.1445L133.898 17.8686L133.171 17.5532L133.045 17.7503L133.037 17.7424ZM128.183 8.31946C130.048 8.31946 130.784 10.0621 130.863 11.7417L124.475 11.7732C125.131 9.79401 126.696 8.31946 128.183 8.31946Z" fill="white"/>
<path d="M156.563 7.44358C154.959 7.44358 153.63 8.78408 152.674 11.3389L152.769 7.41992L148.508 8.51598L148.357 9.10738L149.401 9.24143C150.176 9.3124 150.421 9.42279 150.421 11.4178V20.6593C150.365 20.7224 149.836 20.754 149.519 20.7776L148.65 20.8328L148.278 21.5662H155.362L154.982 20.8249L153.781 20.7855C153.03 20.7697 152.784 20.7303 152.713 20.7145V13.9174C153.599 10.6371 154.223 9.45433 155.306 9.07584C155.488 10.3454 156.279 10.8027 156.927 10.8027C157.907 10.8027 158.484 9.96688 158.484 9.15469C158.484 8.30308 157.82 7.44358 156.548 7.44358H156.563Z" fill="white"/>
</g>
<defs>
<clipPath id="clip0_1096_17316">
<rect width="158" height="22" fill="white" transform="translate(0.5)"/>
</clipPath>
</defs>
</svg>
