<svg width="19" height="19" viewBox="0 0 19 19" fill="none" xmlns="http://www.w3.org/2000/svg">
<path d="M9.5 11.4873C10.7429 11.4873 11.9661 11.633 13.1709 11.9248C14.3758 12.2166 15.5663 12.6553 16.7422 13.2432C17.1791 13.4712 17.5287 13.7983 17.7988 14.2383C18.0664 14.6741 18.2002 15.1472 18.2002 15.6748V18.2002H0.799805V15.6748C0.799838 15.1472 0.933584 14.6741 1.20117 14.2383C1.47116 13.7986 1.82029 13.4712 2.25684 13.2432L2.25781 13.2441C3.43376 12.6562 4.62408 12.2166 5.8291 11.9248C7.03389 11.633 8.25713 11.4873 9.5 11.4873ZM9.5 0.799805C10.5924 0.799805 11.5077 1.17956 12.2891 1.96094C13.0704 2.74231 13.4502 3.65761 13.4502 4.75C13.4502 5.84239 13.0704 6.75769 12.2891 7.53906C11.5077 8.32044 10.5924 8.7002 9.5 8.7002C8.40761 8.7002 7.49231 8.32044 6.71094 7.53906C5.92956 6.75769 5.5498 5.84239 5.5498 4.75C5.5498 3.65761 5.92956 2.74231 6.71094 1.96094C7.49231 1.17956 8.40761 0.799805 9.5 0.799805Z" stroke="#393280" stroke-width="1.6"/>
</svg>
