<?xml version="1.0" encoding="utf-8"?>
<!-- Generator: Adobe Illustrator 23.0.3, SVG Export Plug-In . SVG Version: 6.00 Build 0)  -->
<svg version="1.1" id="Layer_1" xmlns="http://www.w3.org/2000/svg" xmlns:xlink="http://www.w3.org/1999/xlink" x="0px" y="0px"
	 viewBox="0 0 48 44" style="enable-background:new 0 0 48 44;" xml:space="preserve">
<style type="text/css">
	.st0{fill:#444444;}
	.st1{fill:#4F4D6C;}
</style>
<g>
	<path class="st0" d="M20.2,32.3c0,2.6-1.7,4.4-4.6,5.2l-0.5-0.9c2.3-0.6,3.6-1.8,3.8-3.3h-3.2v-0.9L20.2,32.3L20.2,32.3z
		 M16.9,37.7h6.5v3.8h-6.5V37.7z M18,40.6h4.2v-2H18V40.6z M23.3,31.7v5.6h-1.1v-2.2h-2v-0.9h2v-2.5C22.2,31.7,23.3,31.7,23.3,31.7z
		"/>
	<path class="st0" d="M28.8,37.1c-0.9-0.4-1.5-1-1.9-1.8c-0.4,0.9-1,1.7-2,2.1l-0.6-0.9c1.3-0.6,2-1.9,2-3v-1.3h1.1v1.3
		c0,1.1,0.6,2.2,1.9,2.8L28.8,37.1z M26.1,38.2h6.7v3.4h-1.1v-2.5h-5.6C26.1,39.1,26.1,38.2,26.1,38.2z M32.8,31.7v6h-1.1v-2.6h-1
		v2.5h-1.1v-5.8h1.1v2.3h1v-2.5L32.8,31.7L32.8,31.7z"/>
</g>
<path class="st1" d="M33.3,22l-3.8-3.8c1.1-1.4,1.8-3.2,1.8-5.1c0-4.7-3.8-8.5-8.5-8.5s-8.5,3.8-8.5,8.4s3.8,8.5,8.5,8.5
	c1.9,0,3.7-0.7,5.1-1.8l3.8,3.8c0.2,0.2,0.5,0.3,0.8,0.3c0.3,0,0.6-0.1,0.8-0.3C33.8,23.1,33.8,22.4,33.3,22z M16.5,13
	c0-3.5,2.8-6.3,6.3-6.3s6.3,2.8,6.3,6.3s-2.8,6.3-6.3,6.3S16.5,16.5,16.5,13z"/>
</svg>
