<?xml version="1.0" encoding="utf-8"?>
<!-- Generator: Adobe Illustrator 23.0.3, SVG Export Plug-In . SVG Version: 6.00 Build 0)  -->
<svg version="1.1" id="Layer_1" xmlns="http://www.w3.org/2000/svg" xmlns:xlink="http://www.w3.org/1999/xlink" x="0px" y="0px"
	 viewBox="0 0 48 44" style="enable-background:new 0 0 48 44;" xml:space="preserve">
<style type="text/css">
	.st0{fill:#9797A0;}
</style>
<g>
	<path class="st0" d="M19.5,39.5v0.9h-9v-0.9h3.9v-1.7h-2.8v-3.2h5.7v-1.3h-5.8v-0.9h6.9v3.1h-5.7v1.4h6v0.9h-3.2v1.7H19.5z"/>
	<path class="st0" d="M28.8,39.3v0.9h-9v-0.9H28.8z M26.5,33.6h-5.7v-0.9h6.9v1.1c0,1.3,0,2.7-0.4,4.8l-1.1-0.1
		c0.4-2,0.4-3.4,0.4-4.7L26.5,33.6C26.6,33.6,26.5,33.6,26.5,33.6z"/>
	<path class="st0" d="M31.9,37.3c-1.5,0-2.6-1-2.6-2.5s1.1-2.5,2.6-2.5c1.5,0,2.6,1,2.6,2.5S33.4,37.3,31.9,37.3z M31.9,36.4
		c0.9,0,1.5-0.6,1.5-1.5s-0.7-1.5-1.5-1.5c-0.9,0-1.5,0.6-1.5,1.5C30.4,35.8,31,36.4,31.9,36.4z M37.5,40.5v0.9h-6.8v-3.3h1.1v2.3
		L37.5,40.5L37.5,40.5z M37.2,38.9h-1.1v-7.2h1.1V38.9z"/>
</g>
<g>
	<path class="st0" d="M24,8.4c-0.9,0-1.8,0.2-2.6,0.4V7.2c0-1.4,1.2-2.6,2.6-2.6c0.9,0,1.7,0.5,2.2,1.2c0.3,0.5,1,0.7,1.5,0.4
		c0.5-0.3,0.7-1,0.4-1.5c-0.9-1.4-2.4-2.3-4.1-2.3c-2.7,0-4.8,2.2-4.8,4.8v2.7c-2.2,1.5-3.6,4-3.6,6.9c0,4.6,3.8,8.4,8.4,8.4
		s8.4-3.8,8.4-8.4S28.6,8.4,24,8.4z M24,22.9c-3.4,0-6.2-2.8-6.2-6.2s2.8-6.2,6.2-6.2s6.2,2.8,6.2,6.2S27.4,22.9,24,22.9z"/>
	<path class="st0" d="M22.4,16.8c0,0.9,0.7,1.6,1.6,1.6s1.6-0.7,1.6-1.6S24,14.1,24,14.1S22.4,15.9,22.4,16.8z"/>
</g>
</svg>
