<?xml version="1.0" encoding="utf-8"?>
<!-- Generator: Adobe Illustrator 23.0.3, SVG Export Plug-In . SVG Version: 6.00 Build 0)  -->
<svg version="1.1" id="Layer_1" xmlns="http://www.w3.org/2000/svg" xmlns:xlink="http://www.w3.org/1999/xlink" x="0px" y="0px"
	 viewBox="0 0 40 40" style="enable-background:new 0 0 40 40;" xml:space="preserve">
<style type="text/css">
	.st0{fill:#FFFFFF;}
	.st1{fill:#6267A1;}
</style>
<rect class="st0" width="40" height="40"/>
<g>
	<g>
		<path class="st1" d="M25.5,26.9c-5.8,0-10.5-4.7-10.5-10.5C15,10.7,19.7,6,25.5,6S36,10.7,36,16.5C35.9,22.2,31.2,26.9,25.5,26.9z
			 M25.5,8.1c-4.6,0-8.4,3.8-8.4,8.4s3.8,8.4,8.4,8.4s8.4-3.8,8.4-8.4C33.8,11.9,30.1,8.1,25.5,8.1z"/>
	</g>
	<g>
		<path class="st1" d="M37.9,30c-0.3,0-0.5-0.1-0.7-0.3l-5.8-5.8c-0.4-0.4-0.4-1.1,0-1.5s1.1-0.4,1.5,0l5.8,5.8
			c0.4,0.4,0.4,1.1,0,1.5C38.5,29.9,38.2,30,37.9,30z"/>
	</g>
</g>
</svg>
