<?xml version="1.0" encoding="utf-8"?>
<!-- Generator: Adobe Illustrator 23.0.3, SVG Export Plug-In . SVG Version: 6.00 Build 0)  -->
<svg version="1.1" id="Layer_1" xmlns="http://www.w3.org/2000/svg" xmlns:xlink="http://www.w3.org/1999/xlink" x="0px" y="0px"
	 viewBox="0 0 48 44" style="enable-background:new 0 0 48 44;" xml:space="preserve">
<style type="text/css">
	.st0{fill:#9797A0;}
</style>
<g>
	<path class="st0" d="M11.2,37.3c-1.1-0.4-1.9-1.1-2.3-2c-0.4,1.1-1.3,1.9-2.5,2.3l-0.6-0.9c1.6-0.5,2.4-1.8,2.4-3.2v-0.2h-2v-0.9
		h5.3v0.9H9.4v0.2c0,1.2,0.8,2.4,2.3,2.9L11.2,37.3z M13.8,39.8c0,1.2-1.3,1.9-3.3,1.9S7.2,41,7.2,39.8s1.3-1.9,3.3-1.9
		C12.6,37.9,13.8,38.6,13.8,39.8z M12.7,39.8c0-0.6-0.8-1-2.2-1s-2.2,0.3-2.2,1c0,0.6,0.8,1,2.2,1C11.9,40.7,12.7,40.4,12.7,39.8z
		 M15.1,34.1V35h-1.4v2.6h-1.1v-5.9h1.1v2.4H15.1z"/>
	<path class="st0" d="M19.2,32.5h1.1v6.8h-4.7v-6.8h1.1V35h2.5V32.5z M19.2,35.9h-2.5v2.4h2.5V35.9z M24.5,36.5h-1.6v5.2h-1.1v-9.9
		h1.1v3.8h1.6V36.5z"/>
	<path class="st0" d="M33.5,37.5h-4v4.1h-1.1v-4.1h-3.9v-0.9H31c0.3-1.4,0.3-2.4,0.3-3.3h-5.7v-0.9h6.8v0.9c0,0.9,0,2-0.3,3.4h1.4
		V37.5z"/>
	<path class="st0" d="M35.5,38.2c1.4,0,2.9-0.1,4.5-0.5l0.1,0.9c-1.7,0.4-3.3,0.5-4.9,0.5h-0.8v-6.5h1.1
		C35.5,32.6,35.5,38.2,35.5,38.2z M42,31.7v9.9h-1.1v-9.9C40.9,31.7,42,31.7,42,31.7z"/>
</g>
<path class="st0" d="M36.3,9h-4.8l-3.3-5.9c-0.3-0.5-1-0.7-1.5-0.4s-0.7,1-0.4,1.5L29,9H19l2.7-4.8C22,3.7,21.8,3,21.3,2.7
	s-1.2-0.1-1.5,0.4L16.5,9h-4.9c-0.6,0-1.1,0.5-1.1,1.1s0.5,1.1,1.1,1.1h0.9c0,0.1,0,0.1,0,0.2l1.9,8.7c0.6,2.9,3.1,4.9,6,4.9h7
	c2.9,0,5.4-2.1,6-4.9l2-8.7c0-0.1,0-0.1,0-0.2h0.9c0.6,0,1.1-0.5,1.1-1.1S36.9,9,36.3,9z M31.3,19.7c-0.4,1.8-2,3.1-3.8,3.1h-7
	c-1.9,0-3.5-1.3-3.8-3.2l-1.9-8.4h18.5L31.3,19.7z"/>
</svg>
