<?xml version="1.0" encoding="utf-8"?>
<!-- Generator: Adobe Illustrator 23.0.3, SVG Export Plug-In . SVG Version: 6.00 Build 0)  -->
<svg version="1.1" id="Layer_1" xmlns="http://www.w3.org/2000/svg" xmlns:xlink="http://www.w3.org/1999/xlink" x="0px" y="0px"
	 viewBox="0 0 48 44" style="enable-background:new 0 0 48 44;" xml:space="preserve">
<style type="text/css">
	.st0{fill:#444444;}
	.st1{fill:#4F4D6C;}
</style>
<g>
	<path class="st0" d="M1.5,32.7h4.7v6.5H1.5V32.7z M2.6,38.3H5v-4.7H2.6V38.3z M10.4,36.5H8.8v5.1H7.7v-9.9h1.1v3.9h1.6V36.5z"/>
	<path class="st0" d="M15.8,35.9c0,2.2-1.1,3.5-2.6,3.5c-1.5,0-2.6-1.4-2.6-3.5c0-2.1,1.1-3.5,2.6-3.5
		C14.8,32.4,15.8,33.8,15.8,35.9z M11.8,35.9c0,1.6,0.6,2.5,1.5,2.5c0.9,0,1.5-0.9,1.5-2.5c0-1.5-0.6-2.5-1.5-2.5
		C12.4,33.5,11.8,34.4,11.8,35.9z M18.6,31.7v10h-1.1v-10H18.6z"/>
	<path class="st0" d="M28.7,38.3h-2.2v3.4h-1.1v-3.4H23v3.4h-1.1v-3.4h-2.2v-0.9h9V38.3z M27.6,36.2h-6.7v-4h6.6v0.9H22v2.1h5.6
		V36.2z"/>
	<path class="st0" d="M38,39.5v0.9h-9v-0.9h3.9v-1.9c-1.8-0.2-3.1-1.2-3.1-2.6c0-1.6,1.5-2.7,3.7-2.7c2.1,0,3.7,1,3.7,2.7
		c0,1.5-1.3,2.5-3.1,2.7v1.9H38z M33.5,36.7c1.5,0,2.5-0.7,2.5-1.8s-1.1-1.8-2.5-1.8c-1.5,0-2.6,0.7-2.6,1.8S32,36.7,33.5,36.7z"/>
	<path class="st0" d="M44.2,37c-1.5,0.3-2.8,0.3-4.7,0.3h-0.8v-3h3.4v-1.1h-3.4v-0.9h4.5v2.9h-3.4v1.2c1.7,0,2.9-0.1,4.3-0.3
		L44.2,37z M39.5,38.2H46v3.4h-1.1v-2.5h-5.4V38.2z M47.5,35.1H46v2.6h-1.1v-6H46v2.5h1.4V35.1z"/>
</g>
<path class="st1" d="M27,14.5c2-1.1,3.4-3.2,3.4-5.6c0-3.5-2.8-6.3-6.3-6.3s-6.3,2.8-6.3,6.3c0,2.4,1.4,4.5,3.4,5.6
	c-4,1.3-6.9,5-6.9,9.4c0,0.6,0.5,1.1,1.1,1.1s1.1-0.5,1.1-1.1c0-4.2,3.5-7.7,7.7-7.7s7.7,3.5,7.7,7.7c0,0.6,0.5,1.1,1.1,1.1
	s1.1-0.5,1.1-1.1C33.9,19.5,31,15.7,27,14.5z M24,4.7c2.3,0,4.1,1.9,4.1,4.1S26.3,13,24,13s-4.1-1.9-4.1-4.1S21.7,4.7,24,4.7z"/>
</svg>
