<?xml version="1.0" encoding="utf-8"?>
<!-- Generator: Adobe Illustrator 23.0.3, SVG Export Plug-In . SVG Version: 6.00 Build 0)  -->
<svg version="1.1" id="Layer_1" xmlns="http://www.w3.org/2000/svg" xmlns:xlink="http://www.w3.org/1999/xlink" x="0px" y="0px"
	 viewBox="0 0 48 44" style="enable-background:new 0 0 48 44;" xml:space="preserve">
<style type="text/css">
	.st0{fill:#444444;}
	.st1{fill:#4F4D6C;}
</style>
<g>
	<path class="st0" d="M14.6,39.5v0.9h-9v-0.9h3.9v-1.7H6.6v-3.2h5.7v-1.3H6.6v-0.9h6.9v3.1H7.8v1.4h6v0.9h-3.2v1.7H14.6z"/>
	<path class="st0" d="M23.8,39.3v0.9h-9v-0.9H23.8z M21.6,33.6h-5.7v-0.9h6.9v1.1c0,1.3,0,2.7-0.4,4.8l-1.1-0.1
		c0.4-2,0.4-3.4,0.4-4.7v-0.2H21.6z"/>
	<path class="st0" d="M29.3,35.9c0,2.1-1.1,3.5-2.6,3.5s-2.6-1.4-2.6-3.5s1.1-3.5,2.6-3.5S29.3,33.8,29.3,35.9z M28.3,35.9
		c0-1.6-0.6-2.5-1.5-2.5s-1.5,0.9-1.5,2.5s0.6,2.5,1.5,2.5C27.6,38.4,28.3,37.5,28.3,35.9z M33.4,36.5h-1.6v5.1h-1.1v-9.9h1.1v3.9
		h1.6V36.5z"/>
	<path class="st0" d="M42.4,36.2v0.9h-4v1h-1.1v-1h-3.9v-0.9H42.4z M38.5,38.8c0,1,1.3,1.8,3.3,1.9l-0.4,0.9
		c-1.6-0.2-2.9-0.7-3.5-1.6c-0.6,0.9-1.9,1.5-3.5,1.6L34,40.7c2-0.2,3.3-1,3.3-1.9v-0.3h1.2V38.8z M34.4,33.7c0-1.2,1.4-1.8,3.5-1.8
		c2.2,0,3.5,0.7,3.5,1.8c0,1.2-1.4,1.9-3.5,1.9C35.8,35.5,34.4,34.8,34.4,33.7z M35.6,33.7c0,0.6,0.9,1,2.4,1s2.4-0.4,2.4-1
		s-0.9-1-2.4-1S35.6,33,35.6,33.7z"/>
</g>
<g>
	<path class="st1" d="M28.8,9.9V7.2c0-2.7-2.2-4.8-4.8-4.8s-4.8,2.2-4.8,4.8v2.7c-2.2,1.5-3.6,4-3.6,6.9c0,4.6,3.8,8.4,8.4,8.4
		s8.4-3.8,8.4-8.4C32.4,13.9,31,11.4,28.8,9.9z M21.4,7.2c0-1.4,1.2-2.6,2.6-2.6s2.6,1.2,2.6,2.6v1.6c-0.8-0.3-1.7-0.4-2.6-0.4
		s-1.8,0.2-2.6,0.4V7.2z M24,22.9c-3.4,0-6.2-2.8-6.2-6.2s2.8-6.2,6.2-6.2s6.2,2.8,6.2,6.2S27.4,22.9,24,22.9z"/>
	<path class="st1" d="M22.4,16.8c0,0.9,0.7,1.6,1.6,1.6s1.6-0.7,1.6-1.6S24,14.1,24,14.1S22.4,15.9,22.4,16.8z"/>
</g>
</svg>
