<?xml version="1.0" encoding="utf-8"?>
<!-- Generator: Adobe Illustrator 23.0.3, SVG Export Plug-In . SVG Version: 6.00 Build 0)  -->
<svg version="1.1" id="Layer_1" xmlns="http://www.w3.org/2000/svg" xmlns:xlink="http://www.w3.org/1999/xlink" x="0px" y="0px"
	 viewBox="0 0 40 40" style="enable-background:new 0 0 40 40;" xml:space="preserve">
<style type="text/css">
	.st0{fill:#FFFFFF;}
	.st1{fill:#6267A1;}
</style>
<rect class="st0" width="40" height="40"/>
<path class="st1" d="M33.5,14.8h-5.3l-3.6-6.5c-0.3-0.5-1.1-0.8-1.6-0.4c-0.5,0.3-0.8,1.1-0.4,1.6l3,5.3h-11l3-5.3
	c0.3-0.5,0.1-1.3-0.4-1.6c-0.5-0.3-1.3-0.1-1.6,0.4l-3.6,6.5H6.5c-0.7,0-1.2,0.5-1.2,1.2s0.5,1.2,1.2,1.2h1c0,0.1,0,0.1,0,0.2
	l2.1,9.5c0.7,3.2,3.4,5.4,6.6,5.4h7.7c3.2,0,5.9-2.3,6.6-5.4l2.2-9.5c0-0.1,0-0.1,0-0.2h1c0.7,0,1.2-0.5,1.2-1.2
	S34.2,14.8,33.5,14.8z M28.1,26.5c-0.4,2-2.2,3.4-4.2,3.4h-7.7c-2.1,0-3.8-1.4-4.2-3.5L10,17.2h20.3L28.1,26.5z"/>
</svg>
