<?xml version="1.0" encoding="utf-8"?>
<!-- Generator: Adobe Illustrator 22.1.0, SVG Export Plug-In . SVG Version: 6.00 Build 0)  -->
<svg version="1.1" id="Layer_2_1_" xmlns="http://www.w3.org/2000/svg" xmlns:xlink="http://www.w3.org/1999/xlink" x="0px" y="0px"
	 viewBox="0 0 160 120" style="enable-background:new 0 0 160 120;" xml:space="preserve">
<style type="text/css">
	.st0{opacity:1.000000e-02;fill:#FF06D2;enable-background:new    ;}
	.st1{fill:#48508C;}
	.st2{fill:#C5C9DD;}
	.st3{fill:#FFFFFF;}
</style>
<title>mobileMenu01</title>
<rect class="st0" width="160" height="120"/>
<path class="st1" d="M88.8,62.7H71.2c-3.9,0-7-3.1-7-7V40.6c0-1.7,1.3-3,3-3s3,1.3,3,3v15.2c0,0.6,0.4,1,1,1h17.7c0.6,0,1-0.4,1-1
	V40.6c0-1.7,1.3-3,3-3s3,1.3,3,3v15.2C95.9,59.6,92.7,62.7,88.8,62.7C88.9,62.7,88.9,62.7,88.8,62.7z"/>
<path class="st1" d="M62.6,46.4c-1.7,0-3-1.3-3-3c0-1,0.5-1.9,1.3-2.5L78.3,28c1.3-1,3.2-0.7,4.2,0.7c1,1.4,0.7,3.2-0.7,4.2l0,0
	l-17.4,13C63.9,46.2,63.2,46.4,62.6,46.4z"/>
<path class="st1" d="M97.4,46.4c-0.6,0-1.3-0.2-1.8-0.6L78.2,33c-1.4-0.9-1.8-2.8-0.8-4.2c0.9-1.4,2.8-1.8,4.2-0.8
	c0.1,0.1,0.2,0.1,0.2,0.2L99.2,41c1.3,1,1.6,2.9,0.6,4.2C99.2,46,98.3,46.4,97.4,46.4L97.4,46.4z"/>
<path class="st1" d="M84.6,58.2c-1.7,0-3-1.3-3-3v-5.8c0-0.2-0.1-0.3-0.3-0.3l0,0h-2.5c-0.2,0-0.3,0.1-0.3,0.3l0,0v5.8
	c0,1.7-1.3,3-3,3s-3-1.3-3-3v-5.8c0-3.5,2.8-6.3,6.3-6.3h2.5c3.5,0,6.3,2.8,6.3,6.3v5.8C87.6,56.9,86.2,58.2,84.6,58.2z"/>
<path class="st2" d="M88.9,84.4v1.4H71.1v-1.4h8v-1.5c-3.5-0.1-5.5-1.1-5.5-2.8c0-1.7,2.3-2.8,6.4-2.8s6.4,1,6.4,2.8s-2,2.7-5.5,2.8
	v1.5H88.9z M87.9,76.6H72v-1.4h7.1v-1.9h1.8v1.9h7V76.6z M73.3,87.4h13.5V93H73.3V87.4z M75,91.7h10v-2.9H75V91.7z M80,81.7
	c2.8,0,4.4-0.6,4.4-1.5s-1.6-1.5-4.4-1.5s-4.5,0.6-4.5,1.5S77.1,81.7,80,81.7L80,81.7z"/>
<path class="st3" d="M88.8,61.1H71.2c-3,0-5.4-2.4-5.4-5.4V40.6c0-0.8,0.6-1.4,1.4-1.4s1.4,0.6,1.4,1.4v15.2c0,1.4,1.2,2.6,2.6,2.6
	l0,0h17.7c1.4,0,2.6-1.2,2.6-2.6l0,0V40.6c0-0.8,0.6-1.4,1.4-1.4s1.4,0.6,1.4,1.4v15.2C94.3,58.7,91.8,61.1,88.8,61.1z"/>
<path class="st3" d="M62.6,44.8c-0.4,0-0.9-0.2-1.1-0.6c-0.5-0.6-0.4-1.5,0.2-2l0,0l17.4-12.9c0.6-0.5,1.5-0.4,2,0.2s0.4,1.5-0.2,2
	l-0.1,0.1l-17.4,13C63.2,44.7,62.9,44.8,62.6,44.8z"/>
<path class="st3" d="M97.4,44.8c-0.3,0-0.6-0.1-0.8-0.3L79.2,31.7c-0.6-0.4-0.8-1.3-0.4-1.9s1.3-0.8,1.9-0.4l0.1,0.1l17.4,12.9
	c0.6,0.4,0.8,1.3,0.3,2l0,0C98.3,44.7,97.8,44.9,97.4,44.8z"/>
<path class="st3" d="M84.6,56.6c-0.8,0-1.4-0.6-1.4-1.4l0,0v-5.8c0-1.1-0.9-1.9-1.9-1.9l0,0h-2.5c-1.1,0-1.9,0.9-1.9,1.9l0,0v5.8
	c0,0.8-0.6,1.4-1.4,1.4S74,56,74,55.2v-5.8c0-2.6,2.1-4.7,4.7-4.7l0,0h2.5c2.6,0,4.7,2.1,4.7,4.7l0,0v5.8C86,56,85.4,56.6,84.6,56.6
	L84.6,56.6z"/>
</svg>
