<?xml version="1.0" encoding="utf-8"?>
<!-- Generator: Adobe Illustrator 22.1.0, SVG Export Plug-In . SVG Version: 6.00 Build 0)  -->
<svg version="1.1" id="Layer_2_1_" xmlns="http://www.w3.org/2000/svg" xmlns:xlink="http://www.w3.org/1999/xlink" x="0px" y="0px"
	 viewBox="0 0 160 120" style="enable-background:new 0 0 160 120;" xml:space="preserve">
<style type="text/css">
	.st0{opacity:1.000000e-02;fill:#002CE4;enable-background:new    ;}
	.st1{fill:#48508C;}
	.st2{fill:#C5C9DD;}
	.st3{fill:#FFFFFF;}
</style>
<title>mobileMenu02</title>
<rect class="st0" width="160" height="120"/>
<g>
	<path class="st1" d="M96.7,36.8H64.8c-1.7,0-3-1.3-3-3s1.3-3,3-3h31.9c1.7,0,3,1.3,3,3S98.4,36.8,96.7,36.8z"/>
	<path class="st1" d="M96.7,47.7H64.8c-1.7,0-3-1.3-3-3s1.3-3,3-3h31.9c1.7,0,3,1.3,3,3S98.4,47.7,96.7,47.7z"/>
	<path class="st1" d="M96.7,58.7H64.8c-1.7,0-3-1.3-3-3s1.3-3,3-3h31.9c1.7,0,3,1.3,3,3S98.4,58.7,96.7,58.7z"/>
	<path class="st2" d="M53.3,75.3c0,5.7-1.9,10.9-9,14.5l-1-1.4c3.7-1.8,5.8-4.1,7-6.7l-6.6,0.6l-0.3-1.6l7.5-0.5
		c0.3-1.1,0.5-2.3,0.6-3.4h-7.1v-1.5H53.3z M61.5,82.8h-3.2V93h-1.8V73.3h1.8v8h3.2V82.8z"/>
	<path class="st2" d="M64.7,86.8c2.2,0.1,4.4-0.1,6.6-0.5l0.2,1.5c-2.4,0.4-4.8,0.6-7.2,0.5H63V75.6h7.3v1.5h-5.6V81h4.7v1.4h-4.7
		C64.7,82.4,64.7,86.8,64.7,86.8z M73.3,73.8H75V92h-1.7v-9.8h-2.9v-1.5h2.9V73.8z M79,73.2V93h-1.7V73.2H79z"/>
	<path class="st2" d="M99.3,88.8v1.5H81.4v-1.5h6.9v-7.1h1.8v7.1H99.3z M95.3,76.8h-12v-1.5h13.8v2c0.1,3.1-0.2,6.1-0.8,9.1
		l-1.8-0.2c0.6-2.9,0.8-5.9,0.8-8.9V76.8z"/>
	<path class="st2" d="M103.5,86.7c3.2,0,6.4-0.2,9.6-0.7l0.2,1.5c-3.3,0.5-6.6,0.8-9.9,0.7h-1.6v-7.6h7.3v-4.1h-7.3V75h9.2v7.1h-7.3
		L103.5,86.7z M116.7,73.2V93h-1.8V73.2H116.7z"/>
	<path class="st3" d="M96.7,35.2H64.8c-0.8,0-1.4-0.6-1.4-1.4s0.6-1.4,1.4-1.4l0,0h31.9c0.8,0,1.4,0.6,1.4,1.4S97.5,35.2,96.7,35.2
		L96.7,35.2z"/>
	<path class="st3" d="M96.7,46.1H64.8c-0.8,0-1.4-0.6-1.4-1.4s0.6-1.4,1.4-1.4l0,0h31.9c0.8,0,1.4,0.6,1.4,1.4S97.5,46.1,96.7,46.1
		L96.7,46.1z"/>
	<path class="st3" d="M96.7,57H64.8c-0.8,0-1.4-0.6-1.4-1.4s0.6-1.4,1.4-1.4l0,0h31.9c0.8,0,1.4,0.6,1.4,1.4S97.5,57,96.7,57
		L96.7,57z"/>
</g>
</svg>
