<?xml version="1.0" encoding="utf-8"?>
<!-- Generator: Adobe Illustrator 22.1.0, SVG Export Plug-In . SVG Version: 6.00 Build 0)  -->
<svg version="1.1" id="Layer_2_1_" xmlns="http://www.w3.org/2000/svg" xmlns:xlink="http://www.w3.org/1999/xlink" x="0px" y="0px"
	 viewBox="0 0 160 120" style="enable-background:new 0 0 160 120;" xml:space="preserve">
<style type="text/css">
	.st0{opacity:1.000000e-02;fill:#FFFFFF;enable-background:new    ;}
	.st1{fill:#48508C;}
	.st2{fill:#C5C9DD;}
	.st3{fill:#FFFFFF;}
</style>
<title>mobileMenu03</title>
<rect class="st0" width="160" height="120"/>
<path class="st1" d="M85.9,62.5h-10c-4.9,0-9.1-3.4-10-8.2l-2.8-12.4c-0.2-1.6,0.9-3.2,2.5-3.4c1.5-0.2,2.9,0.7,3.3,2.1L71.8,53
	c0.4,2,2.1,3.4,4.1,3.4h10c2,0,3.7-1.4,4.1-3.3l2.8-12.5c0.4-1.6,2-2.6,3.6-2.3c1.6,0.4,2.6,2,2.3,3.6l0,0l-2.8,12.5
	C94.9,59.1,90.8,62.5,85.9,62.5z"/>
<path class="st1" d="M98.6,42.7H63.2c-1.7,0-3-1.3-3-3s1.3-3,3-3h35.4c1.7,0,3,1.3,3,3S100.3,42.7,98.6,42.7z"/>
<path class="st1" d="M71.3,42.2c-1.7,0-3-1.3-3-3c0-0.5,0.1-1,0.4-1.5l4.9-8.8c0.8-1.4,2.7-1.9,4.1-1.1s1.9,2.6,1.1,4L74,40.7
	C73.5,41.7,72.4,42.2,71.3,42.2z"/>
<path class="st1" d="M90.5,42.2c-1.1,0-2.1-0.6-2.6-1.5L83,31.9c-0.7-1.5,0-3.3,1.5-4c1.3-0.6,2.9-0.1,3.7,1.1l4.9,8.8
	c0.8,1.4,0.3,3.3-1.1,4.1C91.5,42.1,91,42.3,90.5,42.2L90.5,42.2z"/>
<path class="st2" d="M53.8,84.2C51.7,83.6,50,82,49.1,80c-0.9,2.3-2.7,4.1-5,4.8l-0.9-1.4c2.9-0.9,4.9-3.4,5-6.4v-0.8h-4.5v-1.5
	h10.6v1.4h-4.4V77c0,2.6,1.9,4.9,4.8,5.9L53.8,84.2z M58.8,89.3c0,2.3-2.5,3.7-6.5,3.7s-6.5-1.3-6.5-3.7s2.5-3.6,6.5-3.6
	S58.8,87,58.8,89.3L58.8,89.3z M57,89.3c0-1.4-1.8-2.2-4.7-2.2c-2.9,0-4.7,0.8-4.7,2.2s1.8,2.2,4.7,2.2C55.2,91.5,57,90.7,57,89.3
	L57,89.3z M61.5,78.3v1.5h-3v5.4h-1.8V73.3h1.8v5H61.5z"/>
<path class="st2" d="M70.6,74.9h1.8v13.3h-9.2V74.9H65v5.2h5.6V74.9z M70.6,81.6H65v5.2h5.6V81.6z M80.8,82.6h-3.3V93h-1.8V73.3h1.8
	V81h3.3V82.6z"/>
<path class="st2" d="M99.4,84.5h-8.1V93h-1.8v-8.5h-8V83h13.1c0.5-2.2,0.7-4.5,0.6-6.8V76H83.8v-1.5H97v1.7c0.1,2.3-0.1,4.5-0.6,6.8
	h2.9L99.4,84.5z"/>
<path class="st2" d="M103.7,86.3c3.1,0,6.2-0.3,9.3-0.9l0.2,1.5c-3.2,0.6-6.4,1-9.7,0.9h-1.6V75.2h1.8L103.7,86.3z M116.8,73.3V93
	H115V73.3H116.8z"/>
<path class="st3" d="M85.9,60.9h-10c-4.1,0-7.6-2.9-8.4-6.9l-2.8-12.5c-0.1-0.8,0.4-1.5,1.1-1.6s1.4,0.3,1.6,1l2.8,12.5
	c0.5,2.7,2.9,4.7,5.6,4.7h10c2.7,0,5.1-1.9,5.6-4.6L94.2,41c0.2-0.8,0.9-1.2,1.7-1.1c0.8,0.2,1.2,0.9,1.1,1.7L94.3,54
	C93.5,58,90,60.9,85.9,60.9z"/>
<path class="st3" d="M98.6,41.1H63.2c-0.8,0-1.4-0.6-1.4-1.4s0.6-1.4,1.4-1.4l0,0h35.4c0.8,0,1.4,0.6,1.4,1.4S99.4,41.1,98.6,41.1
	L98.6,41.1z"/>
<path class="st3" d="M71.3,40.6c-0.2,0-0.5-0.1-0.7-0.2c-0.7-0.4-0.9-1.2-0.5-1.9l4.9-8.8c0.4-0.7,1.2-1,1.9-0.6
	c0.7,0.4,1,1.2,0.6,1.9v0.1l-4.9,8.8C72.3,40.4,71.8,40.6,71.3,40.6z"/>
<path class="st3" d="M90.5,40.6c-0.5,0-1-0.3-1.2-0.7l-5-8.8c-0.4-0.7-0.1-1.5,0.5-1.9c0.7-0.4,1.5-0.1,1.9,0.5l0,0l4.9,8.8
	c0.4,0.7,0.1,1.5-0.5,1.9l0,0C90.9,40.6,90.7,40.6,90.5,40.6z"/>
</svg>
