<?xml version="1.0" encoding="utf-8"?>
<!-- Generator: Adobe Illustrator 22.1.0, SVG Export Plug-In . SVG Version: 6.00 Build 0)  -->
<svg version="1.1" id="Layer_2_1_" xmlns="http://www.w3.org/2000/svg" xmlns:xlink="http://www.w3.org/1999/xlink" x="0px" y="0px"
	 viewBox="0 0 160 120" style="enable-background:new 0 0 160 120;" xml:space="preserve">
<style type="text/css">
	.st0{opacity:1.000000e-02;fill:#FFFFFF;enable-background:new    ;}
	.st1{fill:#48508C;}
	.st2{fill:#C5C9DD;}
	.st3{fill:#FFFFFF;}
</style>
<title>mobileMenu04</title>
<rect class="st0" width="160" height="120"/>
<path class="st1" d="M80.5,48C74.7,48,70,43.3,70,37.5S74.7,27,80.5,27S91,31.7,91,37.5S86.3,48,80.5,48L80.5,48z M80.5,33
	C78,33,76,35,76,37.5s2,4.5,4.5,4.5s4.5-2,4.5-4.5S83,33,80.5,33z"/>
<path class="st1" d="M93.1,62c-1.7,0-3-1.3-3-3c-0.2-5.3-4.6-9.4-9.9-9.3c-5.1,0.2-9.1,4.2-9.3,9.3c0,1.7-1.3,3-3,3s-3-1.3-3-3
	c0.2-8.6,7.4-15.4,16-15.2c8.3,0.2,15,6.9,15.2,15.2C96.1,60.7,94.7,62,93.1,62z"/>
<path class="st2" d="M34,75.2h9V88h-9V75.2z M35.8,86.5h5.5v-9.8h-5.5V86.5z M51.7,82.6h-3.3V93h-1.8V73.3h1.8v7.8h3.3V82.6z"/>
<path class="st2" d="M63.2,81.6c0,4.2-2.1,6.9-5,6.9s-5-2.7-5-6.9s2.1-6.9,5-6.9S63.2,77.4,63.2,81.6z M54.8,81.6
	c0,3.2,1.4,5.3,3.3,5.3s3.3-2.1,3.3-5.3c0-3.2-1.4-5.3-3.3-5.3S54.8,78.4,54.8,81.6z M68.5,73.2V93h-1.8V73.2H68.5z"/>
<path class="st2" d="M79.1,86.3c0.7-0.1,1.4-0.1,2.1-0.2l0.1,1.3c-3.2,0.5-6.5,0.7-9.8,0.7l-0.2-1.5c0.6,0,1.3,0,2,0v-9.4h-1.6v-1.5
	h9v1.4h-1.6V86.3z M75,86.5l2.5-0.1v-9.3H75V86.5z M82.8,73.7h1.7v18.2h-1.7v-9.6h-2.7v-1.6h2.7V73.7z M88.4,73.3V93h-1.7V73.3H88.4
	z"/>
<path class="st2" d="M101.4,81.6c0,4.2-2.1,6.9-5,6.9s-5-2.7-5-6.9s2.1-6.9,5-6.9S101.4,77.4,101.4,81.6z M93.1,81.6
	c0,3.2,1.4,5.3,3.3,5.3s3.3-2.1,3.3-5.3c0-3.2-1.4-5.3-3.3-5.3S93.1,78.4,93.1,81.6z M106.8,73.2V93H105V73.2H106.8z"/>
<path class="st2" d="M116.8,79.3c0.1,3.4,2.2,6.5,5.3,8l-1,1.4c-2.4-1.2-4.3-3.4-5.2-6c-0.8,2.7-2.6,5.1-5.1,6.5l-1.1-1.5
	c3.1-1.7,5.1-4.9,5.2-8.5v-2.5h-4.6v-1.5h11v1.5h-4.6L116.8,79.3z M126,73.3V93h-1.8V73.3H126z"/>
<path class="st3" d="M80.5,46.4c-4.9,0-8.9-4-8.9-8.9s4-8.9,8.9-8.9s8.9,4,8.9,8.9S85.4,46.4,80.5,46.4L80.5,46.4z M80.5,31.4
	c-3.4,0-6.1,2.7-6.1,6.1s2.7,6.1,6.1,6.1s6.1-2.7,6.1-6.1l0,0C86.6,34.1,83.8,31.4,80.5,31.4z"/>
<path class="st3" d="M93.1,60.4c-0.8,0-1.4-0.6-1.4-1.4l0,0c-0.2-6.2-5.3-11-11.5-10.8c-5.9,0.2-10.7,4.9-10.8,10.9
	c0,0.8-0.6,1.4-1.4,1.4s-1.4-0.6-1.4-1.4c0-7.7,6.3-14,14-14s14,6.3,14,14C94.5,59.8,93.9,60.4,93.1,60.4L93.1,60.4z"/>
</svg>
